M48
; DRILL file {KiCad (6.0.1)} date Sat Feb  5 19:11:43 2022
; FORMAT={-:-/ absolute / inch / decimal}
; #@! TF.CreationDate,2022-02-05T19:11:43-06:00
; #@! TF.GenerationSoftware,Kicad,Pcbnew,(6.0.1)
; #@! TF.FileFunction,Plated,1,2,PTH
FMAT,2
INCH
; #@! TA.AperFunction,Plated,PTH,ViaDrill
T1C0.0157
; #@! TA.AperFunction,Plated,PTH,ComponentDrill
T2C0.0320
; #@! TA.AperFunction,Plated,PTH,ComponentDrill
T3C0.0394
; #@! TA.AperFunction,Plated,PTH,ComponentDrill
T4C0.1181
%
G90
G05
T1
X5.6Y-3.6
X5.614Y-4.644
X5.615Y-4.292
X5.615Y-4.385
X5.616Y-4.498
X5.71Y-4.292
X5.712Y-4.38
X5.79Y-4.318
X5.81Y-3.852
X5.818Y-3.372
X5.83Y-3.61
X5.852Y-4.262
X5.885Y-4.4
X5.885Y-4.66
X5.944Y-3.952
X5.945Y-4.045
X5.945Y-4.215
X5.96Y-3.758
X5.99Y-4.045
X5.99Y-4.09
X5.99Y-4.13
X5.99Y-4.17
X5.99Y-4.215
X6.01Y-3.86
X6.035Y-4.045
X6.035Y-4.215
X6.05Y-3.59
X6.068Y-3.368
X6.09Y-3.866
X6.095Y-4.4
X6.095Y-4.66
X6.11Y-3.98
X6.12Y-4.18
X6.148Y-3.764
X6.162Y-4.276
X6.206Y-3.896
X6.214Y-3.37
X6.218Y-3.586
X6.22Y-4.01
X6.232Y-4.17
X6.28Y-3.68
X6.306Y-4.394
X6.3065Y-3.632
X6.3065Y-3.7318
X6.32Y-4.02
X6.338Y-4.656
X6.374Y-3.534
X6.382Y-3.68
X6.386Y-3.92
X6.386Y-4.196
X6.388Y-3.834
X6.452Y-4.032
X6.462Y-3.442
X6.572Y-3.94
X6.636Y-3.38
X6.646Y-4.654
X6.65Y-3.616
X6.65Y-4.114
X6.65Y-4.316
X6.652Y-3.818
T2
X6.36Y-4.0925
X6.46Y-4.0925
X6.56Y-4.0925
T3
X6.18Y-4.1
X6.514Y-3.6318
X6.514Y-3.7318
T4
X5.67Y-3.4683
X5.67Y-3.7517
X5.78Y-4.57
X5.99Y-4.57
X6.2Y-4.57
T0
M30
