G04 #@! TF.GenerationSoftware,KiCad,Pcbnew,(6.0.1)*
G04 #@! TF.CreationDate,2022-02-05T19:11:42-06:00*
G04 #@! TF.ProjectId,MCF8316A,4d434638-3331-4364-912e-6b696361645f,rev?*
G04 #@! TF.SameCoordinates,Original*
G04 #@! TF.FileFunction,Soldermask,Top*
G04 #@! TF.FilePolarity,Negative*
%FSLAX46Y46*%
G04 Gerber Fmt 4.6, Leading zero omitted, Abs format (unit mm)*
G04 Created by KiCad (PCBNEW (6.0.1)) date 2022-02-05 19:11:42*
%MOMM*%
%LPD*%
G01*
G04 APERTURE LIST*
G04 Aperture macros list*
%AMRoundRect*
0 Rectangle with rounded corners*
0 $1 Rounding radius*
0 $2 $3 $4 $5 $6 $7 $8 $9 X,Y pos of 4 corners*
0 Add a 4 corners polygon primitive as box body*
4,1,4,$2,$3,$4,$5,$6,$7,$8,$9,$2,$3,0*
0 Add four circle primitives for the rounded corners*
1,1,$1+$1,$2,$3*
1,1,$1+$1,$4,$5*
1,1,$1+$1,$6,$7*
1,1,$1+$1,$8,$9*
0 Add four rect primitives between the rounded corners*
20,1,$1+$1,$2,$3,$4,$5,0*
20,1,$1+$1,$4,$5,$6,$7,0*
20,1,$1+$1,$6,$7,$8,$9,0*
20,1,$1+$1,$8,$9,$2,$3,0*%
G04 Aperture macros list end*
%ADD10RoundRect,0.250000X-0.350000X-0.450000X0.350000X-0.450000X0.350000X0.450000X-0.350000X0.450000X0*%
%ADD11RoundRect,0.185000X-1.665000X2.665000X-1.665000X-2.665000X1.665000X-2.665000X1.665000X2.665000X0*%
%ADD12RoundRect,0.062500X0.237500X-0.062500X0.237500X0.062500X-0.237500X0.062500X-0.237500X-0.062500X0*%
%ADD13RoundRect,0.062500X0.062500X0.237500X-0.062500X0.237500X-0.062500X-0.237500X0.062500X-0.237500X0*%
%ADD14RoundRect,0.250000X-1.750000X-1.750000X1.750000X-1.750000X1.750000X1.750000X-1.750000X1.750000X0*%
%ADD15RoundRect,0.225000X-0.225000X-0.250000X0.225000X-0.250000X0.225000X0.250000X-0.225000X0.250000X0*%
%ADD16R,1.100000X1.500000*%
%ADD17RoundRect,0.225000X0.250000X-0.225000X0.250000X0.225000X-0.250000X0.225000X-0.250000X-0.225000X0*%
%ADD18RoundRect,0.250000X-0.650000X0.325000X-0.650000X-0.325000X0.650000X-0.325000X0.650000X0.325000X0*%
%ADD19RoundRect,0.250000X0.350000X0.450000X-0.350000X0.450000X-0.350000X-0.450000X0.350000X-0.450000X0*%
%ADD20RoundRect,0.225000X0.225000X0.250000X-0.225000X0.250000X-0.225000X-0.250000X0.225000X-0.250000X0*%
%ADD21R,1.700000X1.700000*%
%ADD22O,1.700000X1.700000*%
%ADD23RoundRect,0.250000X-1.750000X1.750000X-1.750000X-1.750000X1.750000X-1.750000X1.750000X1.750000X0*%
%ADD24C,4.000000*%
%ADD25RoundRect,0.225000X-0.250000X0.225000X-0.250000X-0.225000X0.250000X-0.225000X0.250000X0.225000X0*%
%ADD26C,1.320800*%
G04 APERTURE END LIST*
D10*
G04 #@! TO.C,R1*
X166249600Y-100076000D03*
X168249600Y-100076000D03*
G04 #@! TD*
D11*
G04 #@! TO.C,U1*
X152146000Y-104902000D03*
D12*
X149746000Y-102152000D03*
X149746000Y-102652000D03*
X149746000Y-103152000D03*
X149746000Y-103652000D03*
X149746000Y-104152000D03*
X149746000Y-104652000D03*
X149746000Y-105152000D03*
X149746000Y-105652000D03*
X149746000Y-106152000D03*
X149746000Y-106652000D03*
X149746000Y-107152000D03*
X149746000Y-107652000D03*
D13*
X150396000Y-108302000D03*
X150896000Y-108302000D03*
X151396000Y-108302000D03*
X151896000Y-108302000D03*
X152396000Y-108302000D03*
X152896000Y-108302000D03*
X153396000Y-108302000D03*
X153896000Y-108302000D03*
D12*
X154546000Y-107652000D03*
X154546000Y-107152000D03*
X154546000Y-106652000D03*
X154546000Y-106152000D03*
X154546000Y-105652000D03*
X154546000Y-105152000D03*
X154546000Y-104652000D03*
X154546000Y-104152000D03*
X154546000Y-103652000D03*
X154546000Y-103152000D03*
X154546000Y-102652000D03*
X154546000Y-102152000D03*
D13*
X153896000Y-101502000D03*
X153396000Y-101502000D03*
X152896000Y-101502000D03*
X152396000Y-101502000D03*
X151896000Y-101502000D03*
X151396000Y-101502000D03*
X150896000Y-101502000D03*
X150396000Y-101502000D03*
G04 #@! TD*
D14*
G04 #@! TO.C,J1*
X146812000Y-116078000D03*
G04 #@! TD*
D15*
G04 #@! TO.C,C5*
X147040000Y-99314000D03*
X148590000Y-99314000D03*
G04 #@! TD*
D10*
G04 #@! TO.C,R4*
X155607000Y-99568000D03*
X157607000Y-99568000D03*
G04 #@! TD*
D16*
G04 #@! TO.C,SW1*
X151257000Y-88260000D03*
X151257000Y-97160000D03*
G04 #@! TD*
D17*
G04 #@! TO.C,C1*
X147066000Y-102362000D03*
X147066000Y-100812000D03*
G04 #@! TD*
D18*
G04 #@! TO.C,C7*
X145034000Y-107188000D03*
X145034000Y-110138000D03*
G04 #@! TD*
G04 #@! TO.C,C6*
X142621000Y-107188000D03*
X142621000Y-110138000D03*
G04 #@! TD*
D10*
G04 #@! TO.C,R2*
X160909000Y-99568000D03*
X162909000Y-99568000D03*
G04 #@! TD*
D19*
G04 #@! TO.C,R3*
X152273000Y-99568000D03*
X150273000Y-99568000D03*
G04 #@! TD*
D20*
G04 #@! TO.C,C4*
X157480000Y-106934000D03*
X155930000Y-106934000D03*
G04 #@! TD*
D21*
G04 #@! TO.C,J4*
X165455600Y-92247800D03*
D22*
X165455600Y-94787800D03*
G04 #@! TD*
D23*
G04 #@! TO.C,J6*
X144018000Y-88094000D03*
D24*
X144018000Y-95294000D03*
G04 #@! TD*
D16*
G04 #@! TO.C,SW3*
X160909000Y-88260000D03*
X160909000Y-97160000D03*
G04 #@! TD*
D14*
G04 #@! TO.C,J2*
X152146000Y-116078000D03*
G04 #@! TD*
D25*
G04 #@! TO.C,C3*
X147066000Y-107188000D03*
X147066000Y-108738000D03*
G04 #@! TD*
D14*
G04 #@! TO.C,J3*
X157480000Y-116078000D03*
G04 #@! TD*
D26*
G04 #@! TO.C,VR1*
X166624000Y-103949500D03*
X164084000Y-103949500D03*
X161544000Y-103949500D03*
G04 #@! TD*
D17*
G04 #@! TO.C,C2*
X147066000Y-105410000D03*
X147066000Y-103860000D03*
G04 #@! TD*
D16*
G04 #@! TO.C,SW2*
X156083000Y-88260000D03*
X156083000Y-97160000D03*
G04 #@! TD*
D21*
G04 #@! TO.C,J5*
X156972000Y-104140000D03*
G04 #@! TD*
M02*
