G04 #@! TF.GenerationSoftware,KiCad,Pcbnew,(6.0.1)*
G04 #@! TF.CreationDate,2022-02-05T19:11:42-06:00*
G04 #@! TF.ProjectId,MCF8316A,4d434638-3331-4364-912e-6b696361645f,rev?*
G04 #@! TF.SameCoordinates,Original*
G04 #@! TF.FileFunction,Copper,L1,Top*
G04 #@! TF.FilePolarity,Positive*
%FSLAX46Y46*%
G04 Gerber Fmt 4.6, Leading zero omitted, Abs format (unit mm)*
G04 Created by KiCad (PCBNEW (6.0.1)) date 2022-02-05 19:11:42*
%MOMM*%
%LPD*%
G01*
G04 APERTURE LIST*
G04 Aperture macros list*
%AMRoundRect*
0 Rectangle with rounded corners*
0 $1 Rounding radius*
0 $2 $3 $4 $5 $6 $7 $8 $9 X,Y pos of 4 corners*
0 Add a 4 corners polygon primitive as box body*
4,1,4,$2,$3,$4,$5,$6,$7,$8,$9,$2,$3,0*
0 Add four circle primitives for the rounded corners*
1,1,$1+$1,$2,$3*
1,1,$1+$1,$4,$5*
1,1,$1+$1,$6,$7*
1,1,$1+$1,$8,$9*
0 Add four rect primitives between the rounded corners*
20,1,$1+$1,$2,$3,$4,$5,0*
20,1,$1+$1,$4,$5,$6,$7,0*
20,1,$1+$1,$6,$7,$8,$9,0*
20,1,$1+$1,$8,$9,$2,$3,0*%
G04 Aperture macros list end*
G04 #@! TA.AperFunction,SMDPad,CuDef*
%ADD10RoundRect,0.250000X-0.350000X-0.450000X0.350000X-0.450000X0.350000X0.450000X-0.350000X0.450000X0*%
G04 #@! TD*
G04 #@! TA.AperFunction,SMDPad,CuDef*
%ADD11RoundRect,0.185000X-1.665000X2.665000X-1.665000X-2.665000X1.665000X-2.665000X1.665000X2.665000X0*%
G04 #@! TD*
G04 #@! TA.AperFunction,SMDPad,CuDef*
%ADD12RoundRect,0.062500X0.237500X-0.062500X0.237500X0.062500X-0.237500X0.062500X-0.237500X-0.062500X0*%
G04 #@! TD*
G04 #@! TA.AperFunction,SMDPad,CuDef*
%ADD13RoundRect,0.062500X0.062500X0.237500X-0.062500X0.237500X-0.062500X-0.237500X0.062500X-0.237500X0*%
G04 #@! TD*
G04 #@! TA.AperFunction,ComponentPad*
%ADD14RoundRect,0.250000X-1.750000X-1.750000X1.750000X-1.750000X1.750000X1.750000X-1.750000X1.750000X0*%
G04 #@! TD*
G04 #@! TA.AperFunction,SMDPad,CuDef*
%ADD15RoundRect,0.225000X-0.225000X-0.250000X0.225000X-0.250000X0.225000X0.250000X-0.225000X0.250000X0*%
G04 #@! TD*
G04 #@! TA.AperFunction,SMDPad,CuDef*
%ADD16R,1.100000X1.500000*%
G04 #@! TD*
G04 #@! TA.AperFunction,SMDPad,CuDef*
%ADD17RoundRect,0.225000X0.250000X-0.225000X0.250000X0.225000X-0.250000X0.225000X-0.250000X-0.225000X0*%
G04 #@! TD*
G04 #@! TA.AperFunction,SMDPad,CuDef*
%ADD18RoundRect,0.250000X-0.650000X0.325000X-0.650000X-0.325000X0.650000X-0.325000X0.650000X0.325000X0*%
G04 #@! TD*
G04 #@! TA.AperFunction,SMDPad,CuDef*
%ADD19RoundRect,0.250000X0.350000X0.450000X-0.350000X0.450000X-0.350000X-0.450000X0.350000X-0.450000X0*%
G04 #@! TD*
G04 #@! TA.AperFunction,SMDPad,CuDef*
%ADD20RoundRect,0.225000X0.225000X0.250000X-0.225000X0.250000X-0.225000X-0.250000X0.225000X-0.250000X0*%
G04 #@! TD*
G04 #@! TA.AperFunction,ComponentPad*
%ADD21R,1.700000X1.700000*%
G04 #@! TD*
G04 #@! TA.AperFunction,ComponentPad*
%ADD22O,1.700000X1.700000*%
G04 #@! TD*
G04 #@! TA.AperFunction,ComponentPad*
%ADD23RoundRect,0.250000X-1.750000X1.750000X-1.750000X-1.750000X1.750000X-1.750000X1.750000X1.750000X0*%
G04 #@! TD*
G04 #@! TA.AperFunction,ComponentPad*
%ADD24C,4.000000*%
G04 #@! TD*
G04 #@! TA.AperFunction,SMDPad,CuDef*
%ADD25RoundRect,0.225000X-0.250000X0.225000X-0.250000X-0.225000X0.250000X-0.225000X0.250000X0.225000X0*%
G04 #@! TD*
G04 #@! TA.AperFunction,ComponentPad*
%ADD26C,1.320800*%
G04 #@! TD*
G04 #@! TA.AperFunction,ViaPad*
%ADD27C,0.800000*%
G04 #@! TD*
G04 #@! TA.AperFunction,Conductor*
%ADD28C,0.250000*%
G04 #@! TD*
G04 APERTURE END LIST*
D10*
G04 #@! TO.P,R1,1*
G04 #@! TO.N,GND*
X166249600Y-100076000D03*
G04 #@! TO.P,R1,2*
G04 #@! TO.N,Net-(R1-Pad2)*
X168249600Y-100076000D03*
G04 #@! TD*
D11*
G04 #@! TO.P,U1,0,GNDPAD*
G04 #@! TO.N,GND*
X152146000Y-104902000D03*
D12*
G04 #@! TO.P,U1,1,DVDD*
G04 #@! TO.N,/DVDD*
X149746000Y-102152000D03*
G04 #@! TO.P,U1,2,DGND*
G04 #@! TO.N,/DGND*
X149746000Y-102652000D03*
G04 #@! TO.P,U1,3,FB_BK*
G04 #@! TO.N,unconnected-(U1-Pad3)*
X149746000Y-103152000D03*
G04 #@! TO.P,U1,4,GND_BK*
G04 #@! TO.N,unconnected-(U1-Pad4)*
X149746000Y-103652000D03*
G04 #@! TO.P,U1,5,SW_BK*
G04 #@! TO.N,unconnected-(U1-Pad5)*
X149746000Y-104152000D03*
G04 #@! TO.P,U1,6,CPL*
G04 #@! TO.N,/CPL*
X149746000Y-104652000D03*
G04 #@! TO.P,U1,7,CPH*
G04 #@! TO.N,/CPH*
X149746000Y-105152000D03*
G04 #@! TO.P,U1,8,CP*
G04 #@! TO.N,/CP*
X149746000Y-105652000D03*
G04 #@! TO.P,U1,9,VM*
G04 #@! TO.N,VDD*
X149746000Y-106152000D03*
G04 #@! TO.P,U1,10,VM*
X149746000Y-106652000D03*
G04 #@! TO.P,U1,11,VM*
X149746000Y-107152000D03*
G04 #@! TO.P,U1,12,PGND*
G04 #@! TO.N,GND*
X149746000Y-107652000D03*
D13*
G04 #@! TO.P,U1,13,OUTA*
G04 #@! TO.N,/A*
X150396000Y-108302000D03*
G04 #@! TO.P,U1,14,OUTA*
X150896000Y-108302000D03*
G04 #@! TO.P,U1,15,PGND*
G04 #@! TO.N,GND*
X151396000Y-108302000D03*
G04 #@! TO.P,U1,16,OUTB*
G04 #@! TO.N,/B*
X151896000Y-108302000D03*
G04 #@! TO.P,U1,17,OUTB*
X152396000Y-108302000D03*
G04 #@! TO.P,U1,18,PGND*
G04 #@! TO.N,GND*
X152896000Y-108302000D03*
G04 #@! TO.P,U1,19,OUTC*
G04 #@! TO.N,/C*
X153396000Y-108302000D03*
G04 #@! TO.P,U1,20,OUTC*
X153896000Y-108302000D03*
D12*
G04 #@! TO.P,U1,21,DRVOFF*
G04 #@! TO.N,/COAST*
X154546000Y-107652000D03*
G04 #@! TO.P,U1,22*
G04 #@! TO.N,unconnected-(U1-Pad22)*
X154546000Y-107152000D03*
G04 #@! TO.P,U1,23*
G04 #@! TO.N,unconnected-(U1-Pad23)*
X154546000Y-106652000D03*
G04 #@! TO.P,U1,24*
G04 #@! TO.N,unconnected-(U1-Pad24)*
X154546000Y-106152000D03*
G04 #@! TO.P,U1,25*
G04 #@! TO.N,unconnected-(U1-Pad25)*
X154546000Y-105652000D03*
G04 #@! TO.P,U1,26,AGND*
G04 #@! TO.N,GND*
X154546000Y-105152000D03*
G04 #@! TO.P,U1,27,AVDD*
G04 #@! TO.N,+3V3*
X154546000Y-104652000D03*
G04 #@! TO.P,U1,28,SPEED/WAKE*
G04 #@! TO.N,/SPEED*
X154546000Y-104152000D03*
G04 #@! TO.P,U1,29,FG*
G04 #@! TO.N,unconnected-(U1-Pad29)*
X154546000Y-103652000D03*
G04 #@! TO.P,U1,30,SDA*
G04 #@! TO.N,/SDA*
X154546000Y-103152000D03*
G04 #@! TO.P,U1,31,SCL*
G04 #@! TO.N,/SCL*
X154546000Y-102652000D03*
G04 #@! TO.P,U1,32,EXT_WD*
G04 #@! TO.N,unconnected-(U1-Pad32)*
X154546000Y-102152000D03*
D13*
G04 #@! TO.P,U1,33,EXT_CLK*
G04 #@! TO.N,unconnected-(U1-Pad33)*
X153896000Y-101502000D03*
G04 #@! TO.P,U1,34,DIR*
G04 #@! TO.N,/DIRECTION*
X153396000Y-101502000D03*
G04 #@! TO.P,U1,35,BRAKE*
G04 #@! TO.N,/BRAKE*
X152896000Y-101502000D03*
G04 #@! TO.P,U1,36*
G04 #@! TO.N,unconnected-(U1-Pad36)*
X152396000Y-101502000D03*
G04 #@! TO.P,U1,37*
G04 #@! TO.N,unconnected-(U1-Pad37)*
X151896000Y-101502000D03*
G04 #@! TO.P,U1,38*
G04 #@! TO.N,unconnected-(U1-Pad38)*
X151396000Y-101502000D03*
G04 #@! TO.P,U1,39*
G04 #@! TO.N,unconnected-(U1-Pad39)*
X150896000Y-101502000D03*
G04 #@! TO.P,U1,40,nFAULT*
G04 #@! TO.N,unconnected-(U1-Pad40)*
X150396000Y-101502000D03*
G04 #@! TD*
D14*
G04 #@! TO.P,J1,1,Pin_1*
G04 #@! TO.N,/A*
X146812000Y-116078000D03*
G04 #@! TD*
D15*
G04 #@! TO.P,C5,1*
G04 #@! TO.N,/DGND*
X147040000Y-99314000D03*
G04 #@! TO.P,C5,2*
G04 #@! TO.N,/DVDD*
X148590000Y-99314000D03*
G04 #@! TD*
D10*
G04 #@! TO.P,R4,1*
G04 #@! TO.N,/DIRECTION*
X155607000Y-99568000D03*
G04 #@! TO.P,R4,2*
G04 #@! TO.N,GND*
X157607000Y-99568000D03*
G04 #@! TD*
D16*
G04 #@! TO.P,SW1,1*
G04 #@! TO.N,+3V3*
X151257000Y-88260000D03*
G04 #@! TO.P,SW1,2*
G04 #@! TO.N,/BRAKE*
X151257000Y-97160000D03*
G04 #@! TD*
D17*
G04 #@! TO.P,C1,1*
G04 #@! TO.N,/CPH*
X147066000Y-102362000D03*
G04 #@! TO.P,C1,2*
G04 #@! TO.N,/CPL*
X147066000Y-100812000D03*
G04 #@! TD*
D18*
G04 #@! TO.P,C7,1*
G04 #@! TO.N,VDD*
X145034000Y-107188000D03*
G04 #@! TO.P,C7,2*
G04 #@! TO.N,GND*
X145034000Y-110138000D03*
G04 #@! TD*
G04 #@! TO.P,C6,1*
G04 #@! TO.N,VDD*
X142621000Y-107188000D03*
G04 #@! TO.P,C6,2*
G04 #@! TO.N,GND*
X142621000Y-110138000D03*
G04 #@! TD*
D10*
G04 #@! TO.P,R2,1*
G04 #@! TO.N,/COAST*
X160909000Y-99568000D03*
G04 #@! TO.P,R2,2*
G04 #@! TO.N,GND*
X162909000Y-99568000D03*
G04 #@! TD*
D19*
G04 #@! TO.P,R3,1*
G04 #@! TO.N,/BRAKE*
X152273000Y-99568000D03*
G04 #@! TO.P,R3,2*
G04 #@! TO.N,GND*
X150273000Y-99568000D03*
G04 #@! TD*
D20*
G04 #@! TO.P,C4,1*
G04 #@! TO.N,+3V3*
X157480000Y-106934000D03*
G04 #@! TO.P,C4,2*
G04 #@! TO.N,GND*
X155930000Y-106934000D03*
G04 #@! TD*
D21*
G04 #@! TO.P,J4,1,Pin_1*
G04 #@! TO.N,/SCL*
X165455600Y-92247800D03*
D22*
G04 #@! TO.P,J4,2,Pin_2*
G04 #@! TO.N,/SDA*
X165455600Y-94787800D03*
G04 #@! TD*
D23*
G04 #@! TO.P,J6,1,Pin_1*
G04 #@! TO.N,GND*
X144018000Y-88094000D03*
D24*
G04 #@! TO.P,J6,2,Pin_2*
G04 #@! TO.N,VDD*
X144018000Y-95294000D03*
G04 #@! TD*
D16*
G04 #@! TO.P,SW3,1*
G04 #@! TO.N,+3V3*
X160909000Y-88260000D03*
G04 #@! TO.P,SW3,2*
G04 #@! TO.N,/COAST*
X160909000Y-97160000D03*
G04 #@! TD*
D14*
G04 #@! TO.P,J2,1,Pin_1*
G04 #@! TO.N,/B*
X152146000Y-116078000D03*
G04 #@! TD*
D25*
G04 #@! TO.P,C3,1*
G04 #@! TO.N,VDD*
X147066000Y-107188000D03*
G04 #@! TO.P,C3,2*
G04 #@! TO.N,GND*
X147066000Y-108738000D03*
G04 #@! TD*
D14*
G04 #@! TO.P,J3,1,Pin_1*
G04 #@! TO.N,/C*
X157480000Y-116078000D03*
G04 #@! TD*
D26*
G04 #@! TO.P,VR1,1,1*
G04 #@! TO.N,Net-(R1-Pad2)*
X166624000Y-103949500D03*
G04 #@! TO.P,VR1,2,2*
G04 #@! TO.N,/SPEED*
X164084000Y-103949500D03*
G04 #@! TO.P,VR1,3,3*
G04 #@! TO.N,+3V3*
X161544000Y-103949500D03*
G04 #@! TD*
D17*
G04 #@! TO.P,C2,1*
G04 #@! TO.N,VDD*
X147066000Y-105410000D03*
G04 #@! TO.P,C2,2*
G04 #@! TO.N,/CP*
X147066000Y-103860000D03*
G04 #@! TD*
D16*
G04 #@! TO.P,SW2,1*
G04 #@! TO.N,+3V3*
X156083000Y-88260000D03*
G04 #@! TO.P,SW2,2*
G04 #@! TO.N,/DIRECTION*
X156083000Y-97160000D03*
G04 #@! TD*
D21*
G04 #@! TO.P,J5,1,Pin_1*
G04 #@! TO.N,/SPEED*
X156972000Y-104140000D03*
G04 #@! TD*
D27*
G04 #@! TO.N,GND*
X152146000Y-102743000D03*
X151384000Y-95453200D03*
X154813000Y-111760000D03*
X151003000Y-102743000D03*
X160985200Y-118262400D03*
X148082000Y-91694000D03*
X152146000Y-105918000D03*
X142621000Y-111379000D03*
X162204400Y-106578400D03*
X151003000Y-107061000D03*
X142621000Y-109016800D03*
X168910000Y-91846400D03*
X160172400Y-111607600D03*
X153670000Y-91186000D03*
X157988000Y-101854000D03*
X168808400Y-118211600D03*
X168554400Y-85852000D03*
X168960800Y-96977200D03*
X154127200Y-85547200D03*
X150977600Y-100380800D03*
X166928800Y-100076000D03*
X162255200Y-97383600D03*
X142646400Y-114249200D03*
X157632400Y-98958400D03*
X152654000Y-98044000D03*
X152146000Y-103886000D03*
X145034000Y-109016800D03*
X149479000Y-111760000D03*
X154686000Y-98196400D03*
X156514800Y-108610400D03*
X142595600Y-117957600D03*
X168910000Y-109626400D03*
X152146000Y-107061000D03*
X153289000Y-102743000D03*
X168910000Y-104495600D03*
X147574000Y-97840800D03*
X157937200Y-91084400D03*
X163880800Y-102412800D03*
X156159200Y-95605600D03*
X164134800Y-87426800D03*
X155194000Y-101092000D03*
X142240000Y-91440000D03*
X157835600Y-85598000D03*
X160528000Y-102108000D03*
X148640800Y-108254800D03*
X162204400Y-99568000D03*
X158292800Y-105918000D03*
X145084800Y-111252000D03*
X149479000Y-118364000D03*
X147066000Y-109677200D03*
X153289000Y-107061000D03*
X147777200Y-85648800D03*
X162102800Y-93472000D03*
X159512000Y-93472000D03*
X161899600Y-89763600D03*
X155448000Y-106172000D03*
X152146000Y-104902000D03*
X154813000Y-118364000D03*
G04 #@! TO.N,/SCL*
X160184500Y-92252800D03*
G04 #@! TO.N,/SDA*
X160184500Y-94787800D03*
G04 #@! TD*
D28*
G04 #@! TO.N,GND*
X151396000Y-109843000D02*
X149479000Y-111760000D01*
X166249600Y-100076000D02*
X166928800Y-100076000D01*
X149479000Y-111760000D02*
X149479000Y-118364000D01*
X157607000Y-98983800D02*
X157632400Y-98958400D01*
X154546000Y-105152000D02*
X152396000Y-105152000D01*
X152896000Y-109843000D02*
X152896000Y-108302000D01*
X154813000Y-111760000D02*
X152896000Y-109843000D01*
X162909000Y-99568000D02*
X162204400Y-99568000D01*
X154813000Y-118364000D02*
X154813000Y-111760000D01*
X151396000Y-108302000D02*
X151396000Y-109843000D01*
X152396000Y-105152000D02*
X152146000Y-104902000D01*
X157607000Y-99568000D02*
X157607000Y-98983800D01*
G04 #@! TO.N,+3V3*
X156083000Y-88260000D02*
X151257000Y-88260000D01*
X159766000Y-106934000D02*
X161544000Y-105156000D01*
X161544000Y-101828600D02*
X159984480Y-100269080D01*
X161544000Y-105156000D02*
X161544000Y-103949500D01*
X159984480Y-100269080D02*
X159984480Y-96135498D01*
X155198000Y-104652000D02*
X154546000Y-104652000D01*
X157480000Y-106934000D02*
X159766000Y-106934000D01*
X159984480Y-96135498D02*
X160909000Y-95210978D01*
X160909000Y-88260000D02*
X156083000Y-88260000D01*
X161544000Y-103949500D02*
X161544000Y-101828600D01*
X157480000Y-106934000D02*
X155198000Y-104652000D01*
X160909000Y-95210978D02*
X160909000Y-88260000D01*
G04 #@! TO.N,/SCL*
X157175200Y-94386400D02*
X157175200Y-98145600D01*
X156682480Y-98638320D02*
X156682480Y-101025920D01*
X160184500Y-92252800D02*
X159308800Y-92252800D01*
X155056400Y-102652000D02*
X154546000Y-102652000D01*
X156682480Y-101025920D02*
X155056400Y-102652000D01*
X157175200Y-98145600D02*
X156682480Y-98638320D01*
X159308800Y-92252800D02*
X157175200Y-94386400D01*
G04 #@! TO.N,/SDA*
X155635493Y-103152000D02*
X159156400Y-99631093D01*
X159156400Y-99631093D02*
X159156400Y-95815900D01*
X159156400Y-95815900D02*
X160184500Y-94787800D01*
X154546000Y-103152000D02*
X155635493Y-103152000D01*
G04 #@! TO.N,/DIRECTION*
X154025600Y-99568000D02*
X153396000Y-100197600D01*
X155607000Y-99568000D02*
X154025600Y-99568000D01*
X155607000Y-99568000D02*
X156083000Y-99092000D01*
X156083000Y-99092000D02*
X156083000Y-97160000D01*
X153396000Y-100197600D02*
X153396000Y-101502000D01*
G04 #@! TO.N,/BRAKE*
X152273000Y-99568000D02*
X151257000Y-98552000D01*
X152896000Y-100191000D02*
X152896000Y-101502000D01*
X152273000Y-99568000D02*
X152896000Y-100191000D01*
X151257000Y-98552000D02*
X151257000Y-97160000D01*
G04 #@! TO.N,/COAST*
X159633554Y-107823000D02*
X162560000Y-104896554D01*
X162560000Y-101219000D02*
X160909000Y-99568000D01*
X160909000Y-99568000D02*
X160909000Y-97160000D01*
X155575000Y-107823000D02*
X159633554Y-107823000D01*
X162560000Y-104896554D02*
X162560000Y-101219000D01*
X154546000Y-107652000D02*
X155404000Y-107652000D01*
X155404000Y-107652000D02*
X155575000Y-107823000D01*
G04 #@! TO.N,/SPEED*
X156972000Y-104140000D02*
X154558000Y-104140000D01*
G04 #@! TO.N,Net-(R1-Pad2)*
X168249600Y-102323900D02*
X168249600Y-100076000D01*
X166624000Y-103949500D02*
X168249600Y-102323900D01*
G04 #@! TO.N,/CPH*
X147886480Y-103906960D02*
X147886480Y-103182480D01*
X149746000Y-105152000D02*
X149131520Y-105152000D01*
X147886480Y-103182480D02*
X147066000Y-102362000D01*
X149131520Y-105152000D02*
X147886480Y-103906960D01*
G04 #@! TO.N,/CPL*
X149746000Y-104652000D02*
X149398672Y-104652000D01*
X148336000Y-103589328D02*
X148336000Y-102082000D01*
X148336000Y-102082000D02*
X147066000Y-100812000D01*
X149398672Y-104652000D02*
X148336000Y-103589328D01*
G04 #@! TO.N,/CP*
X148995802Y-105652000D02*
X147203802Y-103860000D01*
X149746000Y-105652000D02*
X148995802Y-105652000D01*
X147203802Y-103860000D02*
X147066000Y-103860000D01*
G04 #@! TO.N,/DGND*
X148785520Y-101059520D02*
X147040000Y-99314000D01*
X149746000Y-102652000D02*
X149398672Y-102652000D01*
X148785520Y-102038848D02*
X148785520Y-101059520D01*
X149398672Y-102652000D02*
X148785520Y-102038848D01*
G04 #@! TO.N,/DVDD*
X149746000Y-101359000D02*
X149746000Y-102152000D01*
X148590000Y-99314000D02*
X148590000Y-100203000D01*
X148590000Y-100203000D02*
X149746000Y-101359000D01*
G04 #@! TD*
G04 #@! TA.AperFunction,Conductor*
G04 #@! TO.N,/C*
G36*
X154200267Y-107958488D02*
G01*
X154205883Y-107962240D01*
X154218052Y-107964661D01*
X154218058Y-107964663D01*
X154223132Y-107965672D01*
X154279709Y-107992871D01*
X159975161Y-112789041D01*
X160014383Y-112848220D01*
X160020000Y-112885420D01*
X160020000Y-118441200D01*
X159999998Y-118509321D01*
X159946342Y-118555814D01*
X159894000Y-118567200D01*
X155535606Y-118567200D01*
X155467485Y-118547198D01*
X155420992Y-118493542D01*
X155410684Y-118424755D01*
X155417604Y-118372190D01*
X155417604Y-118372188D01*
X155418682Y-118364000D01*
X155398044Y-118207238D01*
X155337536Y-118061159D01*
X155241282Y-117935718D01*
X155234736Y-117930695D01*
X155234732Y-117930691D01*
X155192496Y-117898282D01*
X155150629Y-117840944D01*
X155143200Y-117798320D01*
X155143200Y-112325680D01*
X155163202Y-112257559D01*
X155192496Y-112225718D01*
X155234732Y-112193309D01*
X155234736Y-112193305D01*
X155241282Y-112188282D01*
X155337536Y-112062841D01*
X155398044Y-111916762D01*
X155418682Y-111760000D01*
X155398044Y-111603238D01*
X155337536Y-111457159D01*
X155241282Y-111331718D01*
X155115841Y-111235464D01*
X154969762Y-111174956D01*
X154813000Y-111154318D01*
X154746159Y-111163118D01*
X154676011Y-111152179D01*
X154640618Y-111127291D01*
X153258405Y-109745079D01*
X153224380Y-109682767D01*
X153221500Y-109655984D01*
X153221500Y-108273525D01*
X153221499Y-108273522D01*
X153221499Y-108078499D01*
X153241501Y-108010378D01*
X153295157Y-107963885D01*
X153347499Y-107952499D01*
X153847534Y-107952499D01*
X153855389Y-107951343D01*
X153873735Y-107950000D01*
X154157596Y-107950000D01*
X154200267Y-107958488D01*
G37*
G04 #@! TD.AperFunction*
G04 #@! TD*
G04 #@! TA.AperFunction,Conductor*
G04 #@! TO.N,/A*
G36*
X150436375Y-107951320D02*
G01*
X150437862Y-107951537D01*
X150444465Y-107952500D01*
X150944500Y-107952500D01*
X151012621Y-107972502D01*
X151059114Y-108026158D01*
X151070500Y-108078500D01*
X151070500Y-109655983D01*
X151050498Y-109724104D01*
X151033595Y-109745078D01*
X149651383Y-111127291D01*
X149589071Y-111161316D01*
X149545843Y-111163118D01*
X149479000Y-111154318D01*
X149322238Y-111174956D01*
X149176159Y-111235464D01*
X149050718Y-111331718D01*
X148954464Y-111457159D01*
X148893956Y-111603238D01*
X148873318Y-111760000D01*
X148893956Y-111916762D01*
X148954464Y-112062841D01*
X149050718Y-112188282D01*
X149057264Y-112193305D01*
X149057268Y-112193309D01*
X149099504Y-112225718D01*
X149141371Y-112283056D01*
X149148800Y-112325680D01*
X149148800Y-117798320D01*
X149128798Y-117866441D01*
X149099504Y-117898282D01*
X149057268Y-117930691D01*
X149057264Y-117930695D01*
X149050718Y-117935718D01*
X148954464Y-118061159D01*
X148893956Y-118207238D01*
X148873318Y-118364000D01*
X148874396Y-118372188D01*
X148874396Y-118372190D01*
X148881316Y-118424755D01*
X148870376Y-118494903D01*
X148823248Y-118548002D01*
X148756394Y-118567200D01*
X144398000Y-118567200D01*
X144329879Y-118547198D01*
X144283386Y-118493542D01*
X144272000Y-118441200D01*
X144272000Y-113542656D01*
X144292002Y-113474535D01*
X144312892Y-113449744D01*
X150281078Y-107983086D01*
X150344822Y-107951824D01*
X150366185Y-107950000D01*
X150418187Y-107950000D01*
X150436375Y-107951320D01*
G37*
G04 #@! TD.AperFunction*
G04 #@! TD*
G04 #@! TA.AperFunction,Conductor*
G04 #@! TO.N,GND*
G36*
X169360121Y-85110002D02*
G01*
X169406614Y-85163658D01*
X169418000Y-85216000D01*
X169418000Y-118746000D01*
X169397998Y-118814121D01*
X169344342Y-118860614D01*
X169292000Y-118872000D01*
X160527000Y-118872000D01*
X160458879Y-118851998D01*
X160412386Y-118798342D01*
X160401000Y-118746000D01*
X160401000Y-112522000D01*
X155550202Y-108370225D01*
X155511455Y-108310734D01*
X155511023Y-108239739D01*
X155549042Y-108179780D01*
X155613442Y-108149894D01*
X155632133Y-108148500D01*
X159613844Y-108148500D01*
X159624826Y-108148980D01*
X159651374Y-108151303D01*
X159651376Y-108151303D01*
X159662361Y-108152264D01*
X159698769Y-108142508D01*
X159709496Y-108140130D01*
X159712855Y-108139538D01*
X159746599Y-108133588D01*
X159756144Y-108128077D01*
X159759420Y-108126885D01*
X159762588Y-108125408D01*
X159773238Y-108122554D01*
X159804098Y-108100945D01*
X159813369Y-108095039D01*
X159836460Y-108081707D01*
X159846009Y-108076194D01*
X159870239Y-108047317D01*
X159877665Y-108039215D01*
X162776215Y-105140665D01*
X162784319Y-105133238D01*
X162792077Y-105126728D01*
X162813194Y-105109009D01*
X162830781Y-105078547D01*
X162832039Y-105076369D01*
X162837945Y-105067098D01*
X162853230Y-105045269D01*
X162859554Y-105036238D01*
X162862408Y-105025588D01*
X162863885Y-105022420D01*
X162865077Y-105019144D01*
X162870588Y-105009599D01*
X162877130Y-104972496D01*
X162879509Y-104961764D01*
X162889264Y-104925361D01*
X162887221Y-104902000D01*
X162885979Y-104887811D01*
X162885500Y-104876830D01*
X162885500Y-103949500D01*
X163218358Y-103949500D01*
X163237274Y-104129477D01*
X163293197Y-104301588D01*
X163296500Y-104307309D01*
X163380378Y-104452592D01*
X163380381Y-104452596D01*
X163383681Y-104458312D01*
X163388099Y-104463219D01*
X163388100Y-104463220D01*
X163463958Y-104547468D01*
X163504772Y-104592797D01*
X163510111Y-104596676D01*
X163623565Y-104679105D01*
X163651179Y-104699168D01*
X163657207Y-104701852D01*
X163657209Y-104701853D01*
X163791692Y-104761728D01*
X163816502Y-104772774D01*
X163905009Y-104791587D01*
X163987059Y-104809028D01*
X163987064Y-104809028D01*
X163993516Y-104810400D01*
X164174484Y-104810400D01*
X164180936Y-104809028D01*
X164180941Y-104809028D01*
X164262991Y-104791587D01*
X164351498Y-104772774D01*
X164376308Y-104761728D01*
X164510791Y-104701853D01*
X164510793Y-104701852D01*
X164516821Y-104699168D01*
X164544436Y-104679105D01*
X164657889Y-104596676D01*
X164663228Y-104592797D01*
X164704043Y-104547468D01*
X164779900Y-104463220D01*
X164779901Y-104463219D01*
X164784319Y-104458312D01*
X164787619Y-104452596D01*
X164787622Y-104452592D01*
X164871500Y-104307309D01*
X164874803Y-104301588D01*
X164930726Y-104129477D01*
X164949642Y-103949500D01*
X165758358Y-103949500D01*
X165777274Y-104129477D01*
X165833197Y-104301588D01*
X165836500Y-104307309D01*
X165920378Y-104452592D01*
X165920381Y-104452596D01*
X165923681Y-104458312D01*
X165928099Y-104463219D01*
X165928100Y-104463220D01*
X166003958Y-104547468D01*
X166044772Y-104592797D01*
X166050111Y-104596676D01*
X166163565Y-104679105D01*
X166191179Y-104699168D01*
X166197207Y-104701852D01*
X166197209Y-104701853D01*
X166331692Y-104761728D01*
X166356502Y-104772774D01*
X166445009Y-104791587D01*
X166527059Y-104809028D01*
X166527064Y-104809028D01*
X166533516Y-104810400D01*
X166714484Y-104810400D01*
X166720936Y-104809028D01*
X166720941Y-104809028D01*
X166802991Y-104791587D01*
X166891498Y-104772774D01*
X166916308Y-104761728D01*
X167050791Y-104701853D01*
X167050793Y-104701852D01*
X167056821Y-104699168D01*
X167084436Y-104679105D01*
X167197889Y-104596676D01*
X167203228Y-104592797D01*
X167244043Y-104547468D01*
X167319900Y-104463220D01*
X167319901Y-104463219D01*
X167324319Y-104458312D01*
X167327619Y-104452596D01*
X167327622Y-104452592D01*
X167411500Y-104307309D01*
X167414803Y-104301588D01*
X167470726Y-104129477D01*
X167489642Y-103949500D01*
X167475453Y-103814500D01*
X167471416Y-103776086D01*
X167471416Y-103776084D01*
X167470726Y-103769523D01*
X167443963Y-103687156D01*
X167441935Y-103616189D01*
X167474701Y-103559125D01*
X168465815Y-102568011D01*
X168473919Y-102560584D01*
X168494349Y-102543441D01*
X168502794Y-102536355D01*
X168508307Y-102526806D01*
X168521639Y-102503715D01*
X168527545Y-102494444D01*
X168542830Y-102472615D01*
X168549154Y-102463584D01*
X168552008Y-102452934D01*
X168553485Y-102449766D01*
X168554677Y-102446490D01*
X168560188Y-102436945D01*
X168566730Y-102399842D01*
X168569109Y-102389110D01*
X168578864Y-102352707D01*
X168575751Y-102317117D01*
X168575579Y-102315157D01*
X168575100Y-102304176D01*
X168575100Y-101098022D01*
X168595102Y-101029901D01*
X168648758Y-100983408D01*
X168674100Y-100974949D01*
X168677325Y-100974242D01*
X168684969Y-100973519D01*
X168692208Y-100970977D01*
X168692212Y-100970976D01*
X168752472Y-100949814D01*
X168812784Y-100928634D01*
X168820354Y-100923042D01*
X168820357Y-100923041D01*
X168914179Y-100853742D01*
X168921750Y-100848150D01*
X168934265Y-100831206D01*
X168996641Y-100746757D01*
X168996642Y-100746754D01*
X169002234Y-100739184D01*
X169047119Y-100611369D01*
X169050100Y-100579834D01*
X169050100Y-99572166D01*
X169047119Y-99540631D01*
X169002234Y-99412816D01*
X168996642Y-99405246D01*
X168996641Y-99405243D01*
X168927342Y-99311421D01*
X168921750Y-99303850D01*
X168868721Y-99264682D01*
X168820357Y-99228959D01*
X168820354Y-99228958D01*
X168812784Y-99223366D01*
X168684969Y-99178481D01*
X168677323Y-99177758D01*
X168677322Y-99177758D01*
X168671352Y-99177194D01*
X168653434Y-99175500D01*
X167845766Y-99175500D01*
X167827848Y-99177194D01*
X167821878Y-99177758D01*
X167821877Y-99177758D01*
X167814231Y-99178481D01*
X167686416Y-99223366D01*
X167678846Y-99228958D01*
X167678843Y-99228959D01*
X167630479Y-99264682D01*
X167577450Y-99303850D01*
X167571858Y-99311421D01*
X167502559Y-99405243D01*
X167502558Y-99405246D01*
X167496966Y-99412816D01*
X167452081Y-99540631D01*
X167449100Y-99572166D01*
X167449100Y-100579834D01*
X167452081Y-100611369D01*
X167496966Y-100739184D01*
X167502558Y-100746754D01*
X167502559Y-100746757D01*
X167564935Y-100831206D01*
X167577450Y-100848150D01*
X167585021Y-100853742D01*
X167678843Y-100923041D01*
X167678846Y-100923042D01*
X167686416Y-100928634D01*
X167746728Y-100949814D01*
X167806988Y-100970976D01*
X167806992Y-100970977D01*
X167814231Y-100973519D01*
X167821875Y-100974242D01*
X167825100Y-100974949D01*
X167887353Y-101009084D01*
X167921268Y-101071456D01*
X167924100Y-101098022D01*
X167924100Y-102136884D01*
X167904098Y-102205005D01*
X167887195Y-102225979D01*
X167017591Y-103095583D01*
X166955279Y-103129609D01*
X166891988Y-103126444D01*
X166891498Y-103126226D01*
X166885043Y-103124854D01*
X166885040Y-103124853D01*
X166720941Y-103089972D01*
X166720936Y-103089972D01*
X166714484Y-103088600D01*
X166533516Y-103088600D01*
X166527064Y-103089972D01*
X166527059Y-103089972D01*
X166445009Y-103107413D01*
X166356502Y-103126226D01*
X166350472Y-103128911D01*
X166350471Y-103128911D01*
X166197209Y-103197147D01*
X166197207Y-103197148D01*
X166191179Y-103199832D01*
X166185838Y-103203712D01*
X166185837Y-103203713D01*
X166133561Y-103241694D01*
X166044772Y-103306203D01*
X166040359Y-103311105D01*
X166040357Y-103311106D01*
X165933500Y-103429783D01*
X165923681Y-103440688D01*
X165920381Y-103446404D01*
X165920378Y-103446408D01*
X165897010Y-103486883D01*
X165833197Y-103597412D01*
X165777274Y-103769523D01*
X165776584Y-103776086D01*
X165776583Y-103776093D01*
X165763350Y-103902000D01*
X165758358Y-103949500D01*
X164949642Y-103949500D01*
X164944650Y-103902000D01*
X164931417Y-103776093D01*
X164931416Y-103776086D01*
X164930726Y-103769523D01*
X164874803Y-103597412D01*
X164810990Y-103486883D01*
X164787622Y-103446408D01*
X164787619Y-103446404D01*
X164784319Y-103440688D01*
X164774500Y-103429783D01*
X164667643Y-103311106D01*
X164667641Y-103311105D01*
X164663228Y-103306203D01*
X164574439Y-103241694D01*
X164522163Y-103203713D01*
X164522162Y-103203712D01*
X164516821Y-103199832D01*
X164510793Y-103197148D01*
X164510791Y-103197147D01*
X164357529Y-103128911D01*
X164357528Y-103128911D01*
X164351498Y-103126226D01*
X164262991Y-103107413D01*
X164180941Y-103089972D01*
X164180936Y-103089972D01*
X164174484Y-103088600D01*
X163993516Y-103088600D01*
X163987064Y-103089972D01*
X163987059Y-103089972D01*
X163905009Y-103107413D01*
X163816502Y-103126226D01*
X163810472Y-103128911D01*
X163810471Y-103128911D01*
X163657209Y-103197147D01*
X163657207Y-103197148D01*
X163651179Y-103199832D01*
X163645838Y-103203712D01*
X163645837Y-103203713D01*
X163593561Y-103241694D01*
X163504772Y-103306203D01*
X163500359Y-103311105D01*
X163500357Y-103311106D01*
X163393500Y-103429783D01*
X163383681Y-103440688D01*
X163380381Y-103446404D01*
X163380378Y-103446408D01*
X163357010Y-103486883D01*
X163293197Y-103597412D01*
X163237274Y-103769523D01*
X163236584Y-103776086D01*
X163236583Y-103776093D01*
X163223350Y-103902000D01*
X163218358Y-103949500D01*
X162885500Y-103949500D01*
X162885500Y-101238710D01*
X162885980Y-101227728D01*
X162888303Y-101201180D01*
X162888303Y-101201178D01*
X162889264Y-101190193D01*
X162879508Y-101153785D01*
X162877130Y-101143058D01*
X162875241Y-101132345D01*
X162870588Y-101105955D01*
X162865077Y-101096410D01*
X162863885Y-101093134D01*
X162862408Y-101089966D01*
X162859554Y-101079316D01*
X162837945Y-101048456D01*
X162832039Y-101039185D01*
X162818707Y-101016094D01*
X162813194Y-101006545D01*
X162784317Y-100982315D01*
X162776215Y-100974889D01*
X161746405Y-99945079D01*
X161712379Y-99882767D01*
X161709500Y-99855984D01*
X161709500Y-99064166D01*
X161706519Y-99032631D01*
X161661634Y-98904816D01*
X161656042Y-98897246D01*
X161656041Y-98897243D01*
X161586742Y-98803421D01*
X161581150Y-98795850D01*
X161564206Y-98783335D01*
X161479757Y-98720959D01*
X161479754Y-98720958D01*
X161472184Y-98715366D01*
X161404747Y-98691684D01*
X161351612Y-98673024D01*
X161351608Y-98673023D01*
X161344369Y-98670481D01*
X161336725Y-98669758D01*
X161333500Y-98669051D01*
X161271247Y-98634916D01*
X161237332Y-98572544D01*
X161234500Y-98545978D01*
X161234500Y-98236500D01*
X161254502Y-98168379D01*
X161308158Y-98121886D01*
X161360500Y-98110500D01*
X161478748Y-98110500D01*
X161484816Y-98109293D01*
X161525061Y-98101288D01*
X161525062Y-98101288D01*
X161537231Y-98098867D01*
X161603552Y-98054552D01*
X161647867Y-97988231D01*
X161659500Y-97929748D01*
X161659500Y-96390252D01*
X161647867Y-96331769D01*
X161603552Y-96265448D01*
X161537231Y-96221133D01*
X161525062Y-96218712D01*
X161525061Y-96218712D01*
X161484816Y-96210707D01*
X161478748Y-96209500D01*
X160674994Y-96209500D01*
X160606873Y-96189498D01*
X160560380Y-96135842D01*
X160550276Y-96065568D01*
X160579770Y-96000988D01*
X160585899Y-95994405D01*
X161125215Y-95455089D01*
X161133319Y-95447662D01*
X161153749Y-95430519D01*
X161162194Y-95423433D01*
X161175184Y-95400934D01*
X161181039Y-95390793D01*
X161186945Y-95381522D01*
X161208554Y-95350662D01*
X161211408Y-95340012D01*
X161212885Y-95336844D01*
X161214077Y-95333568D01*
X161219588Y-95324023D01*
X161226130Y-95286920D01*
X161228509Y-95276188D01*
X161238264Y-95239785D01*
X161236753Y-95222507D01*
X161234979Y-95202235D01*
X161234500Y-95191254D01*
X161234500Y-94773062D01*
X164400120Y-94773062D01*
X164417359Y-94978353D01*
X164474144Y-95176386D01*
X164476959Y-95181863D01*
X164476960Y-95181866D01*
X164550019Y-95324023D01*
X164568312Y-95359618D01*
X164696277Y-95521070D01*
X164700970Y-95525064D01*
X164700971Y-95525065D01*
X164837014Y-95640846D01*
X164853164Y-95654591D01*
X165032998Y-95755097D01*
X165127838Y-95785913D01*
X165223071Y-95816856D01*
X165223075Y-95816857D01*
X165228929Y-95818759D01*
X165433494Y-95843151D01*
X165439629Y-95842679D01*
X165439631Y-95842679D01*
X165495639Y-95838369D01*
X165638900Y-95827346D01*
X165644830Y-95825690D01*
X165644832Y-95825690D01*
X165831397Y-95773600D01*
X165831396Y-95773600D01*
X165837325Y-95771945D01*
X165842814Y-95769172D01*
X165842820Y-95769170D01*
X166015716Y-95681833D01*
X166021210Y-95679058D01*
X166070120Y-95640846D01*
X166145645Y-95581839D01*
X166183551Y-95552224D01*
X166294720Y-95423433D01*
X166314140Y-95400934D01*
X166314140Y-95400933D01*
X166318164Y-95396272D01*
X166338987Y-95359618D01*
X166416876Y-95222507D01*
X166419923Y-95217144D01*
X166484951Y-95021663D01*
X166510771Y-94817274D01*
X166511183Y-94787800D01*
X166491080Y-94582770D01*
X166431535Y-94385549D01*
X166334818Y-94203649D01*
X166261459Y-94113702D01*
X166208506Y-94048775D01*
X166208503Y-94048772D01*
X166204611Y-94044000D01*
X166187386Y-94029750D01*
X166050625Y-93916611D01*
X166050621Y-93916609D01*
X166045875Y-93912682D01*
X165864655Y-93814697D01*
X165667854Y-93753777D01*
X165661729Y-93753133D01*
X165661728Y-93753133D01*
X165469098Y-93732887D01*
X165469096Y-93732887D01*
X165462969Y-93732243D01*
X165376129Y-93740146D01*
X165263942Y-93750355D01*
X165263939Y-93750356D01*
X165257803Y-93750914D01*
X165060172Y-93809080D01*
X164877602Y-93904526D01*
X164872801Y-93908386D01*
X164872798Y-93908388D01*
X164721854Y-94029750D01*
X164717047Y-94033615D01*
X164584624Y-94191430D01*
X164581656Y-94196828D01*
X164581653Y-94196833D01*
X164493275Y-94357593D01*
X164485376Y-94371962D01*
X164423084Y-94568332D01*
X164422398Y-94574449D01*
X164422397Y-94574453D01*
X164400807Y-94766937D01*
X164400120Y-94773062D01*
X161234500Y-94773062D01*
X161234500Y-93117548D01*
X164405100Y-93117548D01*
X164416733Y-93176031D01*
X164461048Y-93242352D01*
X164527369Y-93286667D01*
X164539538Y-93289088D01*
X164539539Y-93289088D01*
X164579784Y-93297093D01*
X164585852Y-93298300D01*
X166325348Y-93298300D01*
X166331416Y-93297093D01*
X166371661Y-93289088D01*
X166371662Y-93289088D01*
X166383831Y-93286667D01*
X166450152Y-93242352D01*
X166494467Y-93176031D01*
X166506100Y-93117548D01*
X166506100Y-91378052D01*
X166494467Y-91319569D01*
X166450152Y-91253248D01*
X166383831Y-91208933D01*
X166371662Y-91206512D01*
X166371661Y-91206512D01*
X166331416Y-91198507D01*
X166325348Y-91197300D01*
X164585852Y-91197300D01*
X164579784Y-91198507D01*
X164539539Y-91206512D01*
X164539538Y-91206512D01*
X164527369Y-91208933D01*
X164461048Y-91253248D01*
X164416733Y-91319569D01*
X164405100Y-91378052D01*
X164405100Y-93117548D01*
X161234500Y-93117548D01*
X161234500Y-89336500D01*
X161254502Y-89268379D01*
X161308158Y-89221886D01*
X161360500Y-89210500D01*
X161478748Y-89210500D01*
X161484816Y-89209293D01*
X161525061Y-89201288D01*
X161525062Y-89201288D01*
X161537231Y-89198867D01*
X161603552Y-89154552D01*
X161647867Y-89088231D01*
X161659500Y-89029748D01*
X161659500Y-87490252D01*
X161647867Y-87431769D01*
X161603552Y-87365448D01*
X161537231Y-87321133D01*
X161525062Y-87318712D01*
X161525061Y-87318712D01*
X161484816Y-87310707D01*
X161478748Y-87309500D01*
X160339252Y-87309500D01*
X160333184Y-87310707D01*
X160292939Y-87318712D01*
X160292938Y-87318712D01*
X160280769Y-87321133D01*
X160214448Y-87365448D01*
X160170133Y-87431769D01*
X160158500Y-87490252D01*
X160158500Y-87808500D01*
X160138498Y-87876621D01*
X160084842Y-87923114D01*
X160032500Y-87934500D01*
X156959500Y-87934500D01*
X156891379Y-87914498D01*
X156844886Y-87860842D01*
X156833500Y-87808500D01*
X156833500Y-87490252D01*
X156821867Y-87431769D01*
X156777552Y-87365448D01*
X156711231Y-87321133D01*
X156699062Y-87318712D01*
X156699061Y-87318712D01*
X156658816Y-87310707D01*
X156652748Y-87309500D01*
X155513252Y-87309500D01*
X155507184Y-87310707D01*
X155466939Y-87318712D01*
X155466938Y-87318712D01*
X155454769Y-87321133D01*
X155388448Y-87365448D01*
X155344133Y-87431769D01*
X155332500Y-87490252D01*
X155332500Y-87808500D01*
X155312498Y-87876621D01*
X155258842Y-87923114D01*
X155206500Y-87934500D01*
X152133500Y-87934500D01*
X152065379Y-87914498D01*
X152018886Y-87860842D01*
X152007500Y-87808500D01*
X152007500Y-87490252D01*
X151995867Y-87431769D01*
X151951552Y-87365448D01*
X151885231Y-87321133D01*
X151873062Y-87318712D01*
X151873061Y-87318712D01*
X151832816Y-87310707D01*
X151826748Y-87309500D01*
X150687252Y-87309500D01*
X150681184Y-87310707D01*
X150640939Y-87318712D01*
X150640938Y-87318712D01*
X150628769Y-87321133D01*
X150562448Y-87365448D01*
X150518133Y-87431769D01*
X150506500Y-87490252D01*
X150506500Y-89029748D01*
X150518133Y-89088231D01*
X150562448Y-89154552D01*
X150628769Y-89198867D01*
X150640938Y-89201288D01*
X150640939Y-89201288D01*
X150681184Y-89209293D01*
X150687252Y-89210500D01*
X151826748Y-89210500D01*
X151832816Y-89209293D01*
X151873061Y-89201288D01*
X151873062Y-89201288D01*
X151885231Y-89198867D01*
X151951552Y-89154552D01*
X151995867Y-89088231D01*
X152007500Y-89029748D01*
X152007500Y-88711500D01*
X152027502Y-88643379D01*
X152081158Y-88596886D01*
X152133500Y-88585500D01*
X155206500Y-88585500D01*
X155274621Y-88605502D01*
X155321114Y-88659158D01*
X155332500Y-88711500D01*
X155332500Y-89029748D01*
X155344133Y-89088231D01*
X155388448Y-89154552D01*
X155454769Y-89198867D01*
X155466938Y-89201288D01*
X155466939Y-89201288D01*
X155507184Y-89209293D01*
X155513252Y-89210500D01*
X156652748Y-89210500D01*
X156658816Y-89209293D01*
X156699061Y-89201288D01*
X156699062Y-89201288D01*
X156711231Y-89198867D01*
X156777552Y-89154552D01*
X156821867Y-89088231D01*
X156833500Y-89029748D01*
X156833500Y-88711500D01*
X156853502Y-88643379D01*
X156907158Y-88596886D01*
X156959500Y-88585500D01*
X160032500Y-88585500D01*
X160100621Y-88605502D01*
X160147114Y-88659158D01*
X160158500Y-88711500D01*
X160158500Y-89029748D01*
X160170133Y-89088231D01*
X160214448Y-89154552D01*
X160280769Y-89198867D01*
X160292938Y-89201288D01*
X160292939Y-89201288D01*
X160333184Y-89209293D01*
X160339252Y-89210500D01*
X160457500Y-89210500D01*
X160525621Y-89230502D01*
X160572114Y-89284158D01*
X160583500Y-89336500D01*
X160583500Y-91579522D01*
X160563498Y-91647643D01*
X160509842Y-91694136D01*
X160439568Y-91704240D01*
X160409282Y-91695931D01*
X160348891Y-91670916D01*
X160341262Y-91667756D01*
X160184500Y-91647118D01*
X160027738Y-91667756D01*
X159881659Y-91728264D01*
X159756218Y-91824518D01*
X159751195Y-91831064D01*
X159715177Y-91878004D01*
X159657839Y-91919871D01*
X159615214Y-91927300D01*
X159328510Y-91927300D01*
X159317528Y-91926820D01*
X159290980Y-91924497D01*
X159290978Y-91924497D01*
X159279993Y-91923536D01*
X159243585Y-91933292D01*
X159232858Y-91935670D01*
X159229499Y-91936262D01*
X159195755Y-91942212D01*
X159186210Y-91947723D01*
X159182934Y-91948915D01*
X159179766Y-91950392D01*
X159169116Y-91953246D01*
X159160085Y-91959570D01*
X159138256Y-91974855D01*
X159128985Y-91980761D01*
X159105894Y-91994093D01*
X159096345Y-91999606D01*
X159089259Y-92008051D01*
X159072115Y-92028482D01*
X159064689Y-92036585D01*
X156958985Y-94142289D01*
X156950881Y-94149716D01*
X156922006Y-94173945D01*
X156916493Y-94183494D01*
X156903161Y-94206585D01*
X156897255Y-94215856D01*
X156875646Y-94246716D01*
X156872792Y-94257366D01*
X156871315Y-94260534D01*
X156870123Y-94263810D01*
X156864612Y-94273355D01*
X156858662Y-94307099D01*
X156858070Y-94310458D01*
X156855692Y-94321185D01*
X156845936Y-94357593D01*
X156846897Y-94368578D01*
X156846897Y-94368580D01*
X156849220Y-94395128D01*
X156849700Y-94406110D01*
X156849700Y-96095145D01*
X156829698Y-96163266D01*
X156776042Y-96209759D01*
X156699119Y-96218724D01*
X156652748Y-96209500D01*
X155513252Y-96209500D01*
X155507184Y-96210707D01*
X155466939Y-96218712D01*
X155466938Y-96218712D01*
X155454769Y-96221133D01*
X155388448Y-96265448D01*
X155344133Y-96331769D01*
X155332500Y-96390252D01*
X155332500Y-97929748D01*
X155344133Y-97988231D01*
X155388448Y-98054552D01*
X155454769Y-98098867D01*
X155466938Y-98101288D01*
X155466939Y-98101288D01*
X155507184Y-98109293D01*
X155513252Y-98110500D01*
X155631500Y-98110500D01*
X155699621Y-98130502D01*
X155746114Y-98184158D01*
X155757500Y-98236500D01*
X155757500Y-98541500D01*
X155737498Y-98609621D01*
X155683842Y-98656114D01*
X155631500Y-98667500D01*
X155203166Y-98667500D01*
X155185248Y-98669194D01*
X155179278Y-98669758D01*
X155179277Y-98669758D01*
X155171631Y-98670481D01*
X155043816Y-98715366D01*
X155036246Y-98720958D01*
X155036243Y-98720959D01*
X154951794Y-98783335D01*
X154934850Y-98795850D01*
X154929258Y-98803421D01*
X154859959Y-98897243D01*
X154859958Y-98897246D01*
X154854366Y-98904816D01*
X154809481Y-99032631D01*
X154806500Y-99064166D01*
X154806500Y-99116500D01*
X154786498Y-99184621D01*
X154732842Y-99231114D01*
X154680500Y-99242500D01*
X154045310Y-99242500D01*
X154034328Y-99242020D01*
X154007780Y-99239697D01*
X154007778Y-99239697D01*
X153996793Y-99238736D01*
X153960385Y-99248492D01*
X153949658Y-99250870D01*
X153946299Y-99251462D01*
X153912555Y-99257412D01*
X153903010Y-99262923D01*
X153899734Y-99264115D01*
X153896566Y-99265592D01*
X153885916Y-99268446D01*
X153876885Y-99274770D01*
X153855056Y-99290055D01*
X153845785Y-99295961D01*
X153822694Y-99309293D01*
X153813145Y-99314806D01*
X153806059Y-99323251D01*
X153788915Y-99343682D01*
X153781489Y-99351785D01*
X153288595Y-99844679D01*
X153226283Y-99878705D01*
X153155468Y-99873640D01*
X153098632Y-99831093D01*
X153073821Y-99764573D01*
X153073500Y-99755584D01*
X153073500Y-99064166D01*
X153070519Y-99032631D01*
X153025634Y-98904816D01*
X153020042Y-98897246D01*
X153020041Y-98897243D01*
X152950742Y-98803421D01*
X152945150Y-98795850D01*
X152928206Y-98783335D01*
X152843757Y-98720959D01*
X152843754Y-98720958D01*
X152836184Y-98715366D01*
X152708369Y-98670481D01*
X152700723Y-98669758D01*
X152700722Y-98669758D01*
X152694752Y-98669194D01*
X152676834Y-98667500D01*
X151885016Y-98667500D01*
X151816895Y-98647498D01*
X151795921Y-98630595D01*
X151619405Y-98454079D01*
X151585379Y-98391767D01*
X151582500Y-98364984D01*
X151582500Y-98236500D01*
X151602502Y-98168379D01*
X151656158Y-98121886D01*
X151708500Y-98110500D01*
X151826748Y-98110500D01*
X151832816Y-98109293D01*
X151873061Y-98101288D01*
X151873062Y-98101288D01*
X151885231Y-98098867D01*
X151951552Y-98054552D01*
X151995867Y-97988231D01*
X152007500Y-97929748D01*
X152007500Y-96390252D01*
X151995867Y-96331769D01*
X151951552Y-96265448D01*
X151885231Y-96221133D01*
X151873062Y-96218712D01*
X151873061Y-96218712D01*
X151832816Y-96210707D01*
X151826748Y-96209500D01*
X150687252Y-96209500D01*
X150681184Y-96210707D01*
X150640939Y-96218712D01*
X150640938Y-96218712D01*
X150628769Y-96221133D01*
X150562448Y-96265448D01*
X150518133Y-96331769D01*
X150506500Y-96390252D01*
X150506500Y-97929748D01*
X150518133Y-97988231D01*
X150562448Y-98054552D01*
X150628769Y-98098867D01*
X150640938Y-98101288D01*
X150640939Y-98101288D01*
X150681184Y-98109293D01*
X150687252Y-98110500D01*
X150805500Y-98110500D01*
X150873621Y-98130502D01*
X150920114Y-98184158D01*
X150931500Y-98236500D01*
X150931500Y-98532290D01*
X150931020Y-98543272D01*
X150927736Y-98580807D01*
X150935438Y-98609548D01*
X150937491Y-98617210D01*
X150939870Y-98627942D01*
X150946412Y-98665045D01*
X150951923Y-98674590D01*
X150953115Y-98677866D01*
X150954592Y-98681034D01*
X150957446Y-98691684D01*
X150963770Y-98700715D01*
X150979055Y-98722544D01*
X150984961Y-98731815D01*
X150998293Y-98754906D01*
X151003806Y-98764455D01*
X151032682Y-98788685D01*
X151040785Y-98796111D01*
X151435595Y-99190921D01*
X151469621Y-99253233D01*
X151472500Y-99280016D01*
X151472500Y-100071834D01*
X151475481Y-100103369D01*
X151520366Y-100231184D01*
X151525958Y-100238754D01*
X151525959Y-100238757D01*
X151567886Y-100295521D01*
X151600850Y-100340150D01*
X151608421Y-100345742D01*
X151702243Y-100415041D01*
X151702246Y-100415042D01*
X151709816Y-100420634D01*
X151837631Y-100465519D01*
X151845277Y-100466242D01*
X151845278Y-100466242D01*
X151851248Y-100466806D01*
X151869166Y-100468500D01*
X152444500Y-100468500D01*
X152512621Y-100488502D01*
X152559114Y-100542158D01*
X152570500Y-100594500D01*
X152570500Y-100875500D01*
X152550498Y-100943621D01*
X152496842Y-100990114D01*
X152444501Y-101001500D01*
X152331338Y-101001501D01*
X152307600Y-101001501D01*
X152301533Y-101002708D01*
X152301530Y-101002708D01*
X152243054Y-101014339D01*
X152243053Y-101014339D01*
X152230883Y-101016760D01*
X152216001Y-101026704D01*
X152148248Y-101047918D01*
X152075999Y-101026704D01*
X152073855Y-101025271D01*
X152061117Y-101016760D01*
X152048950Y-101014340D01*
X152048948Y-101014339D01*
X152018998Y-101008382D01*
X151984401Y-101001500D01*
X151896015Y-101001500D01*
X151807600Y-101001501D01*
X151801533Y-101002708D01*
X151801530Y-101002708D01*
X151743054Y-101014339D01*
X151743053Y-101014339D01*
X151730883Y-101016760D01*
X151716001Y-101026704D01*
X151648248Y-101047918D01*
X151575999Y-101026704D01*
X151573855Y-101025271D01*
X151561117Y-101016760D01*
X151548950Y-101014340D01*
X151548948Y-101014339D01*
X151518998Y-101008382D01*
X151484401Y-101001500D01*
X151396015Y-101001500D01*
X151307600Y-101001501D01*
X151301533Y-101002708D01*
X151301530Y-101002708D01*
X151243054Y-101014339D01*
X151243053Y-101014339D01*
X151230883Y-101016760D01*
X151216001Y-101026704D01*
X151148248Y-101047918D01*
X151075999Y-101026704D01*
X151073855Y-101025271D01*
X151061117Y-101016760D01*
X151048950Y-101014340D01*
X151048948Y-101014339D01*
X151018998Y-101008382D01*
X150984401Y-101001500D01*
X150896015Y-101001500D01*
X150807600Y-101001501D01*
X150801533Y-101002708D01*
X150801530Y-101002708D01*
X150743054Y-101014339D01*
X150743053Y-101014339D01*
X150730883Y-101016760D01*
X150716001Y-101026704D01*
X150648248Y-101047918D01*
X150575999Y-101026704D01*
X150573855Y-101025271D01*
X150561117Y-101016760D01*
X150548950Y-101014340D01*
X150548948Y-101014339D01*
X150518998Y-101008382D01*
X150484401Y-101001500D01*
X150396015Y-101001500D01*
X150307600Y-101001501D01*
X150301533Y-101002708D01*
X150301530Y-101002708D01*
X150243054Y-101014339D01*
X150243053Y-101014339D01*
X150230883Y-101016760D01*
X150190196Y-101043946D01*
X150146987Y-101072817D01*
X150079234Y-101094031D01*
X150010767Y-101075247D01*
X149986289Y-101055514D01*
X149059417Y-100094314D01*
X149026530Y-100031394D01*
X149032881Y-99960682D01*
X149069315Y-99913623D01*
X149068220Y-99912528D01*
X149163528Y-99817220D01*
X149224719Y-99697126D01*
X149240500Y-99597488D01*
X149240500Y-99030512D01*
X149224719Y-98930874D01*
X149163528Y-98810780D01*
X149068220Y-98715472D01*
X148948126Y-98654281D01*
X148938333Y-98652730D01*
X148938330Y-98652729D01*
X148921249Y-98650023D01*
X148862170Y-98623900D01*
X148844260Y-98609548D01*
X148844000Y-98602800D01*
X146938000Y-98602800D01*
X146869879Y-98582798D01*
X146823386Y-98529142D01*
X146812000Y-98476800D01*
X146812000Y-92506800D01*
X141350000Y-92506800D01*
X141281879Y-92486798D01*
X141235386Y-92433142D01*
X141224000Y-92380800D01*
X141224000Y-85216000D01*
X141244002Y-85147879D01*
X141297658Y-85101386D01*
X141350000Y-85090000D01*
X169292000Y-85090000D01*
X169360121Y-85110002D01*
G37*
G04 #@! TD.AperFunction*
G04 #@! TA.AperFunction,Conductor*
G36*
X155079105Y-104997502D02*
G01*
X155100079Y-105014405D01*
X156792595Y-106706922D01*
X156826621Y-106769234D01*
X156829500Y-106796017D01*
X156829500Y-107217488D01*
X156845281Y-107317126D01*
X156849783Y-107325962D01*
X156851928Y-107332563D01*
X156853956Y-107403531D01*
X156817294Y-107464329D01*
X156753582Y-107495654D01*
X156732095Y-107497500D01*
X155762016Y-107497500D01*
X155693895Y-107477498D01*
X155672921Y-107460595D01*
X155648111Y-107435785D01*
X155640684Y-107427681D01*
X155623541Y-107407251D01*
X155623542Y-107407251D01*
X155616455Y-107398806D01*
X155606906Y-107393293D01*
X155583815Y-107379961D01*
X155574544Y-107374055D01*
X155552715Y-107358770D01*
X155543684Y-107352446D01*
X155533034Y-107349592D01*
X155529866Y-107348115D01*
X155526590Y-107346923D01*
X155517045Y-107341412D01*
X155483301Y-107335462D01*
X155479942Y-107334870D01*
X155469215Y-107332492D01*
X155432807Y-107322736D01*
X155421822Y-107323697D01*
X155421820Y-107323697D01*
X155395272Y-107326020D01*
X155384290Y-107326500D01*
X155172500Y-107326500D01*
X155104379Y-107306498D01*
X155057886Y-107252842D01*
X155046500Y-107200501D01*
X155046499Y-107069788D01*
X155046499Y-107063600D01*
X155031240Y-106986883D01*
X155021296Y-106972001D01*
X155000082Y-106904248D01*
X155021296Y-106831999D01*
X155024347Y-106827433D01*
X155031240Y-106817117D01*
X155046500Y-106740401D01*
X155046499Y-106563600D01*
X155031240Y-106486883D01*
X155021296Y-106472001D01*
X155000082Y-106404248D01*
X155021296Y-106331999D01*
X155024347Y-106327433D01*
X155031240Y-106317117D01*
X155046500Y-106240401D01*
X155046499Y-106063600D01*
X155031240Y-105986883D01*
X155021296Y-105972001D01*
X155000082Y-105904248D01*
X155021296Y-105831999D01*
X155024347Y-105827433D01*
X155031240Y-105817117D01*
X155046500Y-105740401D01*
X155046499Y-105563600D01*
X155031240Y-105486883D01*
X154973112Y-105399888D01*
X154962796Y-105392995D01*
X154896434Y-105348653D01*
X154896432Y-105348652D01*
X154886117Y-105341760D01*
X154873950Y-105339340D01*
X154873948Y-105339339D01*
X154833680Y-105331329D01*
X154809401Y-105326500D01*
X154691254Y-105326500D01*
X154304000Y-105326501D01*
X154235879Y-105306499D01*
X154189386Y-105252844D01*
X154178000Y-105200501D01*
X154178000Y-105103500D01*
X154198002Y-105035379D01*
X154251658Y-104988886D01*
X154304000Y-104977500D01*
X155010984Y-104977500D01*
X155079105Y-104997502D01*
G37*
G04 #@! TD.AperFunction*
G04 #@! TA.AperFunction,Conductor*
G36*
X159610868Y-99782795D02*
G01*
X159652050Y-99840627D01*
X159658980Y-99881837D01*
X159658980Y-100249370D01*
X159658500Y-100260352D01*
X159655216Y-100297887D01*
X159664834Y-100333780D01*
X159664971Y-100334290D01*
X159667350Y-100345022D01*
X159673892Y-100382125D01*
X159679403Y-100391670D01*
X159680595Y-100394946D01*
X159682072Y-100398114D01*
X159684926Y-100408764D01*
X159691250Y-100417795D01*
X159706535Y-100439624D01*
X159712441Y-100448895D01*
X159722039Y-100465519D01*
X159731286Y-100481535D01*
X159739731Y-100488621D01*
X159760162Y-100505765D01*
X159768265Y-100513191D01*
X161181595Y-101926522D01*
X161215621Y-101988834D01*
X161218500Y-102015617D01*
X161218500Y-103070224D01*
X161198498Y-103138345D01*
X161143750Y-103185330D01*
X161117213Y-103197145D01*
X161117209Y-103197147D01*
X161111179Y-103199832D01*
X161105838Y-103203712D01*
X161105837Y-103203713D01*
X161053561Y-103241694D01*
X160964772Y-103306203D01*
X160960359Y-103311105D01*
X160960357Y-103311106D01*
X160853500Y-103429783D01*
X160843681Y-103440688D01*
X160840381Y-103446404D01*
X160840378Y-103446408D01*
X160817010Y-103486883D01*
X160753197Y-103597412D01*
X160697274Y-103769523D01*
X160696584Y-103776086D01*
X160696583Y-103776093D01*
X160683350Y-103902000D01*
X160678358Y-103949500D01*
X160697274Y-104129477D01*
X160753197Y-104301588D01*
X160756500Y-104307309D01*
X160840378Y-104452592D01*
X160840381Y-104452596D01*
X160843681Y-104458312D01*
X160848099Y-104463219D01*
X160848100Y-104463220D01*
X160923958Y-104547468D01*
X160964772Y-104592797D01*
X160970111Y-104596676D01*
X161083565Y-104679105D01*
X161111179Y-104699168D01*
X161117209Y-104701853D01*
X161117213Y-104701855D01*
X161143750Y-104713670D01*
X161197845Y-104759650D01*
X161218500Y-104828776D01*
X161218500Y-104968984D01*
X161198498Y-105037105D01*
X161181595Y-105058079D01*
X159668079Y-106571595D01*
X159605767Y-106605621D01*
X159578984Y-106608500D01*
X158221294Y-106608500D01*
X158153173Y-106588498D01*
X158109027Y-106539703D01*
X158058028Y-106439612D01*
X158053528Y-106430780D01*
X157958220Y-106335472D01*
X157838126Y-106274281D01*
X157828337Y-106272731D01*
X157828335Y-106272730D01*
X157798851Y-106268060D01*
X157738488Y-106258500D01*
X157317017Y-106258500D01*
X157248896Y-106238498D01*
X157227927Y-106221600D01*
X156411920Y-105405593D01*
X156377896Y-105343283D01*
X156382960Y-105272468D01*
X156425507Y-105215632D01*
X156492027Y-105190821D01*
X156501016Y-105190500D01*
X157841748Y-105190500D01*
X157847816Y-105189293D01*
X157888061Y-105181288D01*
X157888062Y-105181288D01*
X157900231Y-105178867D01*
X157966552Y-105134552D01*
X158010867Y-105068231D01*
X158015435Y-105045269D01*
X158021293Y-105015816D01*
X158022500Y-105009748D01*
X158022500Y-103270252D01*
X158017652Y-103245880D01*
X158013288Y-103223939D01*
X158013288Y-103223938D01*
X158010867Y-103211769D01*
X157966552Y-103145448D01*
X157900231Y-103101133D01*
X157888062Y-103098712D01*
X157888061Y-103098712D01*
X157847816Y-103090707D01*
X157841748Y-103089500D01*
X156462509Y-103089500D01*
X156394388Y-103069498D01*
X156347895Y-103015842D01*
X156337791Y-102945568D01*
X156367285Y-102880988D01*
X156373414Y-102874405D01*
X157785320Y-101462500D01*
X159372622Y-99875198D01*
X159380726Y-99867771D01*
X159401149Y-99850634D01*
X159409594Y-99843548D01*
X159423861Y-99818837D01*
X159475244Y-99769844D01*
X159544957Y-99756408D01*
X159610868Y-99782795D01*
G37*
G04 #@! TD.AperFunction*
G04 #@! TA.AperFunction,Conductor*
G36*
X154748621Y-99913502D02*
G01*
X154795114Y-99967158D01*
X154806500Y-100019500D01*
X154806500Y-100071834D01*
X154809481Y-100103369D01*
X154854366Y-100231184D01*
X154859958Y-100238754D01*
X154859959Y-100238757D01*
X154901886Y-100295521D01*
X154934850Y-100340150D01*
X154942421Y-100345742D01*
X155036243Y-100415041D01*
X155036246Y-100415042D01*
X155043816Y-100420634D01*
X155171631Y-100465519D01*
X155179277Y-100466242D01*
X155179278Y-100466242D01*
X155185248Y-100466806D01*
X155203166Y-100468500D01*
X156010834Y-100468500D01*
X156028752Y-100466806D01*
X156034722Y-100466242D01*
X156034723Y-100466242D01*
X156042369Y-100465519D01*
X156144812Y-100429544D01*
X156161303Y-100423753D01*
X156161304Y-100423752D01*
X156170184Y-100420634D01*
X156174266Y-100417619D01*
X156241585Y-100403879D01*
X156307781Y-100429544D01*
X156349592Y-100486922D01*
X156356980Y-100529432D01*
X156356980Y-100838903D01*
X156336978Y-100907024D01*
X156320075Y-100927998D01*
X155230078Y-102017995D01*
X155167766Y-102052021D01*
X155096951Y-102046956D01*
X155040115Y-102004409D01*
X155031833Y-101989865D01*
X155031240Y-101986883D01*
X154973112Y-101899888D01*
X154949005Y-101883780D01*
X154896434Y-101848653D01*
X154896432Y-101848652D01*
X154886117Y-101841760D01*
X154873950Y-101839340D01*
X154873948Y-101839339D01*
X154833680Y-101831329D01*
X154809401Y-101826500D01*
X154763551Y-101826500D01*
X154347500Y-101826501D01*
X154279379Y-101806499D01*
X154232886Y-101752844D01*
X154221500Y-101700501D01*
X154221499Y-101244788D01*
X154221499Y-101238600D01*
X154217664Y-101219316D01*
X154208661Y-101174054D01*
X154208661Y-101174053D01*
X154206240Y-101161883D01*
X154186504Y-101132345D01*
X154155005Y-101085204D01*
X154148112Y-101074888D01*
X154108554Y-101048456D01*
X154071434Y-101023653D01*
X154071432Y-101023652D01*
X154061117Y-101016760D01*
X154048950Y-101014340D01*
X154048948Y-101014339D01*
X154018998Y-101008382D01*
X153984401Y-101001500D01*
X153960670Y-101001500D01*
X153847500Y-101001501D01*
X153779380Y-100981499D01*
X153732887Y-100927844D01*
X153721500Y-100875501D01*
X153721500Y-100384616D01*
X153741502Y-100316495D01*
X153758405Y-100295521D01*
X154123521Y-99930405D01*
X154185833Y-99896379D01*
X154212616Y-99893500D01*
X154680500Y-99893500D01*
X154748621Y-99913502D01*
G37*
G04 #@! TD.AperFunction*
G04 #@! TA.AperFunction,Conductor*
G36*
X159683335Y-92598302D02*
G01*
X159715177Y-92627596D01*
X159756218Y-92681082D01*
X159881659Y-92777336D01*
X160027738Y-92837844D01*
X160184500Y-92858482D01*
X160192688Y-92857404D01*
X160333074Y-92838922D01*
X160341262Y-92837844D01*
X160409282Y-92809669D01*
X160479871Y-92802080D01*
X160543358Y-92833859D01*
X160579586Y-92894917D01*
X160583500Y-92926078D01*
X160583500Y-94114522D01*
X160563498Y-94182643D01*
X160509842Y-94229136D01*
X160439568Y-94239240D01*
X160409282Y-94230931D01*
X160348891Y-94205916D01*
X160341262Y-94202756D01*
X160184500Y-94182118D01*
X160027738Y-94202756D01*
X159881659Y-94263264D01*
X159756218Y-94359518D01*
X159751195Y-94366064D01*
X159746669Y-94371962D01*
X159659964Y-94484959D01*
X159599456Y-94631038D01*
X159578818Y-94787800D01*
X159579896Y-94795988D01*
X159587618Y-94854642D01*
X159576679Y-94924790D01*
X159551791Y-94960183D01*
X158940185Y-95571789D01*
X158932081Y-95579216D01*
X158903206Y-95603445D01*
X158897693Y-95612994D01*
X158884361Y-95636085D01*
X158878455Y-95645356D01*
X158856846Y-95676216D01*
X158853992Y-95686866D01*
X158852515Y-95690034D01*
X158851323Y-95693310D01*
X158845812Y-95702855D01*
X158839862Y-95736599D01*
X158839270Y-95739958D01*
X158836892Y-95750685D01*
X158827136Y-95787093D01*
X158828097Y-95798078D01*
X158828097Y-95798080D01*
X158830420Y-95824628D01*
X158830900Y-95835610D01*
X158830900Y-99444076D01*
X158810898Y-99512197D01*
X158793995Y-99533171D01*
X157223782Y-101103384D01*
X157161470Y-101137410D01*
X157090655Y-101132345D01*
X157033819Y-101089798D01*
X157009166Y-101025271D01*
X157008459Y-101017190D01*
X157007980Y-101006208D01*
X157007980Y-98825337D01*
X157027982Y-98757216D01*
X157044885Y-98736241D01*
X157208583Y-98572544D01*
X157391428Y-98389699D01*
X157399532Y-98382273D01*
X157419950Y-98365140D01*
X157428394Y-98358055D01*
X157433904Y-98348512D01*
X157433907Y-98348508D01*
X157447236Y-98325421D01*
X157453141Y-98316151D01*
X157468432Y-98294313D01*
X157474754Y-98285284D01*
X157477607Y-98274636D01*
X157479086Y-98271465D01*
X157480278Y-98268189D01*
X157485788Y-98258645D01*
X157492334Y-98221524D01*
X157494708Y-98210817D01*
X157504463Y-98174407D01*
X157501179Y-98136869D01*
X157500700Y-98125888D01*
X157500700Y-94573416D01*
X157520702Y-94505295D01*
X157537605Y-94484321D01*
X159406721Y-92615205D01*
X159469033Y-92581179D01*
X159495816Y-92578300D01*
X159615214Y-92578300D01*
X159683335Y-92598302D01*
G37*
G04 #@! TD.AperFunction*
G04 #@! TD*
G04 #@! TA.AperFunction,Conductor*
G04 #@! TO.N,VDD*
G36*
X146500121Y-92806202D02*
G01*
X146546614Y-92859858D01*
X146558000Y-92912200D01*
X146558000Y-98649255D01*
X146544698Y-98705604D01*
X146526891Y-98741218D01*
X146503288Y-98773964D01*
X146466472Y-98810780D01*
X146405281Y-98930874D01*
X146403731Y-98940663D01*
X146403730Y-98940665D01*
X146395909Y-98990046D01*
X146384158Y-99026684D01*
X146304000Y-99187000D01*
X146304000Y-104648000D01*
X147479286Y-104648000D01*
X147547407Y-104668002D01*
X147568381Y-104684905D01*
X148751691Y-105868215D01*
X148759118Y-105876319D01*
X148783347Y-105905194D01*
X148792896Y-105910707D01*
X148815987Y-105924039D01*
X148825252Y-105929941D01*
X148833870Y-105935975D01*
X148850691Y-105950091D01*
X148869400Y-105968800D01*
X148903893Y-105968800D01*
X148936506Y-105973094D01*
X148966995Y-105981264D01*
X148977971Y-105980304D01*
X148977974Y-105980304D01*
X149004545Y-105977979D01*
X149015526Y-105977500D01*
X149774475Y-105977500D01*
X149774477Y-105977499D01*
X149962600Y-105977499D01*
X150030721Y-105997501D01*
X150077214Y-106051157D01*
X150088600Y-106103499D01*
X150088600Y-107189000D01*
X150068598Y-107257121D01*
X150014942Y-107303614D01*
X149962600Y-107315000D01*
X147675600Y-107315000D01*
X147675600Y-107747800D01*
X147655598Y-107815921D01*
X147601942Y-107862414D01*
X147549600Y-107873800D01*
X146710400Y-107873800D01*
X146704308Y-107880908D01*
X146704307Y-107880908D01*
X146290914Y-108363200D01*
X146231395Y-108401904D01*
X146195248Y-108407200D01*
X141350000Y-108407200D01*
X141281879Y-108387198D01*
X141235386Y-108333542D01*
X141224000Y-108281200D01*
X141224000Y-92912200D01*
X141244002Y-92844079D01*
X141297658Y-92797586D01*
X141350000Y-92786200D01*
X146432000Y-92786200D01*
X146500121Y-92806202D01*
G37*
G04 #@! TD.AperFunction*
G04 #@! TD*
G04 #@! TA.AperFunction,Conductor*
G04 #@! TO.N,GND*
G36*
X150056121Y-107538202D02*
G01*
X150102614Y-107591858D01*
X150114000Y-107644200D01*
X150114000Y-107792284D01*
X150093998Y-107860405D01*
X150072290Y-107885939D01*
X144018000Y-113334800D01*
X144018000Y-118746000D01*
X143997998Y-118814121D01*
X143944342Y-118860614D01*
X143892000Y-118872000D01*
X141350000Y-118872000D01*
X141281879Y-118851998D01*
X141235386Y-118798342D01*
X141224000Y-118746000D01*
X141224000Y-108736400D01*
X141244002Y-108668279D01*
X141297658Y-108621786D01*
X141350000Y-108610400D01*
X146456400Y-108610400D01*
X146824970Y-108149688D01*
X146883143Y-108108990D01*
X146923359Y-108102400D01*
X147878800Y-108102400D01*
X147878800Y-107644200D01*
X147898802Y-107576079D01*
X147952458Y-107529586D01*
X148004800Y-107518200D01*
X149988000Y-107518200D01*
X150056121Y-107538202D01*
G37*
G04 #@! TD.AperFunction*
G04 #@! TD*
G04 #@! TA.AperFunction,Conductor*
G04 #@! TO.N,/B*
G36*
X152512621Y-107972501D02*
G01*
X152559114Y-108026157D01*
X152570500Y-108078499D01*
X152570500Y-109823290D01*
X152570020Y-109834269D01*
X152566736Y-109871807D01*
X152569590Y-109882456D01*
X152576491Y-109908210D01*
X152578868Y-109918931D01*
X152585412Y-109956045D01*
X152590923Y-109965590D01*
X152592115Y-109968866D01*
X152593592Y-109972034D01*
X152596446Y-109982684D01*
X152602770Y-109991715D01*
X152618055Y-110013544D01*
X152623961Y-110022815D01*
X152623962Y-110022816D01*
X152642806Y-110055455D01*
X152651251Y-110062541D01*
X152671682Y-110079685D01*
X152679785Y-110087111D01*
X154180291Y-111587618D01*
X154214317Y-111649930D01*
X154216118Y-111693158D01*
X154207318Y-111760000D01*
X154227956Y-111916762D01*
X154288464Y-112062841D01*
X154384718Y-112188282D01*
X154391264Y-112193305D01*
X154438204Y-112229323D01*
X154480071Y-112286661D01*
X154487500Y-112329286D01*
X154487500Y-117794714D01*
X154467498Y-117862835D01*
X154438204Y-117894677D01*
X154384718Y-117935718D01*
X154288464Y-118061159D01*
X154227956Y-118207238D01*
X154207318Y-118364000D01*
X154208396Y-118372188D01*
X154208396Y-118372190D01*
X154215316Y-118424755D01*
X154204376Y-118494903D01*
X154157248Y-118548002D01*
X154090394Y-118567200D01*
X150201606Y-118567200D01*
X150133485Y-118547198D01*
X150086992Y-118493542D01*
X150076684Y-118424755D01*
X150083604Y-118372190D01*
X150083604Y-118372188D01*
X150084682Y-118364000D01*
X150064044Y-118207238D01*
X150003536Y-118061159D01*
X149907282Y-117935718D01*
X149853796Y-117894677D01*
X149811929Y-117837339D01*
X149804500Y-117794714D01*
X149804500Y-112436315D01*
X149804504Y-112435368D01*
X149805313Y-112327717D01*
X149825826Y-112259750D01*
X149854606Y-112228702D01*
X149900733Y-112193308D01*
X149900736Y-112193305D01*
X149907282Y-112188282D01*
X150003536Y-112062841D01*
X150064044Y-111916762D01*
X150084682Y-111760000D01*
X150075882Y-111693157D01*
X150086821Y-111623010D01*
X150111709Y-111587617D01*
X151612222Y-110087105D01*
X151620326Y-110079678D01*
X151640749Y-110062541D01*
X151649194Y-110055455D01*
X151668039Y-110022815D01*
X151673943Y-110013547D01*
X151689231Y-109991713D01*
X151695553Y-109982684D01*
X151698406Y-109972038D01*
X151699883Y-109968870D01*
X151701076Y-109965593D01*
X151706588Y-109956045D01*
X151713132Y-109918931D01*
X151715512Y-109908196D01*
X151722410Y-109882454D01*
X151725263Y-109871807D01*
X151721979Y-109834269D01*
X151721500Y-109823288D01*
X151721500Y-108273525D01*
X151721499Y-108273522D01*
X151721499Y-108078499D01*
X151741501Y-108010379D01*
X151795157Y-107963886D01*
X151847499Y-107952500D01*
X152145998Y-107952500D01*
X152444501Y-107952499D01*
X152512621Y-107972501D01*
G37*
G04 #@! TD.AperFunction*
G04 #@! TD*
M02*
