M48
; DRILL file {KiCad (5.1.10)-1} date 07/26/21 18:41:31
; FORMAT={-:-/ absolute / inch / decimal}
; #@! TF.CreationDate,2021-07-26T18:41:31-05:00
; #@! TF.GenerationSoftware,Kicad,Pcbnew,(5.1.10)-1
; #@! TF.FileFunction,Plated,1,2,PTH
FMAT,2
INCH
T1C0.0079
T2C0.0157
T3C0.0256
T4C0.0394
%
G90
G05
T1
X6.3915Y-4.55
X6.4208Y-4.5208
X6.4208Y-4.5792
X6.45Y-4.4915
X6.45Y-4.55
X6.45Y-4.6085
X6.4792Y-4.5208
X6.4792Y-4.5792
X6.5085Y-4.55
T2
X6.28Y-4.49
X6.29Y-4.64
X6.34Y-4.69
T3
X6.45Y-4.24
X6.45Y-4.86
X6.5Y-4.24
X6.5Y-4.86
X6.8Y-4.35
X6.8Y-4.4
X6.8Y-4.71
X6.8Y-4.76
T4
X6.02Y-4.25
X6.02Y-4.35
X6.02Y-4.45
X6.02Y-4.55
X6.02Y-4.65
X6.02Y-4.75
X6.02Y-4.85
T0
M30
