%TF.GenerationSoftware,KiCad,Pcbnew,(5.1.10)-1*%
%TF.CreationDate,2021-07-26T18:41:30-05:00*%
%TF.ProjectId,LDC1314-Breakout,4c444331-3331-4342-9d42-7265616b6f75,rev?*%
%TF.SameCoordinates,Original*%
%TF.FileFunction,Paste,Top*%
%TF.FilePolarity,Positive*%
%FSLAX46Y46*%
G04 Gerber Fmt 4.6, Leading zero omitted, Abs format (unit mm)*
G04 Created by KiCad (PCBNEW (5.1.10)-1) date 2021-07-26 18:41:30*
%MOMM*%
%LPD*%
G01*
G04 APERTURE LIST*
G04 APERTURE END LIST*
%TO.C,R2*%
G36*
G01*
X159237000Y-114217000D02*
X159787000Y-114217000D01*
G75*
G02*
X159987000Y-114417000I0J-200000D01*
G01*
X159987000Y-114817000D01*
G75*
G02*
X159787000Y-115017000I-200000J0D01*
G01*
X159237000Y-115017000D01*
G75*
G02*
X159037000Y-114817000I0J200000D01*
G01*
X159037000Y-114417000D01*
G75*
G02*
X159237000Y-114217000I200000J0D01*
G01*
G37*
G36*
G01*
X159237000Y-112567000D02*
X159787000Y-112567000D01*
G75*
G02*
X159987000Y-112767000I0J-200000D01*
G01*
X159987000Y-113167000D01*
G75*
G02*
X159787000Y-113367000I-200000J0D01*
G01*
X159237000Y-113367000D01*
G75*
G02*
X159037000Y-113167000I0J200000D01*
G01*
X159037000Y-112767000D01*
G75*
G02*
X159237000Y-112567000I200000J0D01*
G01*
G37*
%TD*%
%TO.C,U1*%
G36*
G01*
X163207746Y-116312462D02*
X163653223Y-115866985D01*
G75*
G02*
X164006777Y-115866985I176777J-176777D01*
G01*
X164452254Y-116312462D01*
G75*
G02*
X164452254Y-116666016I-176777J-176777D01*
G01*
X164006777Y-117111493D01*
G75*
G02*
X163653223Y-117111493I-176777J176777D01*
G01*
X163207746Y-116666016D01*
G75*
G02*
X163207746Y-116312462I176777J176777D01*
G01*
G37*
G36*
G01*
X164126985Y-115393223D02*
X164572462Y-114947746D01*
G75*
G02*
X164926016Y-114947746I176777J-176777D01*
G01*
X165371493Y-115393223D01*
G75*
G02*
X165371493Y-115746777I-176777J-176777D01*
G01*
X164926016Y-116192254D01*
G75*
G02*
X164572462Y-116192254I-176777J176777D01*
G01*
X164126985Y-115746777D01*
G75*
G02*
X164126985Y-115393223I176777J176777D01*
G01*
G37*
G36*
G01*
X162288507Y-115393223D02*
X162733984Y-114947746D01*
G75*
G02*
X163087538Y-114947746I176777J-176777D01*
G01*
X163533015Y-115393223D01*
G75*
G02*
X163533015Y-115746777I-176777J-176777D01*
G01*
X163087538Y-116192254D01*
G75*
G02*
X162733984Y-116192254I-176777J176777D01*
G01*
X162288507Y-115746777D01*
G75*
G02*
X162288507Y-115393223I176777J176777D01*
G01*
G37*
G36*
G01*
X163207746Y-114473984D02*
X163653223Y-114028507D01*
G75*
G02*
X164006777Y-114028507I176777J-176777D01*
G01*
X164452254Y-114473984D01*
G75*
G02*
X164452254Y-114827538I-176777J-176777D01*
G01*
X164006777Y-115273015D01*
G75*
G02*
X163653223Y-115273015I-176777J176777D01*
G01*
X163207746Y-114827538D01*
G75*
G02*
X163207746Y-114473984I176777J176777D01*
G01*
G37*
G36*
G01*
X164316136Y-113846428D02*
X164846466Y-113316098D01*
G75*
G02*
X164934854Y-113316098I44194J-44194D01*
G01*
X165023242Y-113404486D01*
G75*
G02*
X165023242Y-113492874I-44194J-44194D01*
G01*
X164492912Y-114023204D01*
G75*
G02*
X164404524Y-114023204I-44194J44194D01*
G01*
X164316136Y-113934816D01*
G75*
G02*
X164316136Y-113846428I44194J44194D01*
G01*
G37*
G36*
G01*
X164669690Y-114199981D02*
X165200020Y-113669651D01*
G75*
G02*
X165288408Y-113669651I44194J-44194D01*
G01*
X165376796Y-113758039D01*
G75*
G02*
X165376796Y-113846427I-44194J-44194D01*
G01*
X164846466Y-114376757D01*
G75*
G02*
X164758078Y-114376757I-44194J44194D01*
G01*
X164669690Y-114288369D01*
G75*
G02*
X164669690Y-114199981I44194J44194D01*
G01*
G37*
G36*
G01*
X165023243Y-114553534D02*
X165553573Y-114023204D01*
G75*
G02*
X165641961Y-114023204I44194J-44194D01*
G01*
X165730349Y-114111592D01*
G75*
G02*
X165730349Y-114199980I-44194J-44194D01*
G01*
X165200019Y-114730310D01*
G75*
G02*
X165111631Y-114730310I-44194J44194D01*
G01*
X165023243Y-114641922D01*
G75*
G02*
X165023243Y-114553534I44194J44194D01*
G01*
G37*
G36*
G01*
X165376796Y-114907088D02*
X165907126Y-114376758D01*
G75*
G02*
X165995514Y-114376758I44194J-44194D01*
G01*
X166083902Y-114465146D01*
G75*
G02*
X166083902Y-114553534I-44194J-44194D01*
G01*
X165553572Y-115083864D01*
G75*
G02*
X165465184Y-115083864I-44194J44194D01*
G01*
X165376796Y-114995476D01*
G75*
G02*
X165376796Y-114907088I44194J44194D01*
G01*
G37*
G36*
G01*
X165376796Y-116144524D02*
X165465184Y-116056136D01*
G75*
G02*
X165553572Y-116056136I44194J-44194D01*
G01*
X166083902Y-116586466D01*
G75*
G02*
X166083902Y-116674854I-44194J-44194D01*
G01*
X165995514Y-116763242D01*
G75*
G02*
X165907126Y-116763242I-44194J44194D01*
G01*
X165376796Y-116232912D01*
G75*
G02*
X165376796Y-116144524I44194J44194D01*
G01*
G37*
G36*
G01*
X165023243Y-116498078D02*
X165111631Y-116409690D01*
G75*
G02*
X165200019Y-116409690I44194J-44194D01*
G01*
X165730349Y-116940020D01*
G75*
G02*
X165730349Y-117028408I-44194J-44194D01*
G01*
X165641961Y-117116796D01*
G75*
G02*
X165553573Y-117116796I-44194J44194D01*
G01*
X165023243Y-116586466D01*
G75*
G02*
X165023243Y-116498078I44194J44194D01*
G01*
G37*
G36*
G01*
X164669690Y-116851631D02*
X164758078Y-116763243D01*
G75*
G02*
X164846466Y-116763243I44194J-44194D01*
G01*
X165376796Y-117293573D01*
G75*
G02*
X165376796Y-117381961I-44194J-44194D01*
G01*
X165288408Y-117470349D01*
G75*
G02*
X165200020Y-117470349I-44194J44194D01*
G01*
X164669690Y-116940019D01*
G75*
G02*
X164669690Y-116851631I44194J44194D01*
G01*
G37*
G36*
G01*
X164316136Y-117205184D02*
X164404524Y-117116796D01*
G75*
G02*
X164492912Y-117116796I44194J-44194D01*
G01*
X165023242Y-117647126D01*
G75*
G02*
X165023242Y-117735514I-44194J-44194D01*
G01*
X164934854Y-117823902D01*
G75*
G02*
X164846466Y-117823902I-44194J44194D01*
G01*
X164316136Y-117293572D01*
G75*
G02*
X164316136Y-117205184I44194J44194D01*
G01*
G37*
G36*
G01*
X162636758Y-117647126D02*
X163167088Y-117116796D01*
G75*
G02*
X163255476Y-117116796I44194J-44194D01*
G01*
X163343864Y-117205184D01*
G75*
G02*
X163343864Y-117293572I-44194J-44194D01*
G01*
X162813534Y-117823902D01*
G75*
G02*
X162725146Y-117823902I-44194J44194D01*
G01*
X162636758Y-117735514D01*
G75*
G02*
X162636758Y-117647126I44194J44194D01*
G01*
G37*
G36*
G01*
X162283204Y-117293573D02*
X162813534Y-116763243D01*
G75*
G02*
X162901922Y-116763243I44194J-44194D01*
G01*
X162990310Y-116851631D01*
G75*
G02*
X162990310Y-116940019I-44194J-44194D01*
G01*
X162459980Y-117470349D01*
G75*
G02*
X162371592Y-117470349I-44194J44194D01*
G01*
X162283204Y-117381961D01*
G75*
G02*
X162283204Y-117293573I44194J44194D01*
G01*
G37*
G36*
G01*
X161929651Y-116940020D02*
X162459981Y-116409690D01*
G75*
G02*
X162548369Y-116409690I44194J-44194D01*
G01*
X162636757Y-116498078D01*
G75*
G02*
X162636757Y-116586466I-44194J-44194D01*
G01*
X162106427Y-117116796D01*
G75*
G02*
X162018039Y-117116796I-44194J44194D01*
G01*
X161929651Y-117028408D01*
G75*
G02*
X161929651Y-116940020I44194J44194D01*
G01*
G37*
G36*
G01*
X161576098Y-116586466D02*
X162106428Y-116056136D01*
G75*
G02*
X162194816Y-116056136I44194J-44194D01*
G01*
X162283204Y-116144524D01*
G75*
G02*
X162283204Y-116232912I-44194J-44194D01*
G01*
X161752874Y-116763242D01*
G75*
G02*
X161664486Y-116763242I-44194J44194D01*
G01*
X161576098Y-116674854D01*
G75*
G02*
X161576098Y-116586466I44194J44194D01*
G01*
G37*
G36*
G01*
X161576098Y-114465146D02*
X161664486Y-114376758D01*
G75*
G02*
X161752874Y-114376758I44194J-44194D01*
G01*
X162283204Y-114907088D01*
G75*
G02*
X162283204Y-114995476I-44194J-44194D01*
G01*
X162194816Y-115083864D01*
G75*
G02*
X162106428Y-115083864I-44194J44194D01*
G01*
X161576098Y-114553534D01*
G75*
G02*
X161576098Y-114465146I44194J44194D01*
G01*
G37*
G36*
G01*
X161929651Y-114111592D02*
X162018039Y-114023204D01*
G75*
G02*
X162106427Y-114023204I44194J-44194D01*
G01*
X162636757Y-114553534D01*
G75*
G02*
X162636757Y-114641922I-44194J-44194D01*
G01*
X162548369Y-114730310D01*
G75*
G02*
X162459981Y-114730310I-44194J44194D01*
G01*
X161929651Y-114199980D01*
G75*
G02*
X161929651Y-114111592I44194J44194D01*
G01*
G37*
G36*
G01*
X162283204Y-113758039D02*
X162371592Y-113669651D01*
G75*
G02*
X162459980Y-113669651I44194J-44194D01*
G01*
X162990310Y-114199981D01*
G75*
G02*
X162990310Y-114288369I-44194J-44194D01*
G01*
X162901922Y-114376757D01*
G75*
G02*
X162813534Y-114376757I-44194J44194D01*
G01*
X162283204Y-113846427D01*
G75*
G02*
X162283204Y-113758039I44194J44194D01*
G01*
G37*
G36*
G01*
X162636758Y-113404486D02*
X162725146Y-113316098D01*
G75*
G02*
X162813534Y-113316098I44194J-44194D01*
G01*
X163343864Y-113846428D01*
G75*
G02*
X163343864Y-113934816I-44194J-44194D01*
G01*
X163255476Y-114023204D01*
G75*
G02*
X163167088Y-114023204I-44194J44194D01*
G01*
X162636758Y-113492874D01*
G75*
G02*
X162636758Y-113404486I44194J44194D01*
G01*
G37*
%TD*%
%TO.C,R1*%
G36*
G01*
X159449662Y-117783429D02*
X159838571Y-118172338D01*
G75*
G02*
X159838571Y-118455180I-141421J-141421D01*
G01*
X159555728Y-118738023D01*
G75*
G02*
X159272886Y-118738023I-141421J141421D01*
G01*
X158883977Y-118349114D01*
G75*
G02*
X158883977Y-118066272I141421J141421D01*
G01*
X159166820Y-117783429D01*
G75*
G02*
X159449662Y-117783429I141421J-141421D01*
G01*
G37*
G36*
G01*
X160616388Y-116616703D02*
X161005297Y-117005612D01*
G75*
G02*
X161005297Y-117288454I-141421J-141421D01*
G01*
X160722454Y-117571297D01*
G75*
G02*
X160439612Y-117571297I-141421J141421D01*
G01*
X160050703Y-117182388D01*
G75*
G02*
X160050703Y-116899546I141421J141421D01*
G01*
X160333546Y-116616703D01*
G75*
G02*
X160616388Y-116616703I141421J-141421D01*
G01*
G37*
%TD*%
%TO.C,C5*%
G36*
G01*
X160843405Y-118965041D02*
X161196959Y-119318595D01*
G75*
G02*
X161196959Y-119636793I-159099J-159099D01*
G01*
X160878761Y-119954991D01*
G75*
G02*
X160560563Y-119954991I-159099J159099D01*
G01*
X160207009Y-119601437D01*
G75*
G02*
X160207009Y-119283239I159099J159099D01*
G01*
X160525207Y-118965041D01*
G75*
G02*
X160843405Y-118965041I159099J-159099D01*
G01*
G37*
G36*
G01*
X161939421Y-117869025D02*
X162292975Y-118222579D01*
G75*
G02*
X162292975Y-118540777I-159099J-159099D01*
G01*
X161974777Y-118858975D01*
G75*
G02*
X161656579Y-118858975I-159099J159099D01*
G01*
X161303025Y-118505421D01*
G75*
G02*
X161303025Y-118187223I159099J159099D01*
G01*
X161621223Y-117869025D01*
G75*
G02*
X161939421Y-117869025I159099J-159099D01*
G01*
G37*
%TD*%
%TO.C,C4*%
G36*
G01*
X163866500Y-109761000D02*
X163866500Y-110711000D01*
G75*
G02*
X163616500Y-110961000I-250000J0D01*
G01*
X162941500Y-110961000D01*
G75*
G02*
X162691500Y-110711000I0J250000D01*
G01*
X162691500Y-109761000D01*
G75*
G02*
X162941500Y-109511000I250000J0D01*
G01*
X163616500Y-109511000D01*
G75*
G02*
X163866500Y-109761000I0J-250000D01*
G01*
G37*
G36*
G01*
X165941500Y-109761000D02*
X165941500Y-110711000D01*
G75*
G02*
X165691500Y-110961000I-250000J0D01*
G01*
X165016500Y-110961000D01*
G75*
G02*
X164766500Y-110711000I0J250000D01*
G01*
X164766500Y-109761000D01*
G75*
G02*
X165016500Y-109511000I250000J0D01*
G01*
X165691500Y-109511000D01*
G75*
G02*
X165941500Y-109761000I0J-250000D01*
G01*
G37*
%TD*%
%TO.C,C3*%
G36*
G01*
X170655000Y-110569500D02*
X169705000Y-110569500D01*
G75*
G02*
X169455000Y-110319500I0J250000D01*
G01*
X169455000Y-109644500D01*
G75*
G02*
X169705000Y-109394500I250000J0D01*
G01*
X170655000Y-109394500D01*
G75*
G02*
X170905000Y-109644500I0J-250000D01*
G01*
X170905000Y-110319500D01*
G75*
G02*
X170655000Y-110569500I-250000J0D01*
G01*
G37*
G36*
G01*
X170655000Y-112644500D02*
X169705000Y-112644500D01*
G75*
G02*
X169455000Y-112394500I0J250000D01*
G01*
X169455000Y-111719500D01*
G75*
G02*
X169705000Y-111469500I250000J0D01*
G01*
X170655000Y-111469500D01*
G75*
G02*
X170905000Y-111719500I0J-250000D01*
G01*
X170905000Y-112394500D01*
G75*
G02*
X170655000Y-112644500I-250000J0D01*
G01*
G37*
%TD*%
%TO.C,C2*%
G36*
G01*
X170655000Y-119713500D02*
X169705000Y-119713500D01*
G75*
G02*
X169455000Y-119463500I0J250000D01*
G01*
X169455000Y-118788500D01*
G75*
G02*
X169705000Y-118538500I250000J0D01*
G01*
X170655000Y-118538500D01*
G75*
G02*
X170905000Y-118788500I0J-250000D01*
G01*
X170905000Y-119463500D01*
G75*
G02*
X170655000Y-119713500I-250000J0D01*
G01*
G37*
G36*
G01*
X170655000Y-121788500D02*
X169705000Y-121788500D01*
G75*
G02*
X169455000Y-121538500I0J250000D01*
G01*
X169455000Y-120863500D01*
G75*
G02*
X169705000Y-120613500I250000J0D01*
G01*
X170655000Y-120613500D01*
G75*
G02*
X170905000Y-120863500I0J-250000D01*
G01*
X170905000Y-121538500D01*
G75*
G02*
X170655000Y-121788500I-250000J0D01*
G01*
G37*
%TD*%
%TO.C,C1*%
G36*
G01*
X164788000Y-121379000D02*
X164788000Y-120429000D01*
G75*
G02*
X165038000Y-120179000I250000J0D01*
G01*
X165713000Y-120179000D01*
G75*
G02*
X165963000Y-120429000I0J-250000D01*
G01*
X165963000Y-121379000D01*
G75*
G02*
X165713000Y-121629000I-250000J0D01*
G01*
X165038000Y-121629000D01*
G75*
G02*
X164788000Y-121379000I0J250000D01*
G01*
G37*
G36*
G01*
X162713000Y-121379000D02*
X162713000Y-120429000D01*
G75*
G02*
X162963000Y-120179000I250000J0D01*
G01*
X163638000Y-120179000D01*
G75*
G02*
X163888000Y-120429000I0J-250000D01*
G01*
X163888000Y-121379000D01*
G75*
G02*
X163638000Y-121629000I-250000J0D01*
G01*
X162963000Y-121629000D01*
G75*
G02*
X162713000Y-121379000I0J250000D01*
G01*
G37*
%TD*%
M02*
