%TF.GenerationSoftware,KiCad,Pcbnew,(5.1.10)-1*%
%TF.CreationDate,2021-07-26T18:41:30-05:00*%
%TF.ProjectId,LDC1314-Breakout,4c444331-3331-4342-9d42-7265616b6f75,rev?*%
%TF.SameCoordinates,Original*%
%TF.FileFunction,Copper,L1,Top*%
%TF.FilePolarity,Positive*%
%FSLAX46Y46*%
G04 Gerber Fmt 4.6, Leading zero omitted, Abs format (unit mm)*
G04 Created by KiCad (PCBNEW (5.1.10)-1) date 2021-07-26 18:41:30*
%MOMM*%
%LPD*%
G01*
G04 APERTURE LIST*
%TA.AperFunction,ComponentPad*%
%ADD10O,1.000000X1.000000*%
%TD*%
%TA.AperFunction,ComponentPad*%
%ADD11R,1.000000X1.000000*%
%TD*%
%TA.AperFunction,ComponentPad*%
%ADD12O,1.700000X1.700000*%
%TD*%
%TA.AperFunction,ComponentPad*%
%ADD13R,1.700000X1.700000*%
%TD*%
%TA.AperFunction,ComponentPad*%
%ADD14C,0.500000*%
%TD*%
%TA.AperFunction,SMDPad,CuDef*%
%ADD15C,0.100000*%
%TD*%
%TA.AperFunction,ViaPad*%
%ADD16C,0.800000*%
%TD*%
%TA.AperFunction,Conductor*%
%ADD17C,0.250000*%
%TD*%
G04 APERTURE END LIST*
D10*
%TO.P,J2,2*%
%TO.N,/Coil1_B*%
X172720000Y-119634000D03*
D11*
%TO.P,J2,1*%
%TO.N,/Coil1_A*%
X172720000Y-120904000D03*
%TD*%
D10*
%TO.P,J3,2*%
%TO.N,/Coil2_B*%
X172720000Y-110490000D03*
D11*
%TO.P,J3,1*%
%TO.N,/Coil2_A*%
X172720000Y-111760000D03*
%TD*%
%TO.P,R2,2*%
%TO.N,GND*%
%TA.AperFunction,SMDPad,CuDef*%
G36*
G01*
X159237000Y-114217000D02*
X159787000Y-114217000D01*
G75*
G02*
X159987000Y-114417000I0J-200000D01*
G01*
X159987000Y-114817000D01*
G75*
G02*
X159787000Y-115017000I-200000J0D01*
G01*
X159237000Y-115017000D01*
G75*
G02*
X159037000Y-114817000I0J200000D01*
G01*
X159037000Y-114417000D01*
G75*
G02*
X159237000Y-114217000I200000J0D01*
G01*
G37*
%TD.AperFunction*%
%TO.P,R2,1*%
%TO.N,ADDR*%
%TA.AperFunction,SMDPad,CuDef*%
G36*
G01*
X159237000Y-112567000D02*
X159787000Y-112567000D01*
G75*
G02*
X159987000Y-112767000I0J-200000D01*
G01*
X159987000Y-113167000D01*
G75*
G02*
X159787000Y-113367000I-200000J0D01*
G01*
X159237000Y-113367000D01*
G75*
G02*
X159037000Y-113167000I0J200000D01*
G01*
X159037000Y-112767000D01*
G75*
G02*
X159237000Y-112567000I200000J0D01*
G01*
G37*
%TD.AperFunction*%
%TD*%
D10*
%TO.P,J1,2*%
%TO.N,/Coil0_B*%
X165100000Y-123444000D03*
D11*
%TO.P,J1,1*%
%TO.N,/Coil0_A*%
X163830000Y-123444000D03*
%TD*%
D10*
%TO.P,J4,2*%
%TO.N,/Coil3_B*%
X163830000Y-107696000D03*
D11*
%TO.P,J4,1*%
%TO.N,/Coil3_A*%
X165100000Y-107696000D03*
%TD*%
D12*
%TO.P,J5,7*%
%TO.N,SCL*%
X152908000Y-107950000D03*
%TO.P,J5,6*%
%TO.N,SDA*%
X152908000Y-110490000D03*
%TO.P,J5,5*%
%TO.N,ADDR*%
X152908000Y-113030000D03*
%TO.P,J5,4*%
%TO.N,INT*%
X152908000Y-115570000D03*
%TO.P,J5,3*%
%TO.N,SHUTDOWN*%
X152908000Y-118110000D03*
%TO.P,J5,2*%
%TO.N,+3V3*%
X152908000Y-120650000D03*
D13*
%TO.P,J5,1*%
%TO.N,GND*%
X152908000Y-123190000D03*
%TD*%
D14*
%TO.P,U1,17*%
%TO.N,GND*%
X163830000Y-117054924D03*
X163087538Y-116312462D03*
X162345076Y-115570000D03*
X164572462Y-116312462D03*
X163830000Y-115570000D03*
X163087538Y-114827538D03*
X165314924Y-115570000D03*
X164572462Y-114827538D03*
X163830000Y-114085076D03*
%TA.AperFunction,SMDPad,CuDef*%
D15*
G36*
X161991522Y-115570000D02*
G01*
X163830000Y-113731522D01*
X165668478Y-115570000D01*
X163830000Y-117408478D01*
X161991522Y-115570000D01*
G37*
%TD.AperFunction*%
%TO.P,U1,16*%
%TO.N,/Coil3_B*%
%TA.AperFunction,SMDPad,CuDef*%
G36*
G01*
X164316136Y-113846428D02*
X164846466Y-113316098D01*
G75*
G02*
X164934854Y-113316098I44194J-44194D01*
G01*
X165023242Y-113404486D01*
G75*
G02*
X165023242Y-113492874I-44194J-44194D01*
G01*
X164492912Y-114023204D01*
G75*
G02*
X164404524Y-114023204I-44194J44194D01*
G01*
X164316136Y-113934816D01*
G75*
G02*
X164316136Y-113846428I44194J44194D01*
G01*
G37*
%TD.AperFunction*%
%TO.P,U1,15*%
%TO.N,/Coil3_A*%
%TA.AperFunction,SMDPad,CuDef*%
G36*
G01*
X164669690Y-114199981D02*
X165200020Y-113669651D01*
G75*
G02*
X165288408Y-113669651I44194J-44194D01*
G01*
X165376796Y-113758039D01*
G75*
G02*
X165376796Y-113846427I-44194J-44194D01*
G01*
X164846466Y-114376757D01*
G75*
G02*
X164758078Y-114376757I-44194J44194D01*
G01*
X164669690Y-114288369D01*
G75*
G02*
X164669690Y-114199981I44194J44194D01*
G01*
G37*
%TD.AperFunction*%
%TO.P,U1,14*%
%TO.N,/Coil2_B*%
%TA.AperFunction,SMDPad,CuDef*%
G36*
G01*
X165023243Y-114553534D02*
X165553573Y-114023204D01*
G75*
G02*
X165641961Y-114023204I44194J-44194D01*
G01*
X165730349Y-114111592D01*
G75*
G02*
X165730349Y-114199980I-44194J-44194D01*
G01*
X165200019Y-114730310D01*
G75*
G02*
X165111631Y-114730310I-44194J44194D01*
G01*
X165023243Y-114641922D01*
G75*
G02*
X165023243Y-114553534I44194J44194D01*
G01*
G37*
%TD.AperFunction*%
%TO.P,U1,13*%
%TO.N,/Coil2_A*%
%TA.AperFunction,SMDPad,CuDef*%
G36*
G01*
X165376796Y-114907088D02*
X165907126Y-114376758D01*
G75*
G02*
X165995514Y-114376758I44194J-44194D01*
G01*
X166083902Y-114465146D01*
G75*
G02*
X166083902Y-114553534I-44194J-44194D01*
G01*
X165553572Y-115083864D01*
G75*
G02*
X165465184Y-115083864I-44194J44194D01*
G01*
X165376796Y-114995476D01*
G75*
G02*
X165376796Y-114907088I44194J44194D01*
G01*
G37*
%TD.AperFunction*%
%TO.P,U1,12*%
%TO.N,/Coil1_B*%
%TA.AperFunction,SMDPad,CuDef*%
G36*
G01*
X165376796Y-116144524D02*
X165465184Y-116056136D01*
G75*
G02*
X165553572Y-116056136I44194J-44194D01*
G01*
X166083902Y-116586466D01*
G75*
G02*
X166083902Y-116674854I-44194J-44194D01*
G01*
X165995514Y-116763242D01*
G75*
G02*
X165907126Y-116763242I-44194J44194D01*
G01*
X165376796Y-116232912D01*
G75*
G02*
X165376796Y-116144524I44194J44194D01*
G01*
G37*
%TD.AperFunction*%
%TO.P,U1,11*%
%TO.N,/Coil1_A*%
%TA.AperFunction,SMDPad,CuDef*%
G36*
G01*
X165023243Y-116498078D02*
X165111631Y-116409690D01*
G75*
G02*
X165200019Y-116409690I44194J-44194D01*
G01*
X165730349Y-116940020D01*
G75*
G02*
X165730349Y-117028408I-44194J-44194D01*
G01*
X165641961Y-117116796D01*
G75*
G02*
X165553573Y-117116796I-44194J44194D01*
G01*
X165023243Y-116586466D01*
G75*
G02*
X165023243Y-116498078I44194J44194D01*
G01*
G37*
%TD.AperFunction*%
%TO.P,U1,10*%
%TO.N,/Coil0_B*%
%TA.AperFunction,SMDPad,CuDef*%
G36*
G01*
X164669690Y-116851631D02*
X164758078Y-116763243D01*
G75*
G02*
X164846466Y-116763243I44194J-44194D01*
G01*
X165376796Y-117293573D01*
G75*
G02*
X165376796Y-117381961I-44194J-44194D01*
G01*
X165288408Y-117470349D01*
G75*
G02*
X165200020Y-117470349I-44194J44194D01*
G01*
X164669690Y-116940019D01*
G75*
G02*
X164669690Y-116851631I44194J44194D01*
G01*
G37*
%TD.AperFunction*%
%TO.P,U1,9*%
%TO.N,/Coil0_A*%
%TA.AperFunction,SMDPad,CuDef*%
G36*
G01*
X164316136Y-117205184D02*
X164404524Y-117116796D01*
G75*
G02*
X164492912Y-117116796I44194J-44194D01*
G01*
X165023242Y-117647126D01*
G75*
G02*
X165023242Y-117735514I-44194J-44194D01*
G01*
X164934854Y-117823902D01*
G75*
G02*
X164846466Y-117823902I-44194J44194D01*
G01*
X164316136Y-117293572D01*
G75*
G02*
X164316136Y-117205184I44194J44194D01*
G01*
G37*
%TD.AperFunction*%
%TO.P,U1,8*%
%TO.N,GND*%
%TA.AperFunction,SMDPad,CuDef*%
G36*
G01*
X162636758Y-117647126D02*
X163167088Y-117116796D01*
G75*
G02*
X163255476Y-117116796I44194J-44194D01*
G01*
X163343864Y-117205184D01*
G75*
G02*
X163343864Y-117293572I-44194J-44194D01*
G01*
X162813534Y-117823902D01*
G75*
G02*
X162725146Y-117823902I-44194J44194D01*
G01*
X162636758Y-117735514D01*
G75*
G02*
X162636758Y-117647126I44194J44194D01*
G01*
G37*
%TD.AperFunction*%
%TO.P,U1,7*%
%TO.N,+3V3*%
%TA.AperFunction,SMDPad,CuDef*%
G36*
G01*
X162283204Y-117293573D02*
X162813534Y-116763243D01*
G75*
G02*
X162901922Y-116763243I44194J-44194D01*
G01*
X162990310Y-116851631D01*
G75*
G02*
X162990310Y-116940019I-44194J-44194D01*
G01*
X162459980Y-117470349D01*
G75*
G02*
X162371592Y-117470349I-44194J44194D01*
G01*
X162283204Y-117381961D01*
G75*
G02*
X162283204Y-117293573I44194J44194D01*
G01*
G37*
%TD.AperFunction*%
%TO.P,U1,6*%
%TO.N,SHUTDOWN*%
%TA.AperFunction,SMDPad,CuDef*%
G36*
G01*
X161929651Y-116940020D02*
X162459981Y-116409690D01*
G75*
G02*
X162548369Y-116409690I44194J-44194D01*
G01*
X162636757Y-116498078D01*
G75*
G02*
X162636757Y-116586466I-44194J-44194D01*
G01*
X162106427Y-117116796D01*
G75*
G02*
X162018039Y-117116796I-44194J44194D01*
G01*
X161929651Y-117028408D01*
G75*
G02*
X161929651Y-116940020I44194J44194D01*
G01*
G37*
%TD.AperFunction*%
%TO.P,U1,5*%
%TO.N,INT*%
%TA.AperFunction,SMDPad,CuDef*%
G36*
G01*
X161576098Y-116586466D02*
X162106428Y-116056136D01*
G75*
G02*
X162194816Y-116056136I44194J-44194D01*
G01*
X162283204Y-116144524D01*
G75*
G02*
X162283204Y-116232912I-44194J-44194D01*
G01*
X161752874Y-116763242D01*
G75*
G02*
X161664486Y-116763242I-44194J44194D01*
G01*
X161576098Y-116674854D01*
G75*
G02*
X161576098Y-116586466I44194J44194D01*
G01*
G37*
%TD.AperFunction*%
%TO.P,U1,4*%
%TO.N,ADDR*%
%TA.AperFunction,SMDPad,CuDef*%
G36*
G01*
X161576098Y-114465146D02*
X161664486Y-114376758D01*
G75*
G02*
X161752874Y-114376758I44194J-44194D01*
G01*
X162283204Y-114907088D01*
G75*
G02*
X162283204Y-114995476I-44194J-44194D01*
G01*
X162194816Y-115083864D01*
G75*
G02*
X162106428Y-115083864I-44194J44194D01*
G01*
X161576098Y-114553534D01*
G75*
G02*
X161576098Y-114465146I44194J44194D01*
G01*
G37*
%TD.AperFunction*%
%TO.P,U1,3*%
%TO.N,GND*%
%TA.AperFunction,SMDPad,CuDef*%
G36*
G01*
X161929651Y-114111592D02*
X162018039Y-114023204D01*
G75*
G02*
X162106427Y-114023204I44194J-44194D01*
G01*
X162636757Y-114553534D01*
G75*
G02*
X162636757Y-114641922I-44194J-44194D01*
G01*
X162548369Y-114730310D01*
G75*
G02*
X162459981Y-114730310I-44194J44194D01*
G01*
X161929651Y-114199980D01*
G75*
G02*
X161929651Y-114111592I44194J44194D01*
G01*
G37*
%TD.AperFunction*%
%TO.P,U1,2*%
%TO.N,SDA*%
%TA.AperFunction,SMDPad,CuDef*%
G36*
G01*
X162283204Y-113758039D02*
X162371592Y-113669651D01*
G75*
G02*
X162459980Y-113669651I44194J-44194D01*
G01*
X162990310Y-114199981D01*
G75*
G02*
X162990310Y-114288369I-44194J-44194D01*
G01*
X162901922Y-114376757D01*
G75*
G02*
X162813534Y-114376757I-44194J44194D01*
G01*
X162283204Y-113846427D01*
G75*
G02*
X162283204Y-113758039I44194J44194D01*
G01*
G37*
%TD.AperFunction*%
%TO.P,U1,1*%
%TO.N,SCL*%
%TA.AperFunction,SMDPad,CuDef*%
G36*
G01*
X162636758Y-113404486D02*
X162725146Y-113316098D01*
G75*
G02*
X162813534Y-113316098I44194J-44194D01*
G01*
X163343864Y-113846428D01*
G75*
G02*
X163343864Y-113934816I-44194J-44194D01*
G01*
X163255476Y-114023204D01*
G75*
G02*
X163167088Y-114023204I-44194J44194D01*
G01*
X162636758Y-113492874D01*
G75*
G02*
X162636758Y-113404486I44194J44194D01*
G01*
G37*
%TD.AperFunction*%
%TD*%
%TO.P,R1,2*%
%TO.N,GND*%
%TA.AperFunction,SMDPad,CuDef*%
G36*
G01*
X159449662Y-117783429D02*
X159838571Y-118172338D01*
G75*
G02*
X159838571Y-118455180I-141421J-141421D01*
G01*
X159555728Y-118738023D01*
G75*
G02*
X159272886Y-118738023I-141421J141421D01*
G01*
X158883977Y-118349114D01*
G75*
G02*
X158883977Y-118066272I141421J141421D01*
G01*
X159166820Y-117783429D01*
G75*
G02*
X159449662Y-117783429I141421J-141421D01*
G01*
G37*
%TD.AperFunction*%
%TO.P,R1,1*%
%TO.N,SHUTDOWN*%
%TA.AperFunction,SMDPad,CuDef*%
G36*
G01*
X160616388Y-116616703D02*
X161005297Y-117005612D01*
G75*
G02*
X161005297Y-117288454I-141421J-141421D01*
G01*
X160722454Y-117571297D01*
G75*
G02*
X160439612Y-117571297I-141421J141421D01*
G01*
X160050703Y-117182388D01*
G75*
G02*
X160050703Y-116899546I141421J141421D01*
G01*
X160333546Y-116616703D01*
G75*
G02*
X160616388Y-116616703I141421J-141421D01*
G01*
G37*
%TD.AperFunction*%
%TD*%
%TO.P,C5,2*%
%TO.N,GND*%
%TA.AperFunction,SMDPad,CuDef*%
G36*
G01*
X160843405Y-118965041D02*
X161196959Y-119318595D01*
G75*
G02*
X161196959Y-119636793I-159099J-159099D01*
G01*
X160878761Y-119954991D01*
G75*
G02*
X160560563Y-119954991I-159099J159099D01*
G01*
X160207009Y-119601437D01*
G75*
G02*
X160207009Y-119283239I159099J159099D01*
G01*
X160525207Y-118965041D01*
G75*
G02*
X160843405Y-118965041I159099J-159099D01*
G01*
G37*
%TD.AperFunction*%
%TO.P,C5,1*%
%TO.N,+3V3*%
%TA.AperFunction,SMDPad,CuDef*%
G36*
G01*
X161939421Y-117869025D02*
X162292975Y-118222579D01*
G75*
G02*
X162292975Y-118540777I-159099J-159099D01*
G01*
X161974777Y-118858975D01*
G75*
G02*
X161656579Y-118858975I-159099J159099D01*
G01*
X161303025Y-118505421D01*
G75*
G02*
X161303025Y-118187223I159099J159099D01*
G01*
X161621223Y-117869025D01*
G75*
G02*
X161939421Y-117869025I159099J-159099D01*
G01*
G37*
%TD.AperFunction*%
%TD*%
%TO.P,C4,2*%
%TO.N,/Coil3_B*%
%TA.AperFunction,SMDPad,CuDef*%
G36*
G01*
X163866500Y-109761000D02*
X163866500Y-110711000D01*
G75*
G02*
X163616500Y-110961000I-250000J0D01*
G01*
X162941500Y-110961000D01*
G75*
G02*
X162691500Y-110711000I0J250000D01*
G01*
X162691500Y-109761000D01*
G75*
G02*
X162941500Y-109511000I250000J0D01*
G01*
X163616500Y-109511000D01*
G75*
G02*
X163866500Y-109761000I0J-250000D01*
G01*
G37*
%TD.AperFunction*%
%TO.P,C4,1*%
%TO.N,/Coil3_A*%
%TA.AperFunction,SMDPad,CuDef*%
G36*
G01*
X165941500Y-109761000D02*
X165941500Y-110711000D01*
G75*
G02*
X165691500Y-110961000I-250000J0D01*
G01*
X165016500Y-110961000D01*
G75*
G02*
X164766500Y-110711000I0J250000D01*
G01*
X164766500Y-109761000D01*
G75*
G02*
X165016500Y-109511000I250000J0D01*
G01*
X165691500Y-109511000D01*
G75*
G02*
X165941500Y-109761000I0J-250000D01*
G01*
G37*
%TD.AperFunction*%
%TD*%
%TO.P,C3,2*%
%TO.N,/Coil2_B*%
%TA.AperFunction,SMDPad,CuDef*%
G36*
G01*
X170655000Y-110569500D02*
X169705000Y-110569500D01*
G75*
G02*
X169455000Y-110319500I0J250000D01*
G01*
X169455000Y-109644500D01*
G75*
G02*
X169705000Y-109394500I250000J0D01*
G01*
X170655000Y-109394500D01*
G75*
G02*
X170905000Y-109644500I0J-250000D01*
G01*
X170905000Y-110319500D01*
G75*
G02*
X170655000Y-110569500I-250000J0D01*
G01*
G37*
%TD.AperFunction*%
%TO.P,C3,1*%
%TO.N,/Coil2_A*%
%TA.AperFunction,SMDPad,CuDef*%
G36*
G01*
X170655000Y-112644500D02*
X169705000Y-112644500D01*
G75*
G02*
X169455000Y-112394500I0J250000D01*
G01*
X169455000Y-111719500D01*
G75*
G02*
X169705000Y-111469500I250000J0D01*
G01*
X170655000Y-111469500D01*
G75*
G02*
X170905000Y-111719500I0J-250000D01*
G01*
X170905000Y-112394500D01*
G75*
G02*
X170655000Y-112644500I-250000J0D01*
G01*
G37*
%TD.AperFunction*%
%TD*%
%TO.P,C2,2*%
%TO.N,/Coil1_B*%
%TA.AperFunction,SMDPad,CuDef*%
G36*
G01*
X170655000Y-119713500D02*
X169705000Y-119713500D01*
G75*
G02*
X169455000Y-119463500I0J250000D01*
G01*
X169455000Y-118788500D01*
G75*
G02*
X169705000Y-118538500I250000J0D01*
G01*
X170655000Y-118538500D01*
G75*
G02*
X170905000Y-118788500I0J-250000D01*
G01*
X170905000Y-119463500D01*
G75*
G02*
X170655000Y-119713500I-250000J0D01*
G01*
G37*
%TD.AperFunction*%
%TO.P,C2,1*%
%TO.N,/Coil1_A*%
%TA.AperFunction,SMDPad,CuDef*%
G36*
G01*
X170655000Y-121788500D02*
X169705000Y-121788500D01*
G75*
G02*
X169455000Y-121538500I0J250000D01*
G01*
X169455000Y-120863500D01*
G75*
G02*
X169705000Y-120613500I250000J0D01*
G01*
X170655000Y-120613500D01*
G75*
G02*
X170905000Y-120863500I0J-250000D01*
G01*
X170905000Y-121538500D01*
G75*
G02*
X170655000Y-121788500I-250000J0D01*
G01*
G37*
%TD.AperFunction*%
%TD*%
%TO.P,C1,2*%
%TO.N,/Coil0_B*%
%TA.AperFunction,SMDPad,CuDef*%
G36*
G01*
X164788000Y-121379000D02*
X164788000Y-120429000D01*
G75*
G02*
X165038000Y-120179000I250000J0D01*
G01*
X165713000Y-120179000D01*
G75*
G02*
X165963000Y-120429000I0J-250000D01*
G01*
X165963000Y-121379000D01*
G75*
G02*
X165713000Y-121629000I-250000J0D01*
G01*
X165038000Y-121629000D01*
G75*
G02*
X164788000Y-121379000I0J250000D01*
G01*
G37*
%TD.AperFunction*%
%TO.P,C1,1*%
%TO.N,/Coil0_A*%
%TA.AperFunction,SMDPad,CuDef*%
G36*
G01*
X162713000Y-121379000D02*
X162713000Y-120429000D01*
G75*
G02*
X162963000Y-120179000I250000J0D01*
G01*
X163638000Y-120179000D01*
G75*
G02*
X163888000Y-120429000I0J-250000D01*
G01*
X163888000Y-121379000D01*
G75*
G02*
X163638000Y-121629000I-250000J0D01*
G01*
X162963000Y-121629000D01*
G75*
G02*
X162713000Y-121379000I0J250000D01*
G01*
G37*
%TD.AperFunction*%
%TD*%
D16*
%TO.N,GND*%
X159766000Y-117856000D03*
X161036000Y-119126000D03*
X159512000Y-114046000D03*
%TD*%
D17*
%TO.N,/Coil0_B*%
X165366558Y-117460111D02*
X165023243Y-117116796D01*
X165366558Y-118859442D02*
X165366558Y-117460111D01*
X165366558Y-120895058D02*
X165375500Y-120904000D01*
X165366558Y-118859442D02*
X165366558Y-120895058D01*
X165100000Y-122471000D02*
X165375500Y-122195500D01*
X165100000Y-123444000D02*
X165100000Y-122471000D01*
X165375500Y-120904000D02*
X165375500Y-122195500D01*
%TO.N,/Coil0_A*%
X163300500Y-118839538D02*
X164669689Y-117470349D01*
X163300500Y-120904000D02*
X163300500Y-118839538D01*
X163830000Y-122682000D02*
X163300500Y-122152500D01*
X163830000Y-123444000D02*
X163830000Y-122682000D01*
X163300500Y-120904000D02*
X163300500Y-122152500D01*
%TO.N,/Coil1_B*%
X170180000Y-119126000D02*
X171196000Y-119126000D01*
X171196000Y-119126000D02*
X171704000Y-119634000D01*
X172720000Y-119634000D02*
X171704000Y-119634000D01*
X168446660Y-119126000D02*
X165730349Y-116409689D01*
X170180000Y-119126000D02*
X168446660Y-119126000D01*
%TO.N,/Coil1_A*%
X172720000Y-120904000D02*
X171450000Y-120904000D01*
X171153000Y-121201000D02*
X171450000Y-120904000D01*
X170180000Y-121201000D02*
X171153000Y-121201000D01*
X169814553Y-121201000D02*
X170180000Y-121201000D01*
X165376796Y-116763243D02*
X169814553Y-121201000D01*
%TO.N,/Coil2_B*%
X171704000Y-110490000D02*
X172720000Y-110490000D01*
X171196000Y-109982000D02*
X171704000Y-110490000D01*
X170180000Y-109982000D02*
X171196000Y-109982000D01*
X169842250Y-109982000D02*
X170180000Y-109982000D01*
X165447493Y-114376757D02*
X169842250Y-109982000D01*
X165376796Y-114376757D02*
X165447493Y-114376757D01*
%TO.N,/Coil2_A*%
X170180000Y-112057000D02*
X171153000Y-112057000D01*
X171450000Y-111760000D02*
X172720000Y-111760000D01*
X171153000Y-112057000D02*
X171450000Y-111760000D01*
X168403660Y-112057000D02*
X165730349Y-114730311D01*
X170180000Y-112057000D02*
X168403660Y-112057000D01*
%TO.N,/Coil3_B*%
X163279000Y-112278962D02*
X164669689Y-113669651D01*
X163279000Y-110236000D02*
X163279000Y-112278962D01*
X163279000Y-110236000D02*
X163279000Y-109263000D01*
X163279000Y-109263000D02*
X163830000Y-108712000D01*
X163830000Y-108712000D02*
X163830000Y-107950000D01*
%TO.N,/Coil3_A*%
X165366558Y-110248558D02*
X165354000Y-110236000D01*
X165366558Y-113609192D02*
X165366558Y-110248558D01*
X165023243Y-113952507D02*
X165366558Y-113609192D01*
X165023243Y-114023204D02*
X165023243Y-113952507D01*
X165354000Y-110236000D02*
X165354000Y-109220000D01*
X165100000Y-108966000D02*
X165100000Y-107696000D01*
X165354000Y-109220000D02*
X165100000Y-108966000D01*
%TO.N,GND*%
X163830000Y-116630660D02*
X163830000Y-115570000D01*
X162990311Y-117470349D02*
X163830000Y-116630660D01*
X163476447Y-115570000D02*
X163830000Y-115570000D01*
X162283204Y-114376757D02*
X163476447Y-115570000D01*
X160701984Y-119460016D02*
X161036000Y-119126000D01*
X159361274Y-118260726D02*
X159766000Y-117856000D01*
X159512000Y-114617000D02*
X159512000Y-114046000D01*
%TO.N,+3V3*%
X158380612Y-120650000D02*
X152908000Y-120650000D01*
X160666612Y-118364000D02*
X158380612Y-120650000D01*
X161798000Y-118364000D02*
X160666612Y-118364000D01*
X161798000Y-117955553D02*
X161798000Y-118364000D01*
X162636757Y-117116796D02*
X161798000Y-117955553D01*
%TO.N,SCL*%
X152908000Y-107950000D02*
X154940000Y-109982000D01*
X159302660Y-109982000D02*
X159534330Y-110213670D01*
X154940000Y-109982000D02*
X159302660Y-109982000D01*
X159534330Y-110213670D02*
X162990311Y-113669651D01*
%TO.N,SDA*%
X159103553Y-110490000D02*
X162636757Y-114023204D01*
X157480000Y-110490000D02*
X159103553Y-110490000D01*
X157480000Y-110490000D02*
X152908000Y-110490000D01*
%TO.N,INT*%
X161089962Y-115570000D02*
X161929651Y-116409689D01*
X157480000Y-115570000D02*
X161089962Y-115570000D01*
X157480000Y-115570000D02*
X152908000Y-115570000D01*
%TO.N,SHUTDOWN*%
X161939889Y-117106558D02*
X162283204Y-116763243D01*
X161535608Y-117094000D02*
X161548166Y-117106558D01*
X161548166Y-117106558D02*
X161939889Y-117106558D01*
X160528000Y-117094000D02*
X161535608Y-117094000D01*
X160528000Y-117094000D02*
X156718000Y-117094000D01*
X155702000Y-118110000D02*
X152908000Y-118110000D01*
X156718000Y-117094000D02*
X155702000Y-118110000D01*
%TO.N,ADDR*%
X160229340Y-113030000D02*
X161929651Y-114730311D01*
X157480000Y-113030000D02*
X160229340Y-113030000D01*
X157480000Y-113030000D02*
X152908000Y-113030000D01*
%TD*%
M02*
