%TF.GenerationSoftware,KiCad,Pcbnew,(5.1.10)-1*%
%TF.CreationDate,2021-07-26T18:41:30-05:00*%
%TF.ProjectId,LDC1314-Breakout,4c444331-3331-4342-9d42-7265616b6f75,rev?*%
%TF.SameCoordinates,Original*%
%TF.FileFunction,Legend,Top*%
%TF.FilePolarity,Positive*%
%FSLAX46Y46*%
G04 Gerber Fmt 4.6, Leading zero omitted, Abs format (unit mm)*
G04 Created by KiCad (PCBNEW (5.1.10)-1) date 2021-07-26 18:41:30*
%MOMM*%
%LPD*%
G01*
G04 APERTURE LIST*
%ADD10C,0.120000*%
%ADD11C,0.150000*%
G04 APERTURE END LIST*
D10*
X172466000Y-114046000D02*
X169418000Y-116840000D01*
X170942000Y-117094000D02*
X172466000Y-114046000D01*
X169418000Y-114046000D02*
X170942000Y-117094000D01*
X172466000Y-116840000D02*
X169418000Y-114046000D01*
X170942000Y-113792000D02*
X172466000Y-116840000D01*
X169418000Y-116840000D02*
X170942000Y-113792000D01*
D11*
X154765523Y-108354761D02*
X154908380Y-108402380D01*
X155146476Y-108402380D01*
X155241714Y-108354761D01*
X155289333Y-108307142D01*
X155336952Y-108211904D01*
X155336952Y-108116666D01*
X155289333Y-108021428D01*
X155241714Y-107973809D01*
X155146476Y-107926190D01*
X154956000Y-107878571D01*
X154860761Y-107830952D01*
X154813142Y-107783333D01*
X154765523Y-107688095D01*
X154765523Y-107592857D01*
X154813142Y-107497619D01*
X154860761Y-107450000D01*
X154956000Y-107402380D01*
X155194095Y-107402380D01*
X155336952Y-107450000D01*
X156336952Y-108307142D02*
X156289333Y-108354761D01*
X156146476Y-108402380D01*
X156051238Y-108402380D01*
X155908380Y-108354761D01*
X155813142Y-108259523D01*
X155765523Y-108164285D01*
X155717904Y-107973809D01*
X155717904Y-107830952D01*
X155765523Y-107640476D01*
X155813142Y-107545238D01*
X155908380Y-107450000D01*
X156051238Y-107402380D01*
X156146476Y-107402380D01*
X156289333Y-107450000D01*
X156336952Y-107497619D01*
X157241714Y-108402380D02*
X156765523Y-108402380D01*
X156765523Y-107402380D01*
X154741714Y-110894761D02*
X154884571Y-110942380D01*
X155122666Y-110942380D01*
X155217904Y-110894761D01*
X155265523Y-110847142D01*
X155313142Y-110751904D01*
X155313142Y-110656666D01*
X155265523Y-110561428D01*
X155217904Y-110513809D01*
X155122666Y-110466190D01*
X154932190Y-110418571D01*
X154836952Y-110370952D01*
X154789333Y-110323333D01*
X154741714Y-110228095D01*
X154741714Y-110132857D01*
X154789333Y-110037619D01*
X154836952Y-109990000D01*
X154932190Y-109942380D01*
X155170285Y-109942380D01*
X155313142Y-109990000D01*
X155741714Y-110942380D02*
X155741714Y-109942380D01*
X155979809Y-109942380D01*
X156122666Y-109990000D01*
X156217904Y-110085238D01*
X156265523Y-110180476D01*
X156313142Y-110370952D01*
X156313142Y-110513809D01*
X156265523Y-110704285D01*
X156217904Y-110799523D01*
X156122666Y-110894761D01*
X155979809Y-110942380D01*
X155741714Y-110942380D01*
X156694095Y-110656666D02*
X157170285Y-110656666D01*
X156598857Y-110942380D02*
X156932190Y-109942380D01*
X157265523Y-110942380D01*
X154725904Y-113450666D02*
X155202095Y-113450666D01*
X154630666Y-113736380D02*
X154964000Y-112736380D01*
X155297333Y-113736380D01*
X155630666Y-113736380D02*
X155630666Y-112736380D01*
X155868761Y-112736380D01*
X156011619Y-112784000D01*
X156106857Y-112879238D01*
X156154476Y-112974476D01*
X156202095Y-113164952D01*
X156202095Y-113307809D01*
X156154476Y-113498285D01*
X156106857Y-113593523D01*
X156011619Y-113688761D01*
X155868761Y-113736380D01*
X155630666Y-113736380D01*
X156630666Y-113736380D02*
X156630666Y-112736380D01*
X156868761Y-112736380D01*
X157011619Y-112784000D01*
X157106857Y-112879238D01*
X157154476Y-112974476D01*
X157202095Y-113164952D01*
X157202095Y-113307809D01*
X157154476Y-113498285D01*
X157106857Y-113593523D01*
X157011619Y-113688761D01*
X156868761Y-113736380D01*
X156630666Y-113736380D01*
X158202095Y-113736380D02*
X157868761Y-113260190D01*
X157630666Y-113736380D02*
X157630666Y-112736380D01*
X158011619Y-112736380D01*
X158106857Y-112784000D01*
X158154476Y-112831619D01*
X158202095Y-112926857D01*
X158202095Y-113069714D01*
X158154476Y-113164952D01*
X158106857Y-113212571D01*
X158011619Y-113260190D01*
X157630666Y-113260190D01*
X154797238Y-116022380D02*
X154797238Y-115022380D01*
X155273428Y-116022380D02*
X155273428Y-115022380D01*
X155844857Y-116022380D01*
X155844857Y-115022380D01*
X156178190Y-115022380D02*
X156749619Y-115022380D01*
X156463904Y-116022380D02*
X156463904Y-115022380D01*
X154662285Y-118514761D02*
X154805142Y-118562380D01*
X155043238Y-118562380D01*
X155138476Y-118514761D01*
X155186095Y-118467142D01*
X155233714Y-118371904D01*
X155233714Y-118276666D01*
X155186095Y-118181428D01*
X155138476Y-118133809D01*
X155043238Y-118086190D01*
X154852761Y-118038571D01*
X154757523Y-117990952D01*
X154709904Y-117943333D01*
X154662285Y-117848095D01*
X154662285Y-117752857D01*
X154709904Y-117657619D01*
X154757523Y-117610000D01*
X154852761Y-117562380D01*
X155090857Y-117562380D01*
X155233714Y-117610000D01*
X155662285Y-118562380D02*
X155662285Y-117562380D01*
X155900380Y-117562380D01*
X156043238Y-117610000D01*
X156138476Y-117705238D01*
X156186095Y-117800476D01*
X156233714Y-117990952D01*
X156233714Y-118133809D01*
X156186095Y-118324285D01*
X156138476Y-118419523D01*
X156043238Y-118514761D01*
X155900380Y-118562380D01*
X155662285Y-118562380D01*
X154622666Y-120102380D02*
X154956000Y-121102380D01*
X155289333Y-120102380D01*
X155622666Y-121102380D02*
X155622666Y-120102380D01*
X155860761Y-120102380D01*
X156003619Y-120150000D01*
X156098857Y-120245238D01*
X156146476Y-120340476D01*
X156194095Y-120530952D01*
X156194095Y-120673809D01*
X156146476Y-120864285D01*
X156098857Y-120959523D01*
X156003619Y-121054761D01*
X155860761Y-121102380D01*
X155622666Y-121102380D01*
X156622666Y-121102380D02*
X156622666Y-120102380D01*
X156860761Y-120102380D01*
X157003619Y-120150000D01*
X157098857Y-120245238D01*
X157146476Y-120340476D01*
X157194095Y-120530952D01*
X157194095Y-120673809D01*
X157146476Y-120864285D01*
X157098857Y-120959523D01*
X157003619Y-121054761D01*
X156860761Y-121102380D01*
X156622666Y-121102380D01*
X155194095Y-122690000D02*
X155098857Y-122642380D01*
X154956000Y-122642380D01*
X154813142Y-122690000D01*
X154717904Y-122785238D01*
X154670285Y-122880476D01*
X154622666Y-123070952D01*
X154622666Y-123213809D01*
X154670285Y-123404285D01*
X154717904Y-123499523D01*
X154813142Y-123594761D01*
X154956000Y-123642380D01*
X155051238Y-123642380D01*
X155194095Y-123594761D01*
X155241714Y-123547142D01*
X155241714Y-123213809D01*
X155051238Y-123213809D01*
X155670285Y-123642380D02*
X155670285Y-122642380D01*
X156241714Y-123642380D01*
X156241714Y-122642380D01*
X156717904Y-123642380D02*
X156717904Y-122642380D01*
X156956000Y-122642380D01*
X157098857Y-122690000D01*
X157194095Y-122785238D01*
X157241714Y-122880476D01*
X157289333Y-123070952D01*
X157289333Y-123213809D01*
X157241714Y-123404285D01*
X157194095Y-123499523D01*
X157098857Y-123594761D01*
X156956000Y-123642380D01*
X156717904Y-123642380D01*
X161885333Y-108148380D02*
X161409142Y-108148380D01*
X161409142Y-107148380D01*
X162123428Y-107148380D02*
X162742476Y-107148380D01*
X162409142Y-107529333D01*
X162552000Y-107529333D01*
X162647238Y-107576952D01*
X162694857Y-107624571D01*
X162742476Y-107719809D01*
X162742476Y-107957904D01*
X162694857Y-108053142D01*
X162647238Y-108100761D01*
X162552000Y-108148380D01*
X162266285Y-108148380D01*
X162171047Y-108100761D01*
X162123428Y-108053142D01*
X172553333Y-109418380D02*
X172077142Y-109418380D01*
X172077142Y-108418380D01*
X172839047Y-108513619D02*
X172886666Y-108466000D01*
X172981904Y-108418380D01*
X173220000Y-108418380D01*
X173315238Y-108466000D01*
X173362857Y-108513619D01*
X173410476Y-108608857D01*
X173410476Y-108704095D01*
X173362857Y-108846952D01*
X172791428Y-109418380D01*
X173410476Y-109418380D01*
X172553333Y-122880380D02*
X172077142Y-122880380D01*
X172077142Y-121880380D01*
X173410476Y-122880380D02*
X172839047Y-122880380D01*
X173124761Y-122880380D02*
X173124761Y-121880380D01*
X173029523Y-122023238D01*
X172934285Y-122118476D01*
X172839047Y-122166095D01*
X161885333Y-123896380D02*
X161409142Y-123896380D01*
X161409142Y-122896380D01*
X162409142Y-122896380D02*
X162504380Y-122896380D01*
X162599619Y-122944000D01*
X162647238Y-122991619D01*
X162694857Y-123086857D01*
X162742476Y-123277333D01*
X162742476Y-123515428D01*
X162694857Y-123705904D01*
X162647238Y-123801142D01*
X162599619Y-123848761D01*
X162504380Y-123896380D01*
X162409142Y-123896380D01*
X162313904Y-123848761D01*
X162266285Y-123801142D01*
X162218666Y-123705904D01*
X162171047Y-123515428D01*
X162171047Y-123277333D01*
X162218666Y-123086857D01*
X162266285Y-122991619D01*
X162313904Y-122944000D01*
X162409142Y-122896380D01*
X167838380Y-122070000D02*
X167838380Y-122546190D01*
X166838380Y-122546190D01*
X167838380Y-121736666D02*
X166838380Y-121736666D01*
X166838380Y-121498571D01*
X166886000Y-121355714D01*
X166981238Y-121260476D01*
X167076476Y-121212857D01*
X167266952Y-121165238D01*
X167409809Y-121165238D01*
X167600285Y-121212857D01*
X167695523Y-121260476D01*
X167790761Y-121355714D01*
X167838380Y-121498571D01*
X167838380Y-121736666D01*
X167743142Y-120165238D02*
X167790761Y-120212857D01*
X167838380Y-120355714D01*
X167838380Y-120450952D01*
X167790761Y-120593809D01*
X167695523Y-120689047D01*
X167600285Y-120736666D01*
X167409809Y-120784285D01*
X167266952Y-120784285D01*
X167076476Y-120736666D01*
X166981238Y-120689047D01*
X166886000Y-120593809D01*
X166838380Y-120450952D01*
X166838380Y-120355714D01*
X166886000Y-120212857D01*
X166933619Y-120165238D01*
X167838380Y-119212857D02*
X167838380Y-119784285D01*
X167838380Y-119498571D02*
X166838380Y-119498571D01*
X166981238Y-119593809D01*
X167076476Y-119689047D01*
X167124095Y-119784285D01*
X166838380Y-118879523D02*
X166838380Y-118260476D01*
X167219333Y-118593809D01*
X167219333Y-118450952D01*
X167266952Y-118355714D01*
X167314571Y-118308095D01*
X167409809Y-118260476D01*
X167647904Y-118260476D01*
X167743142Y-118308095D01*
X167790761Y-118355714D01*
X167838380Y-118450952D01*
X167838380Y-118736666D01*
X167790761Y-118831904D01*
X167743142Y-118879523D01*
X167838380Y-117308095D02*
X167838380Y-117879523D01*
X167838380Y-117593809D02*
X166838380Y-117593809D01*
X166981238Y-117689047D01*
X167076476Y-117784285D01*
X167124095Y-117879523D01*
X167171714Y-116450952D02*
X167838380Y-116450952D01*
X166790761Y-116689047D02*
X167505047Y-116927142D01*
X167505047Y-116308095D01*
X167457428Y-115927142D02*
X167457428Y-115165238D01*
X167314571Y-114355714D02*
X167362190Y-114212857D01*
X167409809Y-114165238D01*
X167505047Y-114117619D01*
X167647904Y-114117619D01*
X167743142Y-114165238D01*
X167790761Y-114212857D01*
X167838380Y-114308095D01*
X167838380Y-114689047D01*
X166838380Y-114689047D01*
X166838380Y-114355714D01*
X166886000Y-114260476D01*
X166933619Y-114212857D01*
X167028857Y-114165238D01*
X167124095Y-114165238D01*
X167219333Y-114212857D01*
X167266952Y-114260476D01*
X167314571Y-114355714D01*
X167314571Y-114689047D01*
X167838380Y-113689047D02*
X167171714Y-113689047D01*
X167362190Y-113689047D02*
X167266952Y-113641428D01*
X167219333Y-113593809D01*
X167171714Y-113498571D01*
X167171714Y-113403333D01*
X167790761Y-112689047D02*
X167838380Y-112784285D01*
X167838380Y-112974761D01*
X167790761Y-113070000D01*
X167695523Y-113117619D01*
X167314571Y-113117619D01*
X167219333Y-113070000D01*
X167171714Y-112974761D01*
X167171714Y-112784285D01*
X167219333Y-112689047D01*
X167314571Y-112641428D01*
X167409809Y-112641428D01*
X167505047Y-113117619D01*
X167838380Y-111784285D02*
X167314571Y-111784285D01*
X167219333Y-111831904D01*
X167171714Y-111927142D01*
X167171714Y-112117619D01*
X167219333Y-112212857D01*
X167790761Y-111784285D02*
X167838380Y-111879523D01*
X167838380Y-112117619D01*
X167790761Y-112212857D01*
X167695523Y-112260476D01*
X167600285Y-112260476D01*
X167505047Y-112212857D01*
X167457428Y-112117619D01*
X167457428Y-111879523D01*
X167409809Y-111784285D01*
X167838380Y-111308095D02*
X166838380Y-111308095D01*
X167457428Y-111212857D02*
X167838380Y-110927142D01*
X167171714Y-110927142D02*
X167552666Y-111308095D01*
X167838380Y-110355714D02*
X167790761Y-110450952D01*
X167743142Y-110498571D01*
X167647904Y-110546190D01*
X167362190Y-110546190D01*
X167266952Y-110498571D01*
X167219333Y-110450952D01*
X167171714Y-110355714D01*
X167171714Y-110212857D01*
X167219333Y-110117619D01*
X167266952Y-110070000D01*
X167362190Y-110022380D01*
X167647904Y-110022380D01*
X167743142Y-110070000D01*
X167790761Y-110117619D01*
X167838380Y-110212857D01*
X167838380Y-110355714D01*
X167171714Y-109165238D02*
X167838380Y-109165238D01*
X167171714Y-109593809D02*
X167695523Y-109593809D01*
X167790761Y-109546190D01*
X167838380Y-109450952D01*
X167838380Y-109308095D01*
X167790761Y-109212857D01*
X167743142Y-109165238D01*
X167171714Y-108831904D02*
X167171714Y-108450952D01*
X166838380Y-108689047D02*
X167695523Y-108689047D01*
X167790761Y-108641428D01*
X167838380Y-108546190D01*
X167838380Y-108450952D01*
D10*
%TO.C,R2*%
X160034500Y-113554742D02*
X160034500Y-114029258D01*
X158989500Y-113554742D02*
X158989500Y-114029258D01*
%TO.C,J5*%
X154238000Y-106620000D02*
X151578000Y-106620000D01*
X154238000Y-121920000D02*
X154238000Y-106620000D01*
X151578000Y-121920000D02*
X151578000Y-106620000D01*
X154238000Y-121920000D02*
X151578000Y-121920000D01*
X154238000Y-123190000D02*
X154238000Y-124520000D01*
X154238000Y-124520000D02*
X152908000Y-124520000D01*
%TO.C,U1*%
X166124562Y-114880571D02*
X166813991Y-115570000D01*
X166813991Y-115570000D02*
X166124562Y-116259429D01*
X161535438Y-116259429D02*
X160846009Y-115570000D01*
X160846009Y-115570000D02*
X161535438Y-114880571D01*
X163140571Y-117864562D02*
X163830000Y-118553991D01*
X163830000Y-118553991D02*
X164519429Y-117864562D01*
X164519429Y-113275438D02*
X163830000Y-112586009D01*
%TO.C,R1*%
X160481867Y-117879060D02*
X160146334Y-118214593D01*
X159742940Y-117140133D02*
X159407407Y-117475666D01*
%TO.C,C5*%
X161710022Y-119173227D02*
X161511211Y-119372038D01*
X160988773Y-118451978D02*
X160789962Y-118650789D01*
%TO.C,C4*%
X164577752Y-110971000D02*
X164055248Y-110971000D01*
X164577752Y-109501000D02*
X164055248Y-109501000D01*
%TO.C,C3*%
X169445000Y-111280752D02*
X169445000Y-110758248D01*
X170915000Y-111280752D02*
X170915000Y-110758248D01*
%TO.C,C2*%
X169445000Y-120424752D02*
X169445000Y-119902248D01*
X170915000Y-120424752D02*
X170915000Y-119902248D01*
%TO.C,C1*%
X164076748Y-120169000D02*
X164599252Y-120169000D01*
X164076748Y-121639000D02*
X164599252Y-121639000D01*
%TO.C,R2*%
D11*
X159345333Y-111958380D02*
X159012000Y-111482190D01*
X158773904Y-111958380D02*
X158773904Y-110958380D01*
X159154857Y-110958380D01*
X159250095Y-111006000D01*
X159297714Y-111053619D01*
X159345333Y-111148857D01*
X159345333Y-111291714D01*
X159297714Y-111386952D01*
X159250095Y-111434571D01*
X159154857Y-111482190D01*
X158773904Y-111482190D01*
X159726285Y-111053619D02*
X159773904Y-111006000D01*
X159869142Y-110958380D01*
X160107238Y-110958380D01*
X160202476Y-111006000D01*
X160250095Y-111053619D01*
X160297714Y-111148857D01*
X160297714Y-111244095D01*
X160250095Y-111386952D01*
X159678666Y-111958380D01*
X160297714Y-111958380D01*
%TO.C,U1*%
X160364026Y-113435522D02*
X160936446Y-114007942D01*
X161037461Y-114041614D01*
X161104805Y-114041614D01*
X161205820Y-114007942D01*
X161340507Y-113873255D01*
X161374179Y-113772240D01*
X161374179Y-113704896D01*
X161340507Y-113603881D01*
X160768087Y-113031461D01*
X162182301Y-113031461D02*
X161778240Y-113435522D01*
X161980270Y-113233492D02*
X161273164Y-112526385D01*
X161306835Y-112694744D01*
X161306835Y-112829431D01*
X161273164Y-112930446D01*
%TO.C,R1*%
X158444030Y-119817732D02*
X157871610Y-119716717D01*
X158039969Y-120221793D02*
X157332862Y-119514687D01*
X157602236Y-119245312D01*
X157703251Y-119211641D01*
X157770595Y-119211641D01*
X157871610Y-119245312D01*
X157972625Y-119346328D01*
X158006297Y-119447343D01*
X158006297Y-119514687D01*
X157972625Y-119615702D01*
X157703251Y-119885076D01*
X159117465Y-119144297D02*
X158713404Y-119548358D01*
X158915435Y-119346328D02*
X158208328Y-118639221D01*
X158242000Y-118807580D01*
X158242000Y-118942267D01*
X158208328Y-119043282D01*
%TO.C,C5*%
X159566671Y-121100405D02*
X159566671Y-121167748D01*
X159499327Y-121302435D01*
X159431984Y-121369779D01*
X159297296Y-121437122D01*
X159162609Y-121437122D01*
X159061594Y-121403451D01*
X158893235Y-121302435D01*
X158792220Y-121201420D01*
X158691205Y-121033061D01*
X158657533Y-120932046D01*
X158657533Y-120797359D01*
X158724877Y-120662672D01*
X158792220Y-120595328D01*
X158926907Y-120527985D01*
X158994251Y-120527985D01*
X159566671Y-119820878D02*
X159229953Y-120157596D01*
X159532999Y-120527985D01*
X159532999Y-120460641D01*
X159566671Y-120359626D01*
X159735029Y-120191267D01*
X159836045Y-120157596D01*
X159903388Y-120157596D01*
X160004403Y-120191267D01*
X160172762Y-120359626D01*
X160206434Y-120460641D01*
X160206434Y-120527985D01*
X160172762Y-120629000D01*
X160004403Y-120797359D01*
X159903388Y-120831031D01*
X159836045Y-120831031D01*
%TO.C,C4*%
X162155142Y-110402666D02*
X162202761Y-110450285D01*
X162250380Y-110593142D01*
X162250380Y-110688380D01*
X162202761Y-110831238D01*
X162107523Y-110926476D01*
X162012285Y-110974095D01*
X161821809Y-111021714D01*
X161678952Y-111021714D01*
X161488476Y-110974095D01*
X161393238Y-110926476D01*
X161298000Y-110831238D01*
X161250380Y-110688380D01*
X161250380Y-110593142D01*
X161298000Y-110450285D01*
X161345619Y-110402666D01*
X161583714Y-109545523D02*
X162250380Y-109545523D01*
X161202761Y-109783619D02*
X161917047Y-110021714D01*
X161917047Y-109402666D01*
%TO.C,C3*%
X170013333Y-108815142D02*
X169965714Y-108862761D01*
X169822857Y-108910380D01*
X169727619Y-108910380D01*
X169584761Y-108862761D01*
X169489523Y-108767523D01*
X169441904Y-108672285D01*
X169394285Y-108481809D01*
X169394285Y-108338952D01*
X169441904Y-108148476D01*
X169489523Y-108053238D01*
X169584761Y-107958000D01*
X169727619Y-107910380D01*
X169822857Y-107910380D01*
X169965714Y-107958000D01*
X170013333Y-108005619D01*
X170346666Y-107910380D02*
X170965714Y-107910380D01*
X170632380Y-108291333D01*
X170775238Y-108291333D01*
X170870476Y-108338952D01*
X170918095Y-108386571D01*
X170965714Y-108481809D01*
X170965714Y-108719904D01*
X170918095Y-108815142D01*
X170870476Y-108862761D01*
X170775238Y-108910380D01*
X170489523Y-108910380D01*
X170394285Y-108862761D01*
X170346666Y-108815142D01*
%TO.C,C2*%
X170013333Y-123293142D02*
X169965714Y-123340761D01*
X169822857Y-123388380D01*
X169727619Y-123388380D01*
X169584761Y-123340761D01*
X169489523Y-123245523D01*
X169441904Y-123150285D01*
X169394285Y-122959809D01*
X169394285Y-122816952D01*
X169441904Y-122626476D01*
X169489523Y-122531238D01*
X169584761Y-122436000D01*
X169727619Y-122388380D01*
X169822857Y-122388380D01*
X169965714Y-122436000D01*
X170013333Y-122483619D01*
X170394285Y-122483619D02*
X170441904Y-122436000D01*
X170537142Y-122388380D01*
X170775238Y-122388380D01*
X170870476Y-122436000D01*
X170918095Y-122483619D01*
X170965714Y-122578857D01*
X170965714Y-122674095D01*
X170918095Y-122816952D01*
X170346666Y-123388380D01*
X170965714Y-123388380D01*
%TO.C,C1*%
X162176642Y-121324666D02*
X162224261Y-121372285D01*
X162271880Y-121515142D01*
X162271880Y-121610380D01*
X162224261Y-121753238D01*
X162129023Y-121848476D01*
X162033785Y-121896095D01*
X161843309Y-121943714D01*
X161700452Y-121943714D01*
X161509976Y-121896095D01*
X161414738Y-121848476D01*
X161319500Y-121753238D01*
X161271880Y-121610380D01*
X161271880Y-121515142D01*
X161319500Y-121372285D01*
X161367119Y-121324666D01*
X162271880Y-120372285D02*
X162271880Y-120943714D01*
X162271880Y-120658000D02*
X161271880Y-120658000D01*
X161414738Y-120753238D01*
X161509976Y-120848476D01*
X161557595Y-120943714D01*
%TD*%
M02*
