G04 #@! TF.GenerationSoftware,KiCad,Pcbnew,(6.0.1)*
G04 #@! TF.CreationDate,2022-02-03T09:59:14-06:00*
G04 #@! TF.ProjectId,AD7156-Breakout,41443731-3536-42d4-9272-65616b6f7574,rev?*
G04 #@! TF.SameCoordinates,Original*
G04 #@! TF.FileFunction,Legend,Top*
G04 #@! TF.FilePolarity,Positive*
%FSLAX46Y46*%
G04 Gerber Fmt 4.6, Leading zero omitted, Abs format (unit mm)*
G04 Created by KiCad (PCBNEW (6.0.1)) date 2022-02-03 09:59:15*
%MOMM*%
%LPD*%
G01*
G04 APERTURE LIST*
%ADD10C,0.150000*%
%ADD11C,0.127000*%
%ADD12C,0.200000*%
%ADD13C,0.120000*%
G04 APERTURE END LIST*
D10*
X157194285Y-104322619D02*
X157241904Y-104275000D01*
X157337142Y-104227380D01*
X157575238Y-104227380D01*
X157670476Y-104275000D01*
X157718095Y-104322619D01*
X157765714Y-104417857D01*
X157765714Y-104513095D01*
X157718095Y-104655952D01*
X157146666Y-105227380D01*
X157765714Y-105227380D01*
X148891809Y-95972380D02*
X149082285Y-95972380D01*
X149177523Y-96020000D01*
X149272761Y-96115238D01*
X149320380Y-96305714D01*
X149320380Y-96639047D01*
X149272761Y-96829523D01*
X149177523Y-96924761D01*
X149082285Y-96972380D01*
X148891809Y-96972380D01*
X148796571Y-96924761D01*
X148701333Y-96829523D01*
X148653714Y-96639047D01*
X148653714Y-96305714D01*
X148701333Y-96115238D01*
X148796571Y-96020000D01*
X148891809Y-95972380D01*
X149748952Y-95972380D02*
X149748952Y-96781904D01*
X149796571Y-96877142D01*
X149844190Y-96924761D01*
X149939428Y-96972380D01*
X150129904Y-96972380D01*
X150225142Y-96924761D01*
X150272761Y-96877142D01*
X150320380Y-96781904D01*
X150320380Y-95972380D01*
X150653714Y-95972380D02*
X151225142Y-95972380D01*
X150939428Y-96972380D02*
X150939428Y-95972380D01*
X152082285Y-96972380D02*
X151510857Y-96972380D01*
X151796571Y-96972380D02*
X151796571Y-95972380D01*
X151701333Y-96115238D01*
X151606095Y-96210476D01*
X151510857Y-96258095D01*
X154090666Y-101194857D02*
X154090666Y-100718666D01*
X154376380Y-101290095D02*
X153376380Y-100956761D01*
X154376380Y-100623428D01*
X154376380Y-100290095D02*
X153376380Y-100290095D01*
X153376380Y-100052000D01*
X153424000Y-99909142D01*
X153519238Y-99813904D01*
X153614476Y-99766285D01*
X153804952Y-99718666D01*
X153947809Y-99718666D01*
X154138285Y-99766285D01*
X154233523Y-99813904D01*
X154328761Y-99909142D01*
X154376380Y-100052000D01*
X154376380Y-100290095D01*
X153376380Y-99385333D02*
X153376380Y-98718666D01*
X154376380Y-99147238D01*
X154376380Y-97813904D02*
X154376380Y-98385333D01*
X154376380Y-98099619D02*
X153376380Y-98099619D01*
X153519238Y-98194857D01*
X153614476Y-98290095D01*
X153662095Y-98385333D01*
X153376380Y-96909142D02*
X153376380Y-97385333D01*
X153852571Y-97432952D01*
X153804952Y-97385333D01*
X153757333Y-97290095D01*
X153757333Y-97052000D01*
X153804952Y-96956761D01*
X153852571Y-96909142D01*
X153947809Y-96861523D01*
X154185904Y-96861523D01*
X154281142Y-96909142D01*
X154328761Y-96956761D01*
X154376380Y-97052000D01*
X154376380Y-97290095D01*
X154328761Y-97385333D01*
X154281142Y-97432952D01*
X153376380Y-96004380D02*
X153376380Y-96194857D01*
X153424000Y-96290095D01*
X153471619Y-96337714D01*
X153614476Y-96432952D01*
X153804952Y-96480571D01*
X154185904Y-96480571D01*
X154281142Y-96432952D01*
X154328761Y-96385333D01*
X154376380Y-96290095D01*
X154376380Y-96099619D01*
X154328761Y-96004380D01*
X154281142Y-95956761D01*
X154185904Y-95909142D01*
X153947809Y-95909142D01*
X153852571Y-95956761D01*
X153804952Y-96004380D01*
X153757333Y-96099619D01*
X153757333Y-96290095D01*
X153804952Y-96385333D01*
X153852571Y-96432952D01*
X153947809Y-96480571D01*
X156194095Y-109624761D02*
X156098857Y-109672380D01*
X155908380Y-109672380D01*
X155813142Y-109624761D01*
X155765523Y-109577142D01*
X155717904Y-109481904D01*
X155717904Y-109196190D01*
X155765523Y-109100952D01*
X155813142Y-109053333D01*
X155908380Y-109005714D01*
X156098857Y-109005714D01*
X156194095Y-109053333D01*
X148669523Y-102004761D02*
X148812380Y-102052380D01*
X149050476Y-102052380D01*
X149145714Y-102004761D01*
X149193333Y-101957142D01*
X149240952Y-101861904D01*
X149240952Y-101766666D01*
X149193333Y-101671428D01*
X149145714Y-101623809D01*
X149050476Y-101576190D01*
X148860000Y-101528571D01*
X148764761Y-101480952D01*
X148717142Y-101433333D01*
X148669523Y-101338095D01*
X148669523Y-101242857D01*
X148717142Y-101147619D01*
X148764761Y-101100000D01*
X148860000Y-101052380D01*
X149098095Y-101052380D01*
X149240952Y-101100000D01*
X150240952Y-101957142D02*
X150193333Y-102004761D01*
X150050476Y-102052380D01*
X149955238Y-102052380D01*
X149812380Y-102004761D01*
X149717142Y-101909523D01*
X149669523Y-101814285D01*
X149621904Y-101623809D01*
X149621904Y-101480952D01*
X149669523Y-101290476D01*
X149717142Y-101195238D01*
X149812380Y-101100000D01*
X149955238Y-101052380D01*
X150050476Y-101052380D01*
X150193333Y-101100000D01*
X150240952Y-101147619D01*
X151145714Y-102052380D02*
X150669523Y-102052380D01*
X150669523Y-101052380D01*
X148645714Y-104544761D02*
X148788571Y-104592380D01*
X149026666Y-104592380D01*
X149121904Y-104544761D01*
X149169523Y-104497142D01*
X149217142Y-104401904D01*
X149217142Y-104306666D01*
X149169523Y-104211428D01*
X149121904Y-104163809D01*
X149026666Y-104116190D01*
X148836190Y-104068571D01*
X148740952Y-104020952D01*
X148693333Y-103973333D01*
X148645714Y-103878095D01*
X148645714Y-103782857D01*
X148693333Y-103687619D01*
X148740952Y-103640000D01*
X148836190Y-103592380D01*
X149074285Y-103592380D01*
X149217142Y-103640000D01*
X149645714Y-104592380D02*
X149645714Y-103592380D01*
X149883809Y-103592380D01*
X150026666Y-103640000D01*
X150121904Y-103735238D01*
X150169523Y-103830476D01*
X150217142Y-104020952D01*
X150217142Y-104163809D01*
X150169523Y-104354285D01*
X150121904Y-104449523D01*
X150026666Y-104544761D01*
X149883809Y-104592380D01*
X149645714Y-104592380D01*
X150598095Y-104306666D02*
X151074285Y-104306666D01*
X150502857Y-104592380D02*
X150836190Y-103592380D01*
X151169523Y-104592380D01*
X157765714Y-101417380D02*
X157194285Y-101417380D01*
X157480000Y-101417380D02*
X157480000Y-100417380D01*
X157384761Y-100560238D01*
X157289523Y-100655476D01*
X157194285Y-100703095D01*
X148891809Y-98512380D02*
X149082285Y-98512380D01*
X149177523Y-98560000D01*
X149272761Y-98655238D01*
X149320380Y-98845714D01*
X149320380Y-99179047D01*
X149272761Y-99369523D01*
X149177523Y-99464761D01*
X149082285Y-99512380D01*
X148891809Y-99512380D01*
X148796571Y-99464761D01*
X148701333Y-99369523D01*
X148653714Y-99179047D01*
X148653714Y-98845714D01*
X148701333Y-98655238D01*
X148796571Y-98560000D01*
X148891809Y-98512380D01*
X149748952Y-98512380D02*
X149748952Y-99321904D01*
X149796571Y-99417142D01*
X149844190Y-99464761D01*
X149939428Y-99512380D01*
X150129904Y-99512380D01*
X150225142Y-99464761D01*
X150272761Y-99417142D01*
X150320380Y-99321904D01*
X150320380Y-98512380D01*
X150653714Y-98512380D02*
X151225142Y-98512380D01*
X150939428Y-99512380D02*
X150939428Y-98512380D01*
X151510857Y-98607619D02*
X151558476Y-98560000D01*
X151653714Y-98512380D01*
X151891809Y-98512380D01*
X151987047Y-98560000D01*
X152034666Y-98607619D01*
X152082285Y-98702857D01*
X152082285Y-98798095D01*
X152034666Y-98940952D01*
X151463238Y-99512380D01*
X152082285Y-99512380D01*
X149098095Y-106180000D02*
X149002857Y-106132380D01*
X148860000Y-106132380D01*
X148717142Y-106180000D01*
X148621904Y-106275238D01*
X148574285Y-106370476D01*
X148526666Y-106560952D01*
X148526666Y-106703809D01*
X148574285Y-106894285D01*
X148621904Y-106989523D01*
X148717142Y-107084761D01*
X148860000Y-107132380D01*
X148955238Y-107132380D01*
X149098095Y-107084761D01*
X149145714Y-107037142D01*
X149145714Y-106703809D01*
X148955238Y-106703809D01*
X149574285Y-107132380D02*
X149574285Y-106132380D01*
X150145714Y-107132380D01*
X150145714Y-106132380D01*
X150621904Y-107132380D02*
X150621904Y-106132380D01*
X150860000Y-106132380D01*
X151002857Y-106180000D01*
X151098095Y-106275238D01*
X151145714Y-106370476D01*
X151193333Y-106560952D01*
X151193333Y-106703809D01*
X151145714Y-106894285D01*
X151098095Y-106989523D01*
X151002857Y-107084761D01*
X150860000Y-107132380D01*
X150621904Y-107132380D01*
X156146476Y-107592761D02*
X156051238Y-107640380D01*
X155860761Y-107640380D01*
X155765523Y-107592761D01*
X155717904Y-107497523D01*
X155717904Y-107116571D01*
X155765523Y-107021333D01*
X155860761Y-106973714D01*
X156051238Y-106973714D01*
X156146476Y-107021333D01*
X156194095Y-107116571D01*
X156194095Y-107211809D01*
X155717904Y-107307047D01*
X156146476Y-96924761D02*
X156051238Y-96972380D01*
X155860761Y-96972380D01*
X155765523Y-96924761D01*
X155717904Y-96829523D01*
X155717904Y-96448571D01*
X155765523Y-96353333D01*
X155860761Y-96305714D01*
X156051238Y-96305714D01*
X156146476Y-96353333D01*
X156194095Y-96448571D01*
X156194095Y-96543809D01*
X155717904Y-96639047D01*
X156194095Y-99464761D02*
X156098857Y-99512380D01*
X155908380Y-99512380D01*
X155813142Y-99464761D01*
X155765523Y-99417142D01*
X155717904Y-99321904D01*
X155717904Y-99036190D01*
X155765523Y-98940952D01*
X155813142Y-98893333D01*
X155908380Y-98845714D01*
X156098857Y-98845714D01*
X156194095Y-98893333D01*
X148621904Y-108672380D02*
X149240952Y-108672380D01*
X148907619Y-109053333D01*
X149050476Y-109053333D01*
X149145714Y-109100952D01*
X149193333Y-109148571D01*
X149240952Y-109243809D01*
X149240952Y-109481904D01*
X149193333Y-109577142D01*
X149145714Y-109624761D01*
X149050476Y-109672380D01*
X148764761Y-109672380D01*
X148669523Y-109624761D01*
X148621904Y-109577142D01*
X149526666Y-108672380D02*
X149860000Y-109672380D01*
X150193333Y-108672380D01*
X150431428Y-108672380D02*
X151050476Y-108672380D01*
X150717142Y-109053333D01*
X150860000Y-109053333D01*
X150955238Y-109100952D01*
X151002857Y-109148571D01*
X151050476Y-109243809D01*
X151050476Y-109481904D01*
X151002857Y-109577142D01*
X150955238Y-109624761D01*
X150860000Y-109672380D01*
X150574285Y-109672380D01*
X150479047Y-109624761D01*
X150431428Y-109577142D01*
G04 #@! TO.C,U1*
X155662380Y-103631904D02*
X156471904Y-103631904D01*
X156567142Y-103584285D01*
X156614761Y-103536666D01*
X156662380Y-103441428D01*
X156662380Y-103250952D01*
X156614761Y-103155714D01*
X156567142Y-103108095D01*
X156471904Y-103060476D01*
X155662380Y-103060476D01*
X156662380Y-102060476D02*
X156662380Y-102631904D01*
X156662380Y-102346190D02*
X155662380Y-102346190D01*
X155805238Y-102441428D01*
X155900476Y-102536666D01*
X155948095Y-102631904D01*
G04 #@! TO.C,C1*
X154027142Y-109132666D02*
X154074761Y-109180285D01*
X154122380Y-109323142D01*
X154122380Y-109418380D01*
X154074761Y-109561238D01*
X153979523Y-109656476D01*
X153884285Y-109704095D01*
X153693809Y-109751714D01*
X153550952Y-109751714D01*
X153360476Y-109704095D01*
X153265238Y-109656476D01*
X153170000Y-109561238D01*
X153122380Y-109418380D01*
X153122380Y-109323142D01*
X153170000Y-109180285D01*
X153217619Y-109132666D01*
X154122380Y-108180285D02*
X154122380Y-108751714D01*
X154122380Y-108466000D02*
X153122380Y-108466000D01*
X153265238Y-108561238D01*
X153360476Y-108656476D01*
X153408095Y-108751714D01*
D11*
G04 #@! TO.C,U1*
X152120000Y-105690000D02*
X152120000Y-102590000D01*
X155220000Y-105690000D02*
X155220000Y-102590000D01*
D12*
X152770000Y-106585000D02*
G75*
G03*
X152770000Y-106585000I-100000J0D01*
G01*
D13*
G04 #@! TO.C,C1*
X151636000Y-108611580D02*
X151636000Y-108330420D01*
X152656000Y-108611580D02*
X152656000Y-108330420D01*
G04 #@! TD*
M02*
