%TF.GenerationSoftware,KiCad,Pcbnew,(6.0.1)*%
%TF.CreationDate,2022-02-02T16:18:27-06:00*%
%TF.ProjectId,AD7156-Breakout,41443731-3536-42d4-9272-65616b6f7574,rev?*%
%TF.SameCoordinates,Original*%
%TF.FileFunction,Copper,L1,Top*%
%TF.FilePolarity,Positive*%
%FSLAX46Y46*%
G04 Gerber Fmt 4.6, Leading zero omitted, Abs format (unit mm)*
G04 Created by KiCad (PCBNEW (6.0.1)) date 2022-02-02 16:18:27*
%MOMM*%
%LPD*%
G01*
G04 APERTURE LIST*
G04 Aperture macros list*
%AMRoundRect*
0 Rectangle with rounded corners*
0 $1 Rounding radius*
0 $2 $3 $4 $5 $6 $7 $8 $9 X,Y pos of 4 corners*
0 Add a 4 corners polygon primitive as box body*
4,1,4,$2,$3,$4,$5,$6,$7,$8,$9,$2,$3,0*
0 Add four circle primitives for the rounded corners*
1,1,$1+$1,$2,$3*
1,1,$1+$1,$4,$5*
1,1,$1+$1,$6,$7*
1,1,$1+$1,$8,$9*
0 Add four rect primitives between the rounded corners*
20,1,$1+$1,$2,$3,$4,$5,0*
20,1,$1+$1,$4,$5,$6,$7,0*
20,1,$1+$1,$6,$7,$8,$9,0*
20,1,$1+$1,$8,$9,$2,$3,0*%
G04 Aperture macros list end*
%TA.AperFunction,ComponentPad*%
%ADD10O,1.700000X1.700000*%
%TD*%
%TA.AperFunction,ComponentPad*%
%ADD11R,1.700000X1.700000*%
%TD*%
%TA.AperFunction,SMDPad,CuDef*%
%ADD12R,2.300000X1.500000*%
%TD*%
%TA.AperFunction,SMDPad,CuDef*%
%ADD13R,0.270000X0.760000*%
%TD*%
%TA.AperFunction,SMDPad,CuDef*%
%ADD14RoundRect,0.225000X0.250000X-0.225000X0.250000X0.225000X-0.250000X0.225000X-0.250000X-0.225000X0*%
%TD*%
%TA.AperFunction,ViaPad*%
%ADD15C,0.800000*%
%TD*%
%TA.AperFunction,Conductor*%
%ADD16C,0.250000*%
%TD*%
G04 APERTURE END LIST*
D10*
%TO.P,J2,2*%
%TO.N,EXC1*%
X157480000Y-96520000D03*
D11*
%TO.P,J2,1*%
%TO.N,CIN1*%
X157480000Y-99060000D03*
%TD*%
D10*
%TO.P,J3,2*%
%TO.N,EXC2*%
X157480000Y-106680000D03*
D11*
%TO.P,J3,1*%
%TO.N,CIN2*%
X157480000Y-109220000D03*
%TD*%
D10*
%TO.P,J1,6*%
%TO.N,OUT1*%
X147320000Y-96520000D03*
%TO.P,J1,5*%
%TO.N,OUT2*%
X147320000Y-99060000D03*
%TO.P,J1,4*%
%TO.N,SCL*%
X147320000Y-101600000D03*
%TO.P,J1,3*%
%TO.N,SDA*%
X147320000Y-104140000D03*
%TO.P,J1,2*%
%TO.N,GND*%
X147320000Y-106680000D03*
D11*
%TO.P,J1,1*%
%TO.N,+3V3*%
X147320000Y-109220000D03*
%TD*%
D12*
%TO.P,U1,11*%
%TO.N,GND*%
X153670000Y-104140000D03*
D13*
%TO.P,U1,10*%
%TO.N,SDA*%
X152670000Y-102655000D03*
%TO.P,U1,9*%
%TO.N,SCL*%
X153170000Y-102655000D03*
%TO.P,U1,8*%
%TO.N,OUT2*%
X153670000Y-102655000D03*
%TO.P,U1,7*%
%TO.N,OUT1*%
X154170000Y-102655000D03*
%TO.P,U1,6*%
%TO.N,EXC1*%
X154670000Y-102655000D03*
%TO.P,U1,5*%
%TO.N,EXC2*%
X154670000Y-105625000D03*
%TO.P,U1,4*%
%TO.N,CIN1*%
X154170000Y-105625000D03*
%TO.P,U1,3*%
%TO.N,CIN2*%
X153670000Y-105625000D03*
%TO.P,U1,2*%
%TO.N,+3V3*%
X153170000Y-105625000D03*
%TO.P,U1,1*%
%TO.N,GND*%
X152670000Y-105625000D03*
%TD*%
D14*
%TO.P,C1,2*%
%TO.N,GND*%
X152146000Y-107696000D03*
%TO.P,C1,1*%
%TO.N,+3V3*%
X152146000Y-109246000D03*
%TD*%
D15*
%TO.N,EXC2*%
X155194000Y-105664000D03*
%TD*%
D16*
%TO.N,OUT1*%
X154170000Y-101592000D02*
X149098000Y-96520000D01*
X149098000Y-96520000D02*
X147320000Y-96520000D01*
X154170000Y-102655000D02*
X154170000Y-101592000D01*
%TO.N,GND*%
X152670000Y-105625000D02*
X152670000Y-105140000D01*
X153670000Y-104140000D02*
X152908000Y-104140000D01*
X152670000Y-104378000D02*
X152670000Y-105140000D01*
X152908000Y-104140000D02*
X152670000Y-104378000D01*
X152670000Y-105394000D02*
X152439000Y-105625000D01*
X152670000Y-105140000D02*
X152670000Y-105394000D01*
X152439000Y-105625000D02*
X151931000Y-105625000D01*
X152670000Y-105625000D02*
X152439000Y-105625000D01*
X153670000Y-104140000D02*
X151638000Y-104140000D01*
X152670000Y-106045437D02*
X152146000Y-106569437D01*
X152670000Y-105625000D02*
X152670000Y-106045437D01*
X147320000Y-106680000D02*
X147320000Y-106172000D01*
X147320000Y-106172000D02*
X148082000Y-105410000D01*
X147320000Y-106680000D02*
X147320000Y-107188000D01*
X147320000Y-107188000D02*
X147828000Y-107696000D01*
X147828000Y-107696000D02*
X148336000Y-107696000D01*
%TO.N,+3V3*%
X152120000Y-109220000D02*
X152146000Y-109246000D01*
X147320000Y-109220000D02*
X152120000Y-109220000D01*
X152146000Y-109246000D02*
X152146000Y-109220000D01*
X153170000Y-108222000D02*
X152794000Y-108598000D01*
X153170000Y-105625000D02*
X153170000Y-108222000D01*
X152146000Y-109246000D02*
X152794000Y-108598000D01*
%TO.N,SDA*%
X152670000Y-102655000D02*
X150583000Y-102655000D01*
X149098000Y-104140000D02*
X147320000Y-104140000D01*
X150583000Y-102655000D02*
X149098000Y-104140000D01*
%TO.N,SCL*%
X152745000Y-101600000D02*
X147320000Y-101600000D01*
X153170000Y-102025000D02*
X152745000Y-101600000D01*
X153170000Y-102655000D02*
X153170000Y-102025000D01*
%TO.N,OUT2*%
X151001590Y-99060000D02*
X150368000Y-99060000D01*
X153670000Y-101728410D02*
X151001590Y-99060000D01*
X153670000Y-102655000D02*
X153670000Y-101728410D01*
X150368000Y-99060000D02*
X147320000Y-99060000D01*
%TO.N,EXC1*%
X154670000Y-99330000D02*
X157480000Y-96520000D01*
X154670000Y-102655000D02*
X154670000Y-99330000D01*
%TO.N,CIN1*%
X154170000Y-105625000D02*
X154170000Y-106164000D01*
X154170000Y-106164000D02*
X154686000Y-106680000D01*
X157480000Y-104451002D02*
X157480000Y-99060000D01*
X155251002Y-106680000D02*
X157480000Y-104451002D01*
X154686000Y-106680000D02*
X155251002Y-106680000D01*
%TO.N,EXC2*%
X155155000Y-105625000D02*
X155194000Y-105664000D01*
X154670000Y-105625000D02*
X155155000Y-105625000D01*
%TO.N,CIN2*%
X153670000Y-105625000D02*
X153670000Y-106300410D01*
X157480000Y-109220000D02*
X155702000Y-109220000D01*
X153670000Y-107188000D02*
X153670000Y-105625000D01*
X155702000Y-109220000D02*
X153670000Y-107188000D01*
%TD*%
%TA.AperFunction,Conductor*%
%TO.N,GND*%
G36*
X151954121Y-103308502D02*
G01*
X152000614Y-103362158D01*
X152012000Y-103414500D01*
X152012000Y-103867885D01*
X152016475Y-103883124D01*
X152017865Y-103884329D01*
X152025548Y-103886000D01*
X152654000Y-103886000D01*
X152654000Y-104394000D01*
X152030116Y-104394000D01*
X152014877Y-104398475D01*
X152013672Y-104399865D01*
X152012001Y-104407548D01*
X152012001Y-104934669D01*
X152012371Y-104941490D01*
X152017895Y-104992352D01*
X152021521Y-105007603D01*
X152034894Y-105043276D01*
X152040077Y-105114083D01*
X152038020Y-105121089D01*
X152032895Y-105142643D01*
X152027369Y-105193514D01*
X152027000Y-105200328D01*
X152027000Y-105471885D01*
X152031475Y-105487124D01*
X152032865Y-105488329D01*
X152040548Y-105490000D01*
X152244000Y-105490000D01*
X152289000Y-105760000D01*
X152045116Y-105760000D01*
X152029877Y-105764475D01*
X152028672Y-105765865D01*
X152027001Y-105773548D01*
X152027001Y-106049669D01*
X152027371Y-106056490D01*
X152032895Y-106107352D01*
X152036521Y-106122604D01*
X152081676Y-106243054D01*
X152090214Y-106258649D01*
X152166715Y-106360724D01*
X152179276Y-106373285D01*
X152281356Y-106449790D01*
X152296938Y-106458320D01*
X152318231Y-106466303D01*
X152374995Y-106508946D01*
X152399694Y-106575507D01*
X152400000Y-106584285D01*
X152400000Y-107824000D01*
X152379998Y-107892121D01*
X152326342Y-107938614D01*
X152274000Y-107950000D01*
X148499531Y-107950000D01*
X148431410Y-107929998D01*
X148423967Y-107924827D01*
X148423887Y-107924767D01*
X148423884Y-107924765D01*
X148416705Y-107919385D01*
X148297687Y-107874767D01*
X148240923Y-107832125D01*
X148216223Y-107765564D01*
X148231430Y-107696215D01*
X148252977Y-107667535D01*
X148354052Y-107566812D01*
X148360730Y-107558965D01*
X148457621Y-107424126D01*
X151163071Y-107424126D01*
X151167475Y-107439124D01*
X151168865Y-107440329D01*
X151176548Y-107442000D01*
X151873885Y-107442000D01*
X151889124Y-107437525D01*
X151890329Y-107436135D01*
X151892000Y-107428452D01*
X151892000Y-106756115D01*
X151887525Y-106740876D01*
X151886135Y-106739671D01*
X151878452Y-106738000D01*
X151850562Y-106738000D01*
X151844047Y-106738337D01*
X151751943Y-106747894D01*
X151738544Y-106750788D01*
X151589893Y-106800381D01*
X151576714Y-106806555D01*
X151443827Y-106888788D01*
X151432426Y-106897824D01*
X151322014Y-107008429D01*
X151313002Y-107019840D01*
X151230996Y-107152880D01*
X151224849Y-107166061D01*
X151175509Y-107314814D01*
X151172642Y-107328190D01*
X151163328Y-107419097D01*
X151163071Y-107424126D01*
X148457621Y-107424126D01*
X148485003Y-107386020D01*
X148490313Y-107377183D01*
X148584670Y-107186267D01*
X148588469Y-107176672D01*
X148650377Y-106972910D01*
X148652555Y-106962837D01*
X148653986Y-106951962D01*
X148651775Y-106937778D01*
X148638617Y-106934000D01*
X147320000Y-106934000D01*
X147320000Y-106426000D01*
X148638344Y-106426000D01*
X148651875Y-106422027D01*
X148653180Y-106412947D01*
X148611214Y-106245875D01*
X148607894Y-106236124D01*
X148522972Y-106040814D01*
X148518105Y-106031739D01*
X148402426Y-105852926D01*
X148396136Y-105844757D01*
X148252806Y-105687240D01*
X148245273Y-105680215D01*
X148078139Y-105548222D01*
X148069556Y-105542520D01*
X148032602Y-105522120D01*
X147982631Y-105471687D01*
X147967859Y-105402245D01*
X147992975Y-105335839D01*
X148020327Y-105309232D01*
X148043797Y-105292491D01*
X148199860Y-105181173D01*
X148358096Y-105023489D01*
X148488453Y-104842077D01*
X148490746Y-104837437D01*
X148492446Y-104834608D01*
X148544674Y-104786518D01*
X148600451Y-104773500D01*
X149019233Y-104773500D01*
X149030416Y-104774027D01*
X149037909Y-104775702D01*
X149045835Y-104775453D01*
X149045836Y-104775453D01*
X149105986Y-104773562D01*
X149109945Y-104773500D01*
X149137856Y-104773500D01*
X149141791Y-104773003D01*
X149141856Y-104772995D01*
X149153693Y-104772062D01*
X149185951Y-104771048D01*
X149189970Y-104770922D01*
X149197889Y-104770673D01*
X149217343Y-104765021D01*
X149236700Y-104761013D01*
X149248930Y-104759468D01*
X149248931Y-104759468D01*
X149256797Y-104758474D01*
X149264168Y-104755555D01*
X149264170Y-104755555D01*
X149297912Y-104742196D01*
X149309142Y-104738351D01*
X149343983Y-104728229D01*
X149343984Y-104728229D01*
X149351593Y-104726018D01*
X149358412Y-104721985D01*
X149358417Y-104721983D01*
X149369028Y-104715707D01*
X149386776Y-104707012D01*
X149405617Y-104699552D01*
X149441387Y-104673564D01*
X149451307Y-104667048D01*
X149482535Y-104648580D01*
X149482538Y-104648578D01*
X149489362Y-104644542D01*
X149503683Y-104630221D01*
X149518717Y-104617380D01*
X149528694Y-104610131D01*
X149535107Y-104605472D01*
X149563298Y-104571395D01*
X149571288Y-104562616D01*
X150808499Y-103325405D01*
X150870811Y-103291379D01*
X150897594Y-103288500D01*
X151886000Y-103288500D01*
X151954121Y-103308502D01*
G37*
%TD.AperFunction*%
%TD*%
M02*
