%TF.GenerationSoftware,KiCad,Pcbnew,(5.1.10)-1*%
%TF.CreationDate,2021-07-28T11:58:58-05:00*%
%TF.ProjectId,AD7156-Breakout,41443731-3536-42d4-9272-65616b6f7574,rev?*%
%TF.SameCoordinates,Original*%
%TF.FileFunction,Copper,L1,Top*%
%TF.FilePolarity,Positive*%
%FSLAX46Y46*%
G04 Gerber Fmt 4.6, Leading zero omitted, Abs format (unit mm)*
G04 Created by KiCad (PCBNEW (5.1.10)-1) date 2021-07-28 11:58:58*
%MOMM*%
%LPD*%
G01*
G04 APERTURE LIST*
%TA.AperFunction,ComponentPad*%
%ADD10O,1.700000X1.700000*%
%TD*%
%TA.AperFunction,ComponentPad*%
%ADD11R,1.700000X1.700000*%
%TD*%
%TA.AperFunction,SMDPad,CuDef*%
%ADD12R,2.300000X1.500000*%
%TD*%
%TA.AperFunction,SMDPad,CuDef*%
%ADD13R,0.270000X0.760000*%
%TD*%
%TA.AperFunction,ViaPad*%
%ADD14C,0.800000*%
%TD*%
%TA.AperFunction,Conductor*%
%ADD15C,0.250000*%
%TD*%
%TA.AperFunction,Conductor*%
%ADD16C,0.254000*%
%TD*%
%TA.AperFunction,Conductor*%
%ADD17C,0.100000*%
%TD*%
G04 APERTURE END LIST*
D10*
%TO.P,J2,2*%
%TO.N,EXC1*%
X157480000Y-96520000D03*
D11*
%TO.P,J2,1*%
%TO.N,CIN1*%
X157480000Y-99060000D03*
%TD*%
D10*
%TO.P,J3,2*%
%TO.N,EXC2*%
X157480000Y-106680000D03*
D11*
%TO.P,J3,1*%
%TO.N,CIN2*%
X157480000Y-109220000D03*
%TD*%
D10*
%TO.P,J1,6*%
%TO.N,OUT1*%
X147320000Y-96520000D03*
%TO.P,J1,5*%
%TO.N,OUT2*%
X147320000Y-99060000D03*
%TO.P,J1,4*%
%TO.N,SCL*%
X147320000Y-101600000D03*
%TO.P,J1,3*%
%TO.N,SDA*%
X147320000Y-104140000D03*
%TO.P,J1,2*%
%TO.N,GND*%
X147320000Y-106680000D03*
D11*
%TO.P,J1,1*%
%TO.N,+3V3*%
X147320000Y-109220000D03*
%TD*%
D12*
%TO.P,U1,11*%
%TO.N,GND*%
X153670000Y-104140000D03*
D13*
%TO.P,U1,10*%
%TO.N,SDA*%
X152670000Y-102655000D03*
%TO.P,U1,9*%
%TO.N,SCL*%
X153170000Y-102655000D03*
%TO.P,U1,8*%
%TO.N,OUT2*%
X153670000Y-102655000D03*
%TO.P,U1,7*%
%TO.N,OUT1*%
X154170000Y-102655000D03*
%TO.P,U1,6*%
%TO.N,EXC1*%
X154670000Y-102655000D03*
%TO.P,U1,5*%
%TO.N,EXC2*%
X154670000Y-105625000D03*
%TO.P,U1,4*%
%TO.N,CIN1*%
X154170000Y-105625000D03*
%TO.P,U1,3*%
%TO.N,CIN2*%
X153670000Y-105625000D03*
%TO.P,U1,2*%
%TO.N,+3V3*%
X153170000Y-105625000D03*
%TO.P,U1,1*%
%TO.N,GND*%
X152670000Y-105625000D03*
%TD*%
%TO.P,C1,2*%
%TO.N,GND*%
%TA.AperFunction,SMDPad,CuDef*%
G36*
G01*
X152396000Y-108146000D02*
X151896000Y-108146000D01*
G75*
G02*
X151671000Y-107921000I0J225000D01*
G01*
X151671000Y-107471000D01*
G75*
G02*
X151896000Y-107246000I225000J0D01*
G01*
X152396000Y-107246000D01*
G75*
G02*
X152621000Y-107471000I0J-225000D01*
G01*
X152621000Y-107921000D01*
G75*
G02*
X152396000Y-108146000I-225000J0D01*
G01*
G37*
%TD.AperFunction*%
%TO.P,C1,1*%
%TO.N,+3V3*%
%TA.AperFunction,SMDPad,CuDef*%
G36*
G01*
X152396000Y-109696000D02*
X151896000Y-109696000D01*
G75*
G02*
X151671000Y-109471000I0J225000D01*
G01*
X151671000Y-109021000D01*
G75*
G02*
X151896000Y-108796000I225000J0D01*
G01*
X152396000Y-108796000D01*
G75*
G02*
X152621000Y-109021000I0J-225000D01*
G01*
X152621000Y-109471000D01*
G75*
G02*
X152396000Y-109696000I-225000J0D01*
G01*
G37*
%TD.AperFunction*%
%TD*%
D14*
%TO.N,EXC2*%
X155194000Y-105664000D03*
%TD*%
D15*
%TO.N,GND*%
X152670000Y-105625000D02*
X152670000Y-105140000D01*
X153670000Y-104140000D02*
X152908000Y-104140000D01*
X152670000Y-104378000D02*
X152670000Y-105140000D01*
X152908000Y-104140000D02*
X152670000Y-104378000D01*
X152670000Y-105394000D02*
X152439000Y-105625000D01*
X152670000Y-105140000D02*
X152670000Y-105394000D01*
X152439000Y-105625000D02*
X151931000Y-105625000D01*
X152670000Y-105625000D02*
X152439000Y-105625000D01*
X153670000Y-104140000D02*
X151638000Y-104140000D01*
X152670000Y-106045437D02*
X152146000Y-106569437D01*
X152670000Y-105625000D02*
X152670000Y-106045437D01*
X147320000Y-106680000D02*
X147320000Y-106172000D01*
X147320000Y-106172000D02*
X148082000Y-105410000D01*
X147320000Y-106680000D02*
X147320000Y-107188000D01*
X147320000Y-107188000D02*
X147828000Y-107696000D01*
X147828000Y-107696000D02*
X148336000Y-107696000D01*
%TO.N,+3V3*%
X152120000Y-109220000D02*
X152146000Y-109246000D01*
X147320000Y-109220000D02*
X152120000Y-109220000D01*
X152146000Y-109246000D02*
X152146000Y-109220000D01*
X153170000Y-108222000D02*
X152794000Y-108598000D01*
X153170000Y-105625000D02*
X153170000Y-108222000D01*
X152146000Y-109246000D02*
X152794000Y-108598000D01*
%TO.N,SDA*%
X152670000Y-102655000D02*
X150583000Y-102655000D01*
X149098000Y-104140000D02*
X147320000Y-104140000D01*
X150583000Y-102655000D02*
X149098000Y-104140000D01*
%TO.N,SCL*%
X152745000Y-101600000D02*
X147320000Y-101600000D01*
X153170000Y-102025000D02*
X152745000Y-101600000D01*
X153170000Y-102655000D02*
X153170000Y-102025000D01*
%TO.N,OUT2*%
X151001590Y-99060000D02*
X150368000Y-99060000D01*
X153670000Y-101728410D02*
X151001590Y-99060000D01*
X153670000Y-102655000D02*
X153670000Y-101728410D01*
X150368000Y-99060000D02*
X147320000Y-99060000D01*
%TO.N,OUT1*%
X149860000Y-96520000D02*
X147320000Y-96520000D01*
X153199500Y-99859500D02*
X149860000Y-96520000D01*
X154170000Y-101592000D02*
X153199500Y-100621500D01*
X154170000Y-102655000D02*
X154170000Y-101592000D01*
X153199500Y-100621500D02*
X153199500Y-99859500D01*
%TO.N,EXC1*%
X154670000Y-99330000D02*
X157480000Y-96520000D01*
X154670000Y-102655000D02*
X154670000Y-99330000D01*
%TO.N,CIN1*%
X154170000Y-105625000D02*
X154170000Y-106164000D01*
X154170000Y-106164000D02*
X154686000Y-106680000D01*
X157480000Y-104451002D02*
X157480000Y-99060000D01*
X155251002Y-106680000D02*
X157480000Y-104451002D01*
X154686000Y-106680000D02*
X155251002Y-106680000D01*
%TO.N,EXC2*%
X155155000Y-105625000D02*
X155194000Y-105664000D01*
X154670000Y-105625000D02*
X155155000Y-105625000D01*
%TO.N,CIN2*%
X153670000Y-105625000D02*
X153670000Y-106300410D01*
X157480000Y-109220000D02*
X155702000Y-109220000D01*
X153670000Y-107188000D02*
X153670000Y-105625000D01*
X155702000Y-109220000D02*
X153670000Y-107188000D01*
%TD*%
D16*
%TO.N,GND*%
X151885000Y-103854250D02*
X152043750Y-104013000D01*
X152527000Y-104013000D01*
X152527000Y-104267000D01*
X152043750Y-104267000D01*
X151885000Y-104425750D01*
X151881928Y-104890000D01*
X151894188Y-105014482D01*
X151918088Y-105093270D01*
X151906518Y-105134790D01*
X151897093Y-105259519D01*
X151900000Y-105339250D01*
X152058750Y-105498000D01*
X152116581Y-105498000D01*
X152158915Y-105752000D01*
X152058750Y-105752000D01*
X151900000Y-105910750D01*
X151897093Y-105990481D01*
X151906518Y-106115210D01*
X151940095Y-106235703D01*
X151996534Y-106347330D01*
X152073666Y-106445802D01*
X152168526Y-106527334D01*
X152273000Y-106586271D01*
X152273000Y-107823000D01*
X148493694Y-107823000D01*
X148414180Y-107780498D01*
X148333534Y-107756034D01*
X148417588Y-107680269D01*
X148591641Y-107446920D01*
X148687340Y-107246000D01*
X151032928Y-107246000D01*
X151036000Y-107410250D01*
X151194750Y-107569000D01*
X152019000Y-107569000D01*
X152019000Y-106769750D01*
X151860250Y-106611000D01*
X151671000Y-106607928D01*
X151546518Y-106620188D01*
X151426820Y-106656498D01*
X151316506Y-106715463D01*
X151219815Y-106794815D01*
X151140463Y-106891506D01*
X151081498Y-107001820D01*
X151045188Y-107121518D01*
X151032928Y-107246000D01*
X148687340Y-107246000D01*
X148716825Y-107184099D01*
X148761476Y-107036890D01*
X148640155Y-106807000D01*
X147447000Y-106807000D01*
X147447000Y-106553000D01*
X148640155Y-106553000D01*
X148761476Y-106323110D01*
X148716825Y-106175901D01*
X148591641Y-105913080D01*
X148417588Y-105679731D01*
X148201355Y-105484822D01*
X148084466Y-105415195D01*
X148266632Y-105293475D01*
X148473475Y-105086632D01*
X148598178Y-104900000D01*
X149060678Y-104900000D01*
X149098000Y-104903676D01*
X149135322Y-104900000D01*
X149135333Y-104900000D01*
X149246986Y-104889003D01*
X149390247Y-104845546D01*
X149522276Y-104774974D01*
X149638001Y-104680001D01*
X149661804Y-104650997D01*
X150897802Y-103415000D01*
X151882093Y-103415000D01*
X151885000Y-103854250D01*
%TA.AperFunction,Conductor*%
D17*
G36*
X151885000Y-103854250D02*
G01*
X152043750Y-104013000D01*
X152527000Y-104013000D01*
X152527000Y-104267000D01*
X152043750Y-104267000D01*
X151885000Y-104425750D01*
X151881928Y-104890000D01*
X151894188Y-105014482D01*
X151918088Y-105093270D01*
X151906518Y-105134790D01*
X151897093Y-105259519D01*
X151900000Y-105339250D01*
X152058750Y-105498000D01*
X152116581Y-105498000D01*
X152158915Y-105752000D01*
X152058750Y-105752000D01*
X151900000Y-105910750D01*
X151897093Y-105990481D01*
X151906518Y-106115210D01*
X151940095Y-106235703D01*
X151996534Y-106347330D01*
X152073666Y-106445802D01*
X152168526Y-106527334D01*
X152273000Y-106586271D01*
X152273000Y-107823000D01*
X148493694Y-107823000D01*
X148414180Y-107780498D01*
X148333534Y-107756034D01*
X148417588Y-107680269D01*
X148591641Y-107446920D01*
X148687340Y-107246000D01*
X151032928Y-107246000D01*
X151036000Y-107410250D01*
X151194750Y-107569000D01*
X152019000Y-107569000D01*
X152019000Y-106769750D01*
X151860250Y-106611000D01*
X151671000Y-106607928D01*
X151546518Y-106620188D01*
X151426820Y-106656498D01*
X151316506Y-106715463D01*
X151219815Y-106794815D01*
X151140463Y-106891506D01*
X151081498Y-107001820D01*
X151045188Y-107121518D01*
X151032928Y-107246000D01*
X148687340Y-107246000D01*
X148716825Y-107184099D01*
X148761476Y-107036890D01*
X148640155Y-106807000D01*
X147447000Y-106807000D01*
X147447000Y-106553000D01*
X148640155Y-106553000D01*
X148761476Y-106323110D01*
X148716825Y-106175901D01*
X148591641Y-105913080D01*
X148417588Y-105679731D01*
X148201355Y-105484822D01*
X148084466Y-105415195D01*
X148266632Y-105293475D01*
X148473475Y-105086632D01*
X148598178Y-104900000D01*
X149060678Y-104900000D01*
X149098000Y-104903676D01*
X149135322Y-104900000D01*
X149135333Y-104900000D01*
X149246986Y-104889003D01*
X149390247Y-104845546D01*
X149522276Y-104774974D01*
X149638001Y-104680001D01*
X149661804Y-104650997D01*
X150897802Y-103415000D01*
X151882093Y-103415000D01*
X151885000Y-103854250D01*
G37*
%TD.AperFunction*%
%TD*%
M02*
