%TF.GenerationSoftware,KiCad,Pcbnew,(5.1.10)-1*%
%TF.CreationDate,2021-07-26T16:24:52-05:00*%
%TF.ProjectId,DAC7678_16TSSOP,44414337-3637-4385-9f31-365453534f50,rev?*%
%TF.SameCoordinates,Original*%
%TF.FileFunction,Legend,Top*%
%TF.FilePolarity,Positive*%
%FSLAX46Y46*%
G04 Gerber Fmt 4.6, Leading zero omitted, Abs format (unit mm)*
G04 Created by KiCad (PCBNEW (5.1.10)-1) date 2021-07-26 16:24:52*
%MOMM*%
%LPD*%
G01*
G04 APERTURE LIST*
%ADD10C,0.120000*%
%ADD11C,0.140000*%
%ADD12C,0.130000*%
%ADD13C,0.150000*%
%ADD14C,0.127000*%
%ADD15C,0.200000*%
G04 APERTURE END LIST*
D10*
X135890000Y-95758000D02*
X133350000Y-97536000D01*
X134620000Y-97790000D02*
X135890000Y-95758000D01*
X133350000Y-95758000D02*
X134620000Y-97790000D01*
X135890000Y-97536000D02*
X133350000Y-95758000D01*
X134620000Y-95504000D02*
X135890000Y-97536000D01*
X133350000Y-97536000D02*
X134620000Y-95504000D01*
X138430000Y-98552000D02*
X138176000Y-98806000D01*
X138430000Y-98552000D02*
X138176000Y-98298000D01*
X137668000Y-98552000D02*
X138430000Y-98552000D01*
X137668000Y-97536000D02*
X137668000Y-98552000D01*
X129794000Y-93980000D02*
X129540000Y-93726000D01*
X130302000Y-93980000D02*
X129794000Y-93980000D01*
X129286000Y-93472000D02*
X129540000Y-93472000D01*
X129286000Y-93472000D02*
X129286000Y-93726000D01*
X129540000Y-93726000D02*
X129286000Y-93472000D01*
D11*
X137147761Y-97049142D02*
X137147761Y-96868190D01*
X137193000Y-96777714D01*
X137283476Y-96687238D01*
X137464428Y-96642000D01*
X137781095Y-96642000D01*
X137962047Y-96687238D01*
X138052523Y-96777714D01*
X138097761Y-96868190D01*
X138097761Y-97049142D01*
X138052523Y-97139619D01*
X137962047Y-97230095D01*
X137781095Y-97275333D01*
X137464428Y-97275333D01*
X137283476Y-97230095D01*
X137193000Y-97139619D01*
X137147761Y-97049142D01*
X137464428Y-95827714D02*
X138097761Y-95827714D01*
X137464428Y-96234857D02*
X137962047Y-96234857D01*
X138052523Y-96189619D01*
X138097761Y-96099142D01*
X138097761Y-95963428D01*
X138052523Y-95872952D01*
X138007285Y-95827714D01*
X137464428Y-95511047D02*
X137464428Y-95149142D01*
X137147761Y-95375333D02*
X137962047Y-95375333D01*
X138052523Y-95330095D01*
X138097761Y-95239619D01*
X138097761Y-95149142D01*
X137464428Y-94832476D02*
X138414428Y-94832476D01*
X137509666Y-94832476D02*
X137464428Y-94742000D01*
X137464428Y-94561047D01*
X137509666Y-94470571D01*
X137554904Y-94425333D01*
X137645380Y-94380095D01*
X137916809Y-94380095D01*
X138007285Y-94425333D01*
X138052523Y-94470571D01*
X138097761Y-94561047D01*
X138097761Y-94742000D01*
X138052523Y-94832476D01*
X137464428Y-93565809D02*
X138097761Y-93565809D01*
X137464428Y-93972952D02*
X137962047Y-93972952D01*
X138052523Y-93927714D01*
X138097761Y-93837238D01*
X138097761Y-93701523D01*
X138052523Y-93611047D01*
X138007285Y-93565809D01*
X137464428Y-93249142D02*
X137464428Y-92887238D01*
X137147761Y-93113428D02*
X137962047Y-93113428D01*
X138052523Y-93068190D01*
X138097761Y-92977714D01*
X138097761Y-92887238D01*
X138052523Y-92615809D02*
X138097761Y-92525333D01*
X138097761Y-92344380D01*
X138052523Y-92253904D01*
X137962047Y-92208666D01*
X137916809Y-92208666D01*
X137826333Y-92253904D01*
X137781095Y-92344380D01*
X137781095Y-92480095D01*
X137735857Y-92570571D01*
X137645380Y-92615809D01*
X137600142Y-92615809D01*
X137509666Y-92570571D01*
X137464428Y-92480095D01*
X137464428Y-92344380D01*
X137509666Y-92253904D01*
X131679523Y-79911261D02*
X131679523Y-78961261D01*
X131905714Y-78961261D01*
X132041428Y-79006500D01*
X132131904Y-79096976D01*
X132177142Y-79187452D01*
X132222380Y-79368404D01*
X132222380Y-79504119D01*
X132177142Y-79685071D01*
X132131904Y-79775547D01*
X132041428Y-79866023D01*
X131905714Y-79911261D01*
X131679523Y-79911261D01*
X132584285Y-79639833D02*
X133036666Y-79639833D01*
X132493809Y-79911261D02*
X132810476Y-78961261D01*
X133127142Y-79911261D01*
X133986666Y-79820785D02*
X133941428Y-79866023D01*
X133805714Y-79911261D01*
X133715238Y-79911261D01*
X133579523Y-79866023D01*
X133489047Y-79775547D01*
X133443809Y-79685071D01*
X133398571Y-79504119D01*
X133398571Y-79368404D01*
X133443809Y-79187452D01*
X133489047Y-79096976D01*
X133579523Y-79006500D01*
X133715238Y-78961261D01*
X133805714Y-78961261D01*
X133941428Y-79006500D01*
X133986666Y-79051738D01*
X134303333Y-78961261D02*
X134936666Y-78961261D01*
X134529523Y-79911261D01*
X135705714Y-78961261D02*
X135524761Y-78961261D01*
X135434285Y-79006500D01*
X135389047Y-79051738D01*
X135298571Y-79187452D01*
X135253333Y-79368404D01*
X135253333Y-79730309D01*
X135298571Y-79820785D01*
X135343809Y-79866023D01*
X135434285Y-79911261D01*
X135615238Y-79911261D01*
X135705714Y-79866023D01*
X135750952Y-79820785D01*
X135796190Y-79730309D01*
X135796190Y-79504119D01*
X135750952Y-79413642D01*
X135705714Y-79368404D01*
X135615238Y-79323166D01*
X135434285Y-79323166D01*
X135343809Y-79368404D01*
X135298571Y-79413642D01*
X135253333Y-79504119D01*
X136112857Y-78961261D02*
X136746190Y-78961261D01*
X136339047Y-79911261D01*
X137243809Y-79368404D02*
X137153333Y-79323166D01*
X137108095Y-79277928D01*
X137062857Y-79187452D01*
X137062857Y-79142214D01*
X137108095Y-79051738D01*
X137153333Y-79006500D01*
X137243809Y-78961261D01*
X137424761Y-78961261D01*
X137515238Y-79006500D01*
X137560476Y-79051738D01*
X137605714Y-79142214D01*
X137605714Y-79187452D01*
X137560476Y-79277928D01*
X137515238Y-79323166D01*
X137424761Y-79368404D01*
X137243809Y-79368404D01*
X137153333Y-79413642D01*
X137108095Y-79458880D01*
X137062857Y-79549357D01*
X137062857Y-79730309D01*
X137108095Y-79820785D01*
X137153333Y-79866023D01*
X137243809Y-79911261D01*
X137424761Y-79911261D01*
X137515238Y-79866023D01*
X137560476Y-79820785D01*
X137605714Y-79730309D01*
X137605714Y-79549357D01*
X137560476Y-79458880D01*
X137515238Y-79413642D01*
X137424761Y-79368404D01*
X132041428Y-80978642D02*
X132177142Y-81023880D01*
X132222380Y-81069119D01*
X132267619Y-81159595D01*
X132267619Y-81295309D01*
X132222380Y-81385785D01*
X132177142Y-81431023D01*
X132086666Y-81476261D01*
X131724761Y-81476261D01*
X131724761Y-80526261D01*
X132041428Y-80526261D01*
X132131904Y-80571500D01*
X132177142Y-80616738D01*
X132222380Y-80707214D01*
X132222380Y-80797690D01*
X132177142Y-80888166D01*
X132131904Y-80933404D01*
X132041428Y-80978642D01*
X131724761Y-80978642D01*
X132674761Y-81476261D02*
X132674761Y-80842928D01*
X132674761Y-81023880D02*
X132720000Y-80933404D01*
X132765238Y-80888166D01*
X132855714Y-80842928D01*
X132946190Y-80842928D01*
X133624761Y-81431023D02*
X133534285Y-81476261D01*
X133353333Y-81476261D01*
X133262857Y-81431023D01*
X133217619Y-81340547D01*
X133217619Y-80978642D01*
X133262857Y-80888166D01*
X133353333Y-80842928D01*
X133534285Y-80842928D01*
X133624761Y-80888166D01*
X133670000Y-80978642D01*
X133670000Y-81069119D01*
X133217619Y-81159595D01*
X134484285Y-81476261D02*
X134484285Y-80978642D01*
X134439047Y-80888166D01*
X134348571Y-80842928D01*
X134167619Y-80842928D01*
X134077142Y-80888166D01*
X134484285Y-81431023D02*
X134393809Y-81476261D01*
X134167619Y-81476261D01*
X134077142Y-81431023D01*
X134031904Y-81340547D01*
X134031904Y-81250071D01*
X134077142Y-81159595D01*
X134167619Y-81114357D01*
X134393809Y-81114357D01*
X134484285Y-81069119D01*
X134936666Y-81476261D02*
X134936666Y-80526261D01*
X135027142Y-81114357D02*
X135298571Y-81476261D01*
X135298571Y-80842928D02*
X134936666Y-81204833D01*
X135841428Y-81476261D02*
X135750952Y-81431023D01*
X135705714Y-81385785D01*
X135660476Y-81295309D01*
X135660476Y-81023880D01*
X135705714Y-80933404D01*
X135750952Y-80888166D01*
X135841428Y-80842928D01*
X135977142Y-80842928D01*
X136067619Y-80888166D01*
X136112857Y-80933404D01*
X136158095Y-81023880D01*
X136158095Y-81295309D01*
X136112857Y-81385785D01*
X136067619Y-81431023D01*
X135977142Y-81476261D01*
X135841428Y-81476261D01*
X136972380Y-80842928D02*
X136972380Y-81476261D01*
X136565238Y-80842928D02*
X136565238Y-81340547D01*
X136610476Y-81431023D01*
X136700952Y-81476261D01*
X136836666Y-81476261D01*
X136927142Y-81431023D01*
X136972380Y-81385785D01*
X137289047Y-80842928D02*
X137650952Y-80842928D01*
X137424761Y-80526261D02*
X137424761Y-81340547D01*
X137470000Y-81431023D01*
X137560476Y-81476261D01*
X137650952Y-81476261D01*
D12*
X130562523Y-94113333D02*
X130943476Y-94113333D01*
X130486333Y-94341904D02*
X130753000Y-93541904D01*
X131019666Y-94341904D01*
X131286333Y-94341904D02*
X131286333Y-93541904D01*
X131476809Y-93541904D01*
X131591095Y-93580000D01*
X131667285Y-93656190D01*
X131705380Y-93732380D01*
X131743476Y-93884761D01*
X131743476Y-93999047D01*
X131705380Y-94151428D01*
X131667285Y-94227619D01*
X131591095Y-94303809D01*
X131476809Y-94341904D01*
X131286333Y-94341904D01*
X132086333Y-94341904D02*
X132086333Y-93541904D01*
X132276809Y-93541904D01*
X132391095Y-93580000D01*
X132467285Y-93656190D01*
X132505380Y-93732380D01*
X132543476Y-93884761D01*
X132543476Y-93999047D01*
X132505380Y-94151428D01*
X132467285Y-94227619D01*
X132391095Y-94303809D01*
X132276809Y-94341904D01*
X132086333Y-94341904D01*
X133343476Y-94341904D02*
X133076809Y-93960952D01*
X132886333Y-94341904D02*
X132886333Y-93541904D01*
X133191095Y-93541904D01*
X133267285Y-93580000D01*
X133305380Y-93618095D01*
X133343476Y-93694285D01*
X133343476Y-93808571D01*
X133305380Y-93884761D01*
X133267285Y-93922857D01*
X133191095Y-93960952D01*
X132886333Y-93960952D01*
D13*
X138906285Y-98242380D02*
X138906285Y-97242380D01*
X138906285Y-97718571D02*
X139477714Y-97718571D01*
X139477714Y-98242380D02*
X139477714Y-97242380D01*
X139453904Y-94750000D02*
X139358666Y-94702380D01*
X139215809Y-94702380D01*
X139072952Y-94750000D01*
X138977714Y-94845238D01*
X138930095Y-94940476D01*
X138882476Y-95130952D01*
X138882476Y-95273809D01*
X138930095Y-95464285D01*
X138977714Y-95559523D01*
X139072952Y-95654761D01*
X139215809Y-95702380D01*
X139311047Y-95702380D01*
X139453904Y-95654761D01*
X139501523Y-95607142D01*
X139501523Y-95273809D01*
X139311047Y-95273809D01*
X139334857Y-92638571D02*
X139001523Y-92638571D01*
X139001523Y-93162380D02*
X139001523Y-92162380D01*
X139477714Y-92162380D01*
X138977714Y-90098571D02*
X139311047Y-90098571D01*
X139453904Y-90622380D02*
X138977714Y-90622380D01*
X138977714Y-89622380D01*
X139453904Y-89622380D01*
X138930095Y-88082380D02*
X138930095Y-87082380D01*
X139168190Y-87082380D01*
X139311047Y-87130000D01*
X139406285Y-87225238D01*
X139453904Y-87320476D01*
X139501523Y-87510952D01*
X139501523Y-87653809D01*
X139453904Y-87844285D01*
X139406285Y-87939523D01*
X139311047Y-88034761D01*
X139168190Y-88082380D01*
X138930095Y-88082380D01*
X139501523Y-85447142D02*
X139453904Y-85494761D01*
X139311047Y-85542380D01*
X139215809Y-85542380D01*
X139072952Y-85494761D01*
X138977714Y-85399523D01*
X138930095Y-85304285D01*
X138882476Y-85113809D01*
X138882476Y-84970952D01*
X138930095Y-84780476D01*
X138977714Y-84685238D01*
X139072952Y-84590000D01*
X139215809Y-84542380D01*
X139311047Y-84542380D01*
X139453904Y-84590000D01*
X139501523Y-84637619D01*
X139263428Y-82478571D02*
X139406285Y-82526190D01*
X139453904Y-82573809D01*
X139501523Y-82669047D01*
X139501523Y-82811904D01*
X139453904Y-82907142D01*
X139406285Y-82954761D01*
X139311047Y-83002380D01*
X138930095Y-83002380D01*
X138930095Y-82002380D01*
X139263428Y-82002380D01*
X139358666Y-82050000D01*
X139406285Y-82097619D01*
X139453904Y-82192857D01*
X139453904Y-82288095D01*
X139406285Y-82383333D01*
X139358666Y-82430952D01*
X139263428Y-82478571D01*
X138930095Y-82478571D01*
X138953904Y-80176666D02*
X139430095Y-80176666D01*
X138858666Y-80462380D02*
X139192000Y-79462380D01*
X139525333Y-80462380D01*
D12*
X129430000Y-90893809D02*
X129430000Y-90246190D01*
X130536904Y-90322380D02*
X130536904Y-90703333D01*
X129736904Y-90703333D01*
X129430000Y-90246190D02*
X129430000Y-89446190D01*
X130536904Y-90055714D02*
X129736904Y-90055714D01*
X129736904Y-89865238D01*
X129775000Y-89750952D01*
X129851190Y-89674761D01*
X129927380Y-89636666D01*
X130079761Y-89598571D01*
X130194047Y-89598571D01*
X130346428Y-89636666D01*
X130422619Y-89674761D01*
X130498809Y-89750952D01*
X130536904Y-89865238D01*
X130536904Y-90055714D01*
X130149619Y-79571904D02*
X129768666Y-79571904D01*
X129730571Y-79952857D01*
X129768666Y-79914761D01*
X129844857Y-79876666D01*
X130035333Y-79876666D01*
X130111523Y-79914761D01*
X130149619Y-79952857D01*
X130187714Y-80029047D01*
X130187714Y-80219523D01*
X130149619Y-80295714D01*
X130111523Y-80333809D01*
X130035333Y-80371904D01*
X129844857Y-80371904D01*
X129768666Y-80333809D01*
X129730571Y-80295714D01*
X130416285Y-79571904D02*
X130682952Y-80371904D01*
X130949619Y-79571904D01*
X130073476Y-82150000D02*
X129997285Y-82111904D01*
X129883000Y-82111904D01*
X129768714Y-82150000D01*
X129692523Y-82226190D01*
X129654428Y-82302380D01*
X129616333Y-82454761D01*
X129616333Y-82569047D01*
X129654428Y-82721428D01*
X129692523Y-82797619D01*
X129768714Y-82873809D01*
X129883000Y-82911904D01*
X129959190Y-82911904D01*
X130073476Y-82873809D01*
X130111571Y-82835714D01*
X130111571Y-82569047D01*
X129959190Y-82569047D01*
X130454428Y-82911904D02*
X130454428Y-82111904D01*
X130911571Y-82911904D01*
X130911571Y-82111904D01*
X131292523Y-82911904D02*
X131292523Y-82111904D01*
X131483000Y-82111904D01*
X131597285Y-82150000D01*
X131673476Y-82226190D01*
X131711571Y-82302380D01*
X131749666Y-82454761D01*
X131749666Y-82569047D01*
X131711571Y-82721428D01*
X131673476Y-82797619D01*
X131597285Y-82873809D01*
X131483000Y-82911904D01*
X131292523Y-82911904D01*
X130244809Y-86042380D02*
X130282904Y-85928095D01*
X130282904Y-85737619D01*
X130244809Y-85661428D01*
X130206714Y-85623333D01*
X130130523Y-85585238D01*
X130054333Y-85585238D01*
X129978142Y-85623333D01*
X129940047Y-85661428D01*
X129901952Y-85737619D01*
X129863857Y-85890000D01*
X129825761Y-85966190D01*
X129787666Y-86004285D01*
X129711476Y-86042380D01*
X129635285Y-86042380D01*
X129559095Y-86004285D01*
X129521000Y-85966190D01*
X129482904Y-85890000D01*
X129482904Y-85699523D01*
X129521000Y-85585238D01*
X130206714Y-84785238D02*
X130244809Y-84823333D01*
X130282904Y-84937619D01*
X130282904Y-85013809D01*
X130244809Y-85128095D01*
X130168619Y-85204285D01*
X130092428Y-85242380D01*
X129940047Y-85280476D01*
X129825761Y-85280476D01*
X129673380Y-85242380D01*
X129597190Y-85204285D01*
X129521000Y-85128095D01*
X129482904Y-85013809D01*
X129482904Y-84937619D01*
X129521000Y-84823333D01*
X129559095Y-84785238D01*
X130282904Y-84061428D02*
X130282904Y-84442380D01*
X129482904Y-84442380D01*
X130244809Y-88601428D02*
X130282904Y-88487142D01*
X130282904Y-88296666D01*
X130244809Y-88220476D01*
X130206714Y-88182380D01*
X130130523Y-88144285D01*
X130054333Y-88144285D01*
X129978142Y-88182380D01*
X129940047Y-88220476D01*
X129901952Y-88296666D01*
X129863857Y-88449047D01*
X129825761Y-88525238D01*
X129787666Y-88563333D01*
X129711476Y-88601428D01*
X129635285Y-88601428D01*
X129559095Y-88563333D01*
X129521000Y-88525238D01*
X129482904Y-88449047D01*
X129482904Y-88258571D01*
X129521000Y-88144285D01*
X130282904Y-87801428D02*
X129482904Y-87801428D01*
X129482904Y-87610952D01*
X129521000Y-87496666D01*
X129597190Y-87420476D01*
X129673380Y-87382380D01*
X129825761Y-87344285D01*
X129940047Y-87344285D01*
X130092428Y-87382380D01*
X130168619Y-87420476D01*
X130244809Y-87496666D01*
X130282904Y-87610952D01*
X130282904Y-87801428D01*
X130054333Y-87039523D02*
X130054333Y-86658571D01*
X130282904Y-87115714D02*
X129482904Y-86849047D01*
X130282904Y-86582380D01*
X129565571Y-95065904D02*
X129832238Y-95865904D01*
X130098904Y-95065904D01*
X130822714Y-95865904D02*
X130556047Y-95484952D01*
X130365571Y-95865904D02*
X130365571Y-95065904D01*
X130670333Y-95065904D01*
X130746523Y-95104000D01*
X130784619Y-95142095D01*
X130822714Y-95218285D01*
X130822714Y-95332571D01*
X130784619Y-95408761D01*
X130746523Y-95446857D01*
X130670333Y-95484952D01*
X130365571Y-95484952D01*
X131165571Y-95446857D02*
X131432238Y-95446857D01*
X131546523Y-95865904D02*
X131165571Y-95865904D01*
X131165571Y-95065904D01*
X131546523Y-95065904D01*
X132156047Y-95446857D02*
X131889380Y-95446857D01*
X131889380Y-95865904D02*
X131889380Y-95065904D01*
X132270333Y-95065904D01*
X129559190Y-97299000D02*
X130359190Y-97299000D01*
X130206809Y-98329714D02*
X130168714Y-98367809D01*
X130054428Y-98405904D01*
X129978238Y-98405904D01*
X129863952Y-98367809D01*
X129787761Y-98291619D01*
X129749666Y-98215428D01*
X129711571Y-98063047D01*
X129711571Y-97948761D01*
X129749666Y-97796380D01*
X129787761Y-97720190D01*
X129863952Y-97644000D01*
X129978238Y-97605904D01*
X130054428Y-97605904D01*
X130168714Y-97644000D01*
X130206809Y-97682095D01*
X130359190Y-97299000D02*
X131006809Y-97299000D01*
X130930619Y-98405904D02*
X130549666Y-98405904D01*
X130549666Y-97605904D01*
X131006809Y-97299000D02*
X131806809Y-97299000D01*
X131654428Y-98405904D02*
X131387761Y-98024952D01*
X131197285Y-98405904D02*
X131197285Y-97605904D01*
X131502047Y-97605904D01*
X131578238Y-97644000D01*
X131616333Y-97682095D01*
X131654428Y-97758285D01*
X131654428Y-97872571D01*
X131616333Y-97948761D01*
X131578238Y-97986857D01*
X131502047Y-98024952D01*
X131197285Y-98024952D01*
D14*
%TO.C,U1*%
X136385000Y-91400000D02*
X132855000Y-91400000D01*
X132855000Y-86400000D02*
X136385000Y-86400000D01*
D15*
X132942000Y-86868000D02*
G75*
G03*
X132942000Y-86868000I-100000J0D01*
G01*
D10*
%TO.C,C2*%
X132461580Y-84834000D02*
X132180420Y-84834000D01*
X132461580Y-85854000D02*
X132180420Y-85854000D01*
%TO.C,C1*%
X132180420Y-92966000D02*
X132461580Y-92966000D01*
X132180420Y-91946000D02*
X132461580Y-91946000D01*
%TO.C,U1*%
D13*
X136398095Y-84796380D02*
X136398095Y-85605904D01*
X136445714Y-85701142D01*
X136493333Y-85748761D01*
X136588571Y-85796380D01*
X136779047Y-85796380D01*
X136874285Y-85748761D01*
X136921904Y-85701142D01*
X136969523Y-85605904D01*
X136969523Y-84796380D01*
X137969523Y-85796380D02*
X137398095Y-85796380D01*
X137683809Y-85796380D02*
X137683809Y-84796380D01*
X137588571Y-84939238D01*
X137493333Y-85034476D01*
X137398095Y-85082095D01*
%TO.C,C2*%
X132929333Y-84177142D02*
X132881714Y-84224761D01*
X132738857Y-84272380D01*
X132643619Y-84272380D01*
X132500761Y-84224761D01*
X132405523Y-84129523D01*
X132357904Y-84034285D01*
X132310285Y-83843809D01*
X132310285Y-83700952D01*
X132357904Y-83510476D01*
X132405523Y-83415238D01*
X132500761Y-83320000D01*
X132643619Y-83272380D01*
X132738857Y-83272380D01*
X132881714Y-83320000D01*
X132929333Y-83367619D01*
X133310285Y-83367619D02*
X133357904Y-83320000D01*
X133453142Y-83272380D01*
X133691238Y-83272380D01*
X133786476Y-83320000D01*
X133834095Y-83367619D01*
X133881714Y-83462857D01*
X133881714Y-83558095D01*
X133834095Y-83700952D01*
X133262666Y-84272380D01*
X133881714Y-84272380D01*
%TO.C,C1*%
X134707333Y-92813142D02*
X134659714Y-92860761D01*
X134516857Y-92908380D01*
X134421619Y-92908380D01*
X134278761Y-92860761D01*
X134183523Y-92765523D01*
X134135904Y-92670285D01*
X134088285Y-92479809D01*
X134088285Y-92336952D01*
X134135904Y-92146476D01*
X134183523Y-92051238D01*
X134278761Y-91956000D01*
X134421619Y-91908380D01*
X134516857Y-91908380D01*
X134659714Y-91956000D01*
X134707333Y-92003619D01*
X135659714Y-92908380D02*
X135088285Y-92908380D01*
X135374000Y-92908380D02*
X135374000Y-91908380D01*
X135278761Y-92051238D01*
X135183523Y-92146476D01*
X135088285Y-92194095D01*
%TD*%
M02*
