%TF.GenerationSoftware,KiCad,Pcbnew,(5.1.10)-1*%
%TF.CreationDate,2021-07-26T16:24:52-05:00*%
%TF.ProjectId,DAC7678_16TSSOP,44414337-3637-4385-9f31-365453534f50,rev?*%
%TF.SameCoordinates,Original*%
%TF.FileFunction,Copper,L2,Bot*%
%TF.FilePolarity,Positive*%
%FSLAX46Y46*%
G04 Gerber Fmt 4.6, Leading zero omitted, Abs format (unit mm)*
G04 Created by KiCad (PCBNEW (5.1.10)-1) date 2021-07-26 16:24:52*
%MOMM*%
%LPD*%
G01*
G04 APERTURE LIST*
%TA.AperFunction,ComponentPad*%
%ADD10O,1.700000X1.700000*%
%TD*%
%TA.AperFunction,ComponentPad*%
%ADD11R,1.700000X1.700000*%
%TD*%
%TA.AperFunction,ViaPad*%
%ADD12C,0.800000*%
%TD*%
%TA.AperFunction,Conductor*%
%ADD13C,0.250000*%
%TD*%
%TA.AperFunction,Conductor*%
%ADD14C,0.254000*%
%TD*%
%TA.AperFunction,Conductor*%
%ADD15C,0.100000*%
%TD*%
G04 APERTURE END LIST*
D10*
%TO.P,J2,8*%
%TO.N,VOUTH*%
X140970000Y-97790000D03*
%TO.P,J2,7*%
%TO.N,VOUTG*%
X140970000Y-95250000D03*
%TO.P,J2,6*%
%TO.N,VOUTF*%
X140970000Y-92710000D03*
%TO.P,J2,5*%
%TO.N,VOUTE*%
X140970000Y-90170000D03*
%TO.P,J2,4*%
%TO.N,VOUTD*%
X140970000Y-87630000D03*
%TO.P,J2,3*%
%TO.N,VOUTC*%
X140970000Y-85090000D03*
%TO.P,J2,2*%
%TO.N,VOUTB*%
X140970000Y-82550000D03*
D11*
%TO.P,J2,1*%
%TO.N,VOUTA*%
X140970000Y-80010000D03*
%TD*%
D10*
%TO.P,J1,8*%
%TO.N,~CLR*%
X128270000Y-97790000D03*
%TO.P,J1,7*%
%TO.N,VREF*%
X128270000Y-95250000D03*
%TO.P,J1,6*%
%TO.N,ADDR0*%
X128270000Y-92710000D03*
%TO.P,J1,5*%
%TO.N,~LDAC*%
X128270000Y-90170000D03*
%TO.P,J1,4*%
%TO.N,I2C_SDA*%
X128270000Y-87630000D03*
%TO.P,J1,3*%
%TO.N,I2C_SCL*%
X128270000Y-85090000D03*
%TO.P,J1,2*%
%TO.N,GND*%
X128270000Y-82550000D03*
D11*
%TO.P,J1,1*%
%TO.N,+5V*%
X128270000Y-80010000D03*
%TD*%
D12*
%TO.N,GND*%
X136302537Y-87925001D03*
X134620000Y-88392000D03*
X137922000Y-85344000D03*
X130048000Y-95758000D03*
X134874000Y-83820000D03*
X138176000Y-79756000D03*
X132842000Y-79756000D03*
X135890000Y-93472000D03*
X138430000Y-97790000D03*
X131572000Y-97790000D03*
X134112000Y-91694000D03*
X134112000Y-86360000D03*
X131826000Y-93726000D03*
X138684000Y-92202000D03*
X131572000Y-83566000D03*
%TO.N,I2C_SDA*%
X135489112Y-87343329D03*
%TO.N,I2C_SCL*%
X136157227Y-86475000D03*
%TO.N,VOUTG*%
X135580947Y-90767474D03*
%TO.N,VOUTE*%
X136104992Y-89915781D03*
%TO.N,VOUTC*%
X136114111Y-88915821D03*
%TD*%
D13*
%TO.N,GND*%
X136302537Y-87925001D02*
X136610999Y-87925001D01*
X137922000Y-86614000D02*
X137922000Y-85344000D01*
X136610999Y-87925001D02*
X137922000Y-86614000D01*
%TO.N,I2C_SDA*%
X135382000Y-87236217D02*
X135489112Y-87343329D01*
X135382000Y-86336183D02*
X135382000Y-87236217D01*
X134585827Y-85540010D02*
X135382000Y-86336183D01*
X130359990Y-85540010D02*
X134585827Y-85540010D01*
X128270000Y-87630000D02*
X130359990Y-85540010D01*
%TO.N,I2C_SCL*%
X134772227Y-85090000D02*
X136157227Y-86475000D01*
X128270000Y-85090000D02*
X134772227Y-85090000D01*
%TO.N,VOUTG*%
X140063473Y-95250000D02*
X140970000Y-95250000D01*
X135580947Y-90767474D02*
X140063473Y-95250000D01*
%TO.N,VOUTE*%
X139700438Y-90170000D02*
X139446219Y-89915781D01*
X140970000Y-90170000D02*
X139700438Y-90170000D01*
X136104992Y-89915781D02*
X139446219Y-89915781D01*
%TO.N,VOUTC*%
X137144179Y-88915821D02*
X140970000Y-85090000D01*
X136114111Y-88915821D02*
X137144179Y-88915821D01*
%TD*%
D14*
%TO.N,GND*%
X134622000Y-86650985D02*
X134622000Y-86778103D01*
X134571907Y-86853073D01*
X134493886Y-87041431D01*
X134454112Y-87241390D01*
X134454112Y-87445268D01*
X134493886Y-87645227D01*
X134571907Y-87833585D01*
X134685175Y-88003103D01*
X134829338Y-88147266D01*
X134998856Y-88260534D01*
X135187214Y-88338555D01*
X135247087Y-88350464D01*
X135196906Y-88425565D01*
X135118885Y-88613923D01*
X135079111Y-88813882D01*
X135079111Y-89017760D01*
X135118885Y-89217719D01*
X135196906Y-89406077D01*
X135198844Y-89408977D01*
X135187787Y-89425525D01*
X135109766Y-89613883D01*
X135069992Y-89813842D01*
X135069992Y-89864100D01*
X134921173Y-89963537D01*
X134777010Y-90107700D01*
X134663742Y-90277218D01*
X134585721Y-90465576D01*
X134545947Y-90665535D01*
X134545947Y-90869413D01*
X134585721Y-91069372D01*
X134663742Y-91257730D01*
X134777010Y-91427248D01*
X134921173Y-91571411D01*
X135090691Y-91684679D01*
X135279049Y-91762700D01*
X135479008Y-91802474D01*
X135541146Y-91802474D01*
X139499674Y-95761003D01*
X139523472Y-95790001D01*
X139552470Y-95813799D01*
X139618693Y-95868147D01*
X139654010Y-95953411D01*
X139816525Y-96196632D01*
X140023368Y-96403475D01*
X140197760Y-96520000D01*
X140023368Y-96636525D01*
X139816525Y-96843368D01*
X139654010Y-97086589D01*
X139542068Y-97356842D01*
X139485000Y-97643740D01*
X139485000Y-97936260D01*
X139542068Y-98223158D01*
X139654010Y-98493411D01*
X139761312Y-98654000D01*
X129478688Y-98654000D01*
X129585990Y-98493411D01*
X129697932Y-98223158D01*
X129755000Y-97936260D01*
X129755000Y-97643740D01*
X129697932Y-97356842D01*
X129585990Y-97086589D01*
X129423475Y-96843368D01*
X129216632Y-96636525D01*
X129042240Y-96520000D01*
X129216632Y-96403475D01*
X129423475Y-96196632D01*
X129585990Y-95953411D01*
X129697932Y-95683158D01*
X129755000Y-95396260D01*
X129755000Y-95103740D01*
X129697932Y-94816842D01*
X129585990Y-94546589D01*
X129423475Y-94303368D01*
X129216632Y-94096525D01*
X129042240Y-93980000D01*
X129216632Y-93863475D01*
X129423475Y-93656632D01*
X129585990Y-93413411D01*
X129697932Y-93143158D01*
X129755000Y-92856260D01*
X129755000Y-92563740D01*
X129697932Y-92276842D01*
X129585990Y-92006589D01*
X129423475Y-91763368D01*
X129216632Y-91556525D01*
X129042240Y-91440000D01*
X129216632Y-91323475D01*
X129423475Y-91116632D01*
X129585990Y-90873411D01*
X129697932Y-90603158D01*
X129755000Y-90316260D01*
X129755000Y-90023740D01*
X129697932Y-89736842D01*
X129585990Y-89466589D01*
X129423475Y-89223368D01*
X129216632Y-89016525D01*
X129042240Y-88900000D01*
X129216632Y-88783475D01*
X129423475Y-88576632D01*
X129585990Y-88333411D01*
X129697932Y-88063158D01*
X129755000Y-87776260D01*
X129755000Y-87483740D01*
X129711209Y-87263592D01*
X130674792Y-86300010D01*
X134271026Y-86300010D01*
X134622000Y-86650985D01*
%TA.AperFunction,Conductor*%
D15*
G36*
X134622000Y-86650985D02*
G01*
X134622000Y-86778103D01*
X134571907Y-86853073D01*
X134493886Y-87041431D01*
X134454112Y-87241390D01*
X134454112Y-87445268D01*
X134493886Y-87645227D01*
X134571907Y-87833585D01*
X134685175Y-88003103D01*
X134829338Y-88147266D01*
X134998856Y-88260534D01*
X135187214Y-88338555D01*
X135247087Y-88350464D01*
X135196906Y-88425565D01*
X135118885Y-88613923D01*
X135079111Y-88813882D01*
X135079111Y-89017760D01*
X135118885Y-89217719D01*
X135196906Y-89406077D01*
X135198844Y-89408977D01*
X135187787Y-89425525D01*
X135109766Y-89613883D01*
X135069992Y-89813842D01*
X135069992Y-89864100D01*
X134921173Y-89963537D01*
X134777010Y-90107700D01*
X134663742Y-90277218D01*
X134585721Y-90465576D01*
X134545947Y-90665535D01*
X134545947Y-90869413D01*
X134585721Y-91069372D01*
X134663742Y-91257730D01*
X134777010Y-91427248D01*
X134921173Y-91571411D01*
X135090691Y-91684679D01*
X135279049Y-91762700D01*
X135479008Y-91802474D01*
X135541146Y-91802474D01*
X139499674Y-95761003D01*
X139523472Y-95790001D01*
X139552470Y-95813799D01*
X139618693Y-95868147D01*
X139654010Y-95953411D01*
X139816525Y-96196632D01*
X140023368Y-96403475D01*
X140197760Y-96520000D01*
X140023368Y-96636525D01*
X139816525Y-96843368D01*
X139654010Y-97086589D01*
X139542068Y-97356842D01*
X139485000Y-97643740D01*
X139485000Y-97936260D01*
X139542068Y-98223158D01*
X139654010Y-98493411D01*
X139761312Y-98654000D01*
X129478688Y-98654000D01*
X129585990Y-98493411D01*
X129697932Y-98223158D01*
X129755000Y-97936260D01*
X129755000Y-97643740D01*
X129697932Y-97356842D01*
X129585990Y-97086589D01*
X129423475Y-96843368D01*
X129216632Y-96636525D01*
X129042240Y-96520000D01*
X129216632Y-96403475D01*
X129423475Y-96196632D01*
X129585990Y-95953411D01*
X129697932Y-95683158D01*
X129755000Y-95396260D01*
X129755000Y-95103740D01*
X129697932Y-94816842D01*
X129585990Y-94546589D01*
X129423475Y-94303368D01*
X129216632Y-94096525D01*
X129042240Y-93980000D01*
X129216632Y-93863475D01*
X129423475Y-93656632D01*
X129585990Y-93413411D01*
X129697932Y-93143158D01*
X129755000Y-92856260D01*
X129755000Y-92563740D01*
X129697932Y-92276842D01*
X129585990Y-92006589D01*
X129423475Y-91763368D01*
X129216632Y-91556525D01*
X129042240Y-91440000D01*
X129216632Y-91323475D01*
X129423475Y-91116632D01*
X129585990Y-90873411D01*
X129697932Y-90603158D01*
X129755000Y-90316260D01*
X129755000Y-90023740D01*
X129697932Y-89736842D01*
X129585990Y-89466589D01*
X129423475Y-89223368D01*
X129216632Y-89016525D01*
X129042240Y-88900000D01*
X129216632Y-88783475D01*
X129423475Y-88576632D01*
X129585990Y-88333411D01*
X129697932Y-88063158D01*
X129755000Y-87776260D01*
X129755000Y-87483740D01*
X129711209Y-87263592D01*
X130674792Y-86300010D01*
X134271026Y-86300010D01*
X134622000Y-86650985D01*
G37*
%TD.AperFunction*%
D14*
X139136634Y-90680997D02*
X139160437Y-90710001D01*
X139276162Y-90804974D01*
X139408191Y-90875546D01*
X139551452Y-90919003D01*
X139663105Y-90930000D01*
X139663115Y-90930000D01*
X139693844Y-90933027D01*
X139816525Y-91116632D01*
X140023368Y-91323475D01*
X140197760Y-91440000D01*
X140023368Y-91556525D01*
X139816525Y-91763368D01*
X139654010Y-92006589D01*
X139542068Y-92276842D01*
X139485000Y-92563740D01*
X139485000Y-92856260D01*
X139542068Y-93143158D01*
X139654010Y-93413411D01*
X139816525Y-93656632D01*
X140023368Y-93863475D01*
X140197760Y-93980000D01*
X140023368Y-94096525D01*
X140004084Y-94115809D01*
X136670787Y-90782513D01*
X136764766Y-90719718D01*
X136808703Y-90675781D01*
X139131418Y-90675781D01*
X139136634Y-90680997D01*
%TA.AperFunction,Conductor*%
D15*
G36*
X139136634Y-90680997D02*
G01*
X139160437Y-90710001D01*
X139276162Y-90804974D01*
X139408191Y-90875546D01*
X139551452Y-90919003D01*
X139663105Y-90930000D01*
X139663115Y-90930000D01*
X139693844Y-90933027D01*
X139816525Y-91116632D01*
X140023368Y-91323475D01*
X140197760Y-91440000D01*
X140023368Y-91556525D01*
X139816525Y-91763368D01*
X139654010Y-92006589D01*
X139542068Y-92276842D01*
X139485000Y-92563740D01*
X139485000Y-92856260D01*
X139542068Y-93143158D01*
X139654010Y-93413411D01*
X139816525Y-93656632D01*
X140023368Y-93863475D01*
X140197760Y-93980000D01*
X140023368Y-94096525D01*
X140004084Y-94115809D01*
X136670787Y-90782513D01*
X136764766Y-90719718D01*
X136808703Y-90675781D01*
X139131418Y-90675781D01*
X139136634Y-90680997D01*
G37*
%TD.AperFunction*%
D14*
X139481928Y-79160000D02*
X139481928Y-80860000D01*
X139494188Y-80984482D01*
X139530498Y-81104180D01*
X139589463Y-81214494D01*
X139668815Y-81311185D01*
X139765506Y-81390537D01*
X139875820Y-81449502D01*
X139948380Y-81471513D01*
X139816525Y-81603368D01*
X139654010Y-81846589D01*
X139542068Y-82116842D01*
X139485000Y-82403740D01*
X139485000Y-82696260D01*
X139542068Y-82983158D01*
X139654010Y-83253411D01*
X139816525Y-83496632D01*
X140023368Y-83703475D01*
X140197760Y-83820000D01*
X140023368Y-83936525D01*
X139816525Y-84143368D01*
X139654010Y-84386589D01*
X139542068Y-84656842D01*
X139485000Y-84943740D01*
X139485000Y-85236260D01*
X139528790Y-85456408D01*
X136829378Y-88155821D01*
X136817822Y-88155821D01*
X136773885Y-88111884D01*
X136604367Y-87998616D01*
X136416009Y-87920595D01*
X136356136Y-87908686D01*
X136406317Y-87833585D01*
X136484338Y-87645227D01*
X136524112Y-87445268D01*
X136524112Y-87443307D01*
X136647483Y-87392205D01*
X136817001Y-87278937D01*
X136961164Y-87134774D01*
X137074432Y-86965256D01*
X137152453Y-86776898D01*
X137192227Y-86576939D01*
X137192227Y-86373061D01*
X137152453Y-86173102D01*
X137074432Y-85984744D01*
X136961164Y-85815226D01*
X136817001Y-85671063D01*
X136647483Y-85557795D01*
X136459125Y-85479774D01*
X136259166Y-85440000D01*
X136197029Y-85440000D01*
X135336031Y-84579003D01*
X135312228Y-84549999D01*
X135196503Y-84455026D01*
X135064474Y-84384454D01*
X134921213Y-84340997D01*
X134809560Y-84330000D01*
X134809549Y-84330000D01*
X134772227Y-84326324D01*
X134734905Y-84330000D01*
X129548178Y-84330000D01*
X129423475Y-84143368D01*
X129216632Y-83936525D01*
X129034466Y-83814805D01*
X129151355Y-83745178D01*
X129367588Y-83550269D01*
X129541641Y-83316920D01*
X129666825Y-83054099D01*
X129711476Y-82906890D01*
X129590155Y-82677000D01*
X128397000Y-82677000D01*
X128397000Y-82697000D01*
X128143000Y-82697000D01*
X128143000Y-82677000D01*
X128123000Y-82677000D01*
X128123000Y-82423000D01*
X128143000Y-82423000D01*
X128143000Y-82403000D01*
X128397000Y-82403000D01*
X128397000Y-82423000D01*
X129590155Y-82423000D01*
X129711476Y-82193110D01*
X129666825Y-82045901D01*
X129541641Y-81783080D01*
X129367588Y-81549731D01*
X129283534Y-81473966D01*
X129364180Y-81449502D01*
X129474494Y-81390537D01*
X129571185Y-81311185D01*
X129650537Y-81214494D01*
X129709502Y-81104180D01*
X129745812Y-80984482D01*
X129758072Y-80860000D01*
X129758072Y-79160000D01*
X129756693Y-79146000D01*
X139483307Y-79146000D01*
X139481928Y-79160000D01*
%TA.AperFunction,Conductor*%
D15*
G36*
X139481928Y-79160000D02*
G01*
X139481928Y-80860000D01*
X139494188Y-80984482D01*
X139530498Y-81104180D01*
X139589463Y-81214494D01*
X139668815Y-81311185D01*
X139765506Y-81390537D01*
X139875820Y-81449502D01*
X139948380Y-81471513D01*
X139816525Y-81603368D01*
X139654010Y-81846589D01*
X139542068Y-82116842D01*
X139485000Y-82403740D01*
X139485000Y-82696260D01*
X139542068Y-82983158D01*
X139654010Y-83253411D01*
X139816525Y-83496632D01*
X140023368Y-83703475D01*
X140197760Y-83820000D01*
X140023368Y-83936525D01*
X139816525Y-84143368D01*
X139654010Y-84386589D01*
X139542068Y-84656842D01*
X139485000Y-84943740D01*
X139485000Y-85236260D01*
X139528790Y-85456408D01*
X136829378Y-88155821D01*
X136817822Y-88155821D01*
X136773885Y-88111884D01*
X136604367Y-87998616D01*
X136416009Y-87920595D01*
X136356136Y-87908686D01*
X136406317Y-87833585D01*
X136484338Y-87645227D01*
X136524112Y-87445268D01*
X136524112Y-87443307D01*
X136647483Y-87392205D01*
X136817001Y-87278937D01*
X136961164Y-87134774D01*
X137074432Y-86965256D01*
X137152453Y-86776898D01*
X137192227Y-86576939D01*
X137192227Y-86373061D01*
X137152453Y-86173102D01*
X137074432Y-85984744D01*
X136961164Y-85815226D01*
X136817001Y-85671063D01*
X136647483Y-85557795D01*
X136459125Y-85479774D01*
X136259166Y-85440000D01*
X136197029Y-85440000D01*
X135336031Y-84579003D01*
X135312228Y-84549999D01*
X135196503Y-84455026D01*
X135064474Y-84384454D01*
X134921213Y-84340997D01*
X134809560Y-84330000D01*
X134809549Y-84330000D01*
X134772227Y-84326324D01*
X134734905Y-84330000D01*
X129548178Y-84330000D01*
X129423475Y-84143368D01*
X129216632Y-83936525D01*
X129034466Y-83814805D01*
X129151355Y-83745178D01*
X129367588Y-83550269D01*
X129541641Y-83316920D01*
X129666825Y-83054099D01*
X129711476Y-82906890D01*
X129590155Y-82677000D01*
X128397000Y-82677000D01*
X128397000Y-82697000D01*
X128143000Y-82697000D01*
X128143000Y-82677000D01*
X128123000Y-82677000D01*
X128123000Y-82423000D01*
X128143000Y-82423000D01*
X128143000Y-82403000D01*
X128397000Y-82403000D01*
X128397000Y-82423000D01*
X129590155Y-82423000D01*
X129711476Y-82193110D01*
X129666825Y-82045901D01*
X129541641Y-81783080D01*
X129367588Y-81549731D01*
X129283534Y-81473966D01*
X129364180Y-81449502D01*
X129474494Y-81390537D01*
X129571185Y-81311185D01*
X129650537Y-81214494D01*
X129709502Y-81104180D01*
X129745812Y-80984482D01*
X129758072Y-80860000D01*
X129758072Y-79160000D01*
X129756693Y-79146000D01*
X139483307Y-79146000D01*
X139481928Y-79160000D01*
G37*
%TD.AperFunction*%
%TD*%
M02*
