M48
; DRILL file {KiCad (5.1.10)-1} date 11/29/21 12:55:16
; FORMAT={-:-/ absolute / inch / decimal}
; #@! TF.CreationDate,2021-11-29T12:55:16-06:00
; #@! TF.GenerationSoftware,Kicad,Pcbnew,(5.1.10)-1
; #@! TF.FileFunction,Plated,1,2,PTH
FMAT,2
INCH
T1C0.0157
T2C0.0394
%
G90
G05
T1
X5.12Y-3.77
X5.18Y-3.29
X5.18Y-3.85
X5.19Y-3.69
X5.23Y-3.14
X5.28Y-3.4
X5.28Y-3.61
X5.3Y-3.48
X5.31Y-3.3
X5.3342Y-3.4387
X5.3378Y-3.5735
X5.35Y-3.68
X5.3585Y-3.54
X5.3588Y-3.5006
X5.3605Y-3.4045
X5.3662Y-3.4616
X5.43Y-3.36
X5.44Y-3.14
X5.45Y-3.85
X5.46Y-3.63
T2
X5.05Y-3.15
X5.05Y-3.25
X5.05Y-3.35
X5.05Y-3.45
X5.05Y-3.55
X5.05Y-3.65
X5.05Y-3.75
X5.05Y-3.85
X5.55Y-3.15
X5.55Y-3.25
X5.55Y-3.35
X5.55Y-3.45
X5.55Y-3.55
X5.55Y-3.65
X5.55Y-3.75
X5.55Y-3.85
T0
M30
