%TF.GenerationSoftware,KiCad,Pcbnew,(5.1.10)-1*%
%TF.CreationDate,2021-11-19T11:18:15-06:00*%
%TF.ProjectId,DAC7678_16TSSOP,44414337-3637-4385-9f31-365453534f50,rev?*%
%TF.SameCoordinates,Original*%
%TF.FileFunction,Paste,Top*%
%TF.FilePolarity,Positive*%
%FSLAX46Y46*%
G04 Gerber Fmt 4.6, Leading zero omitted, Abs format (unit mm)*
G04 Created by KiCad (PCBNEW (5.1.10)-1) date 2021-11-19 11:18:15*
%MOMM*%
%LPD*%
G01*
G04 APERTURE LIST*
%ADD10R,1.570000X0.410000*%
G04 APERTURE END LIST*
D10*
%TO.C,U1*%
X137490000Y-86625000D03*
X137490000Y-87275000D03*
X137490000Y-87925000D03*
X137490000Y-88575000D03*
X137490000Y-89225000D03*
X137490000Y-89875000D03*
X137490000Y-90525000D03*
X137490000Y-91175000D03*
X131750000Y-91175000D03*
X131750000Y-90525000D03*
X131750000Y-89875000D03*
X131750000Y-89225000D03*
X131750000Y-88575000D03*
X131750000Y-87925000D03*
X131750000Y-87275000D03*
X131750000Y-86625000D03*
%TD*%
%TO.C,C2*%
G36*
G01*
X131996000Y-85094000D02*
X131996000Y-85594000D01*
G75*
G02*
X131771000Y-85819000I-225000J0D01*
G01*
X131321000Y-85819000D01*
G75*
G02*
X131096000Y-85594000I0J225000D01*
G01*
X131096000Y-85094000D01*
G75*
G02*
X131321000Y-84869000I225000J0D01*
G01*
X131771000Y-84869000D01*
G75*
G02*
X131996000Y-85094000I0J-225000D01*
G01*
G37*
G36*
G01*
X133546000Y-85094000D02*
X133546000Y-85594000D01*
G75*
G02*
X133321000Y-85819000I-225000J0D01*
G01*
X132871000Y-85819000D01*
G75*
G02*
X132646000Y-85594000I0J225000D01*
G01*
X132646000Y-85094000D01*
G75*
G02*
X132871000Y-84869000I225000J0D01*
G01*
X133321000Y-84869000D01*
G75*
G02*
X133546000Y-85094000I0J-225000D01*
G01*
G37*
%TD*%
%TO.C,C1*%
G36*
G01*
X132646000Y-92706000D02*
X132646000Y-92206000D01*
G75*
G02*
X132871000Y-91981000I225000J0D01*
G01*
X133321000Y-91981000D01*
G75*
G02*
X133546000Y-92206000I0J-225000D01*
G01*
X133546000Y-92706000D01*
G75*
G02*
X133321000Y-92931000I-225000J0D01*
G01*
X132871000Y-92931000D01*
G75*
G02*
X132646000Y-92706000I0J225000D01*
G01*
G37*
G36*
G01*
X131096000Y-92706000D02*
X131096000Y-92206000D01*
G75*
G02*
X131321000Y-91981000I225000J0D01*
G01*
X131771000Y-91981000D01*
G75*
G02*
X131996000Y-92206000I0J-225000D01*
G01*
X131996000Y-92706000D01*
G75*
G02*
X131771000Y-92931000I-225000J0D01*
G01*
X131321000Y-92931000D01*
G75*
G02*
X131096000Y-92706000I0J225000D01*
G01*
G37*
%TD*%
M02*
