%TF.GenerationSoftware,KiCad,Pcbnew,(5.1.10)-1*%
%TF.CreationDate,2021-07-29T15:12:46-05:00*%
%TF.ProjectId,FDC1004Q-Breakout,46444331-3030-4345-912d-427265616b6f,rev?*%
%TF.SameCoordinates,Original*%
%TF.FileFunction,Copper,L1,Top*%
%TF.FilePolarity,Positive*%
%FSLAX46Y46*%
G04 Gerber Fmt 4.6, Leading zero omitted, Abs format (unit mm)*
G04 Created by KiCad (PCBNEW (5.1.10)-1) date 2021-07-29 15:12:46*
%MOMM*%
%LPD*%
G01*
G04 APERTURE LIST*
%TA.AperFunction,ComponentPad*%
%ADD10O,1.350000X1.350000*%
%TD*%
%TA.AperFunction,ComponentPad*%
%ADD11C,1.350000*%
%TD*%
%TA.AperFunction,SMDPad,CuDef*%
%ADD12R,1.470000X0.280000*%
%TD*%
%TA.AperFunction,ComponentPad*%
%ADD13O,1.700000X1.700000*%
%TD*%
%TA.AperFunction,ComponentPad*%
%ADD14R,1.700000X1.700000*%
%TD*%
%TA.AperFunction,ViaPad*%
%ADD15C,0.500000*%
%TD*%
%TA.AperFunction,Conductor*%
%ADD16C,0.250000*%
%TD*%
%TA.AperFunction,Conductor*%
%ADD17C,0.254000*%
%TD*%
%TA.AperFunction,Conductor*%
%ADD18C,0.100000*%
%TD*%
G04 APERTURE END LIST*
D10*
%TO.P,J2,6*%
%TO.N,SHLD1*%
X146685000Y-109060000D03*
%TO.P,J2,5*%
%TO.N,CIN1*%
X146685000Y-107060000D03*
%TO.P,J2,4*%
%TO.N,CIN2*%
X146685000Y-105060000D03*
%TO.P,J2,3*%
%TO.N,CIN3*%
X146685000Y-103060000D03*
%TO.P,J2,2*%
%TO.N,CIN4*%
X146685000Y-101060000D03*
D11*
%TO.P,J2,1*%
%TO.N,SHLD2*%
X146685000Y-99060000D03*
%TD*%
D12*
%TO.P,U1,10*%
%TO.N,SDA*%
X138185000Y-105140000D03*
%TO.P,U1,9*%
%TO.N,SCL*%
X138185000Y-104640000D03*
%TO.P,U1,8*%
%TO.N,+3V3*%
X138185000Y-104140000D03*
%TO.P,U1,7*%
%TO.N,GND*%
X138185000Y-103640000D03*
%TO.P,U1,6*%
%TO.N,SHLD2*%
X138185000Y-103140000D03*
%TO.P,U1,5*%
%TO.N,CIN4*%
X142485000Y-103140000D03*
%TO.P,U1,4*%
%TO.N,CIN3*%
X142485000Y-103640000D03*
%TO.P,U1,3*%
%TO.N,CIN2*%
X142485000Y-104140000D03*
%TO.P,U1,2*%
%TO.N,CIN1*%
X142485000Y-104640000D03*
%TO.P,U1,1*%
%TO.N,SHLD1*%
X142485000Y-105140000D03*
%TD*%
D13*
%TO.P,J1,4*%
%TO.N,SDA*%
X134620000Y-107950000D03*
%TO.P,J1,3*%
%TO.N,SCL*%
X134620000Y-105410000D03*
%TO.P,J1,2*%
%TO.N,GND*%
X134620000Y-102870000D03*
D14*
%TO.P,J1,1*%
%TO.N,+3V3*%
X134620000Y-100330000D03*
%TD*%
%TO.P,C1,2*%
%TO.N,GND*%
%TA.AperFunction,SMDPad,CuDef*%
G36*
G01*
X137726000Y-101469000D02*
X137726000Y-100969000D01*
G75*
G02*
X137951000Y-100744000I225000J0D01*
G01*
X138401000Y-100744000D01*
G75*
G02*
X138626000Y-100969000I0J-225000D01*
G01*
X138626000Y-101469000D01*
G75*
G02*
X138401000Y-101694000I-225000J0D01*
G01*
X137951000Y-101694000D01*
G75*
G02*
X137726000Y-101469000I0J225000D01*
G01*
G37*
%TD.AperFunction*%
%TO.P,C1,1*%
%TO.N,+3V3*%
%TA.AperFunction,SMDPad,CuDef*%
G36*
G01*
X136176000Y-101469000D02*
X136176000Y-100969000D01*
G75*
G02*
X136401000Y-100744000I225000J0D01*
G01*
X136851000Y-100744000D01*
G75*
G02*
X137076000Y-100969000I0J-225000D01*
G01*
X137076000Y-101469000D01*
G75*
G02*
X136851000Y-101694000I-225000J0D01*
G01*
X136401000Y-101694000D01*
G75*
G02*
X136176000Y-101469000I0J225000D01*
G01*
G37*
%TD.AperFunction*%
%TD*%
D15*
%TO.N,GND*%
X139827000Y-101219000D03*
X143510000Y-98552000D03*
X137668000Y-98679000D03*
X135636000Y-109220000D03*
X142494000Y-109220000D03*
X137668000Y-102489000D03*
X139700000Y-104140000D03*
X137023683Y-103424066D03*
%TO.N,SHLD1*%
X142621000Y-105410000D03*
X144970500Y-105791000D03*
X144907000Y-104394000D03*
X141160500Y-104330500D03*
%TO.N,SHLD2*%
X139382500Y-103124000D03*
X141160500Y-103441500D03*
X143764000Y-102489000D03*
X144780000Y-103505000D03*
%TD*%
D16*
%TO.N,GND*%
X139547498Y-104140000D02*
X139700000Y-104140000D01*
X138185000Y-103640000D02*
X139047498Y-103640000D01*
X139047498Y-103640000D02*
X139547498Y-104140000D01*
X137239617Y-103640000D02*
X137023683Y-103424066D01*
X138185000Y-103640000D02*
X137239617Y-103640000D01*
%TO.N,+3V3*%
X138185000Y-104140000D02*
X136652000Y-104140000D01*
X134620000Y-100330000D02*
X135737000Y-100330000D01*
X135763000Y-100330000D02*
X136017000Y-100076000D01*
X134620000Y-100330000D02*
X135763000Y-100330000D01*
X135737000Y-100330000D02*
X136626000Y-101219000D01*
%TO.N,SDA*%
X137430000Y-105140000D02*
X138185000Y-105140000D01*
X134620000Y-107950000D02*
X137430000Y-105140000D01*
%TO.N,SCL*%
X134620000Y-105410000D02*
X135890000Y-105410000D01*
X136660000Y-104640000D02*
X138185000Y-104640000D01*
X135890000Y-105410000D02*
X136660000Y-104640000D01*
%TO.N,SHLD1*%
X142485000Y-105274000D02*
X142621000Y-105410000D01*
X142485000Y-105140000D02*
X142485000Y-105274000D01*
%TO.N,CIN1*%
X144842500Y-107060000D02*
X146685000Y-107060000D01*
X143545001Y-105762501D02*
X144842500Y-107060000D01*
X143545001Y-104739999D02*
X143545001Y-105762501D01*
X143445002Y-104640000D02*
X143545001Y-104739999D01*
X142485000Y-104640000D02*
X143445002Y-104640000D01*
%TO.N,CIN2*%
X145257000Y-105060000D02*
X146685000Y-105060000D01*
X144620500Y-105060000D02*
X145257000Y-105060000D01*
X143700500Y-104140000D02*
X144620500Y-105060000D01*
X142485000Y-104140000D02*
X143700500Y-104140000D01*
%TO.N,CIN3*%
X146495000Y-102870000D02*
X146685000Y-103060000D01*
X143629000Y-103640000D02*
X144399000Y-102870000D01*
X144399000Y-102870000D02*
X146495000Y-102870000D01*
X142485000Y-103640000D02*
X143629000Y-103640000D01*
%TO.N,CIN4*%
X142485000Y-103140000D02*
X142485000Y-102815500D01*
X144240500Y-101060000D02*
X145764000Y-101060000D01*
X142485000Y-102815500D02*
X144240500Y-101060000D01*
X145764000Y-101060000D02*
X146685000Y-101060000D01*
%TO.N,SHLD2*%
X139366500Y-103140000D02*
X139382500Y-103124000D01*
X138185000Y-103140000D02*
X139366500Y-103140000D01*
%TD*%
D17*
%TO.N,SHLD1*%
X141367157Y-104280000D02*
X141374513Y-104354689D01*
X141385224Y-104390000D01*
X141374513Y-104425311D01*
X141367891Y-104492551D01*
X141305671Y-104542062D01*
X141224869Y-104637545D01*
X141164248Y-104746958D01*
X141126137Y-104866094D01*
X141115000Y-104968250D01*
X141273750Y-105127000D01*
X141590956Y-105127000D01*
X141603492Y-105133701D01*
X141667112Y-105153000D01*
X141273750Y-105153000D01*
X141115000Y-105311750D01*
X141126137Y-105413906D01*
X141164248Y-105533042D01*
X141224869Y-105642455D01*
X141305671Y-105737938D01*
X141403548Y-105815823D01*
X141514739Y-105873117D01*
X141634971Y-105907618D01*
X141759623Y-105917999D01*
X142199250Y-105915000D01*
X142358000Y-105756250D01*
X142358000Y-105162843D01*
X142612000Y-105162843D01*
X142612000Y-105756250D01*
X142770750Y-105915000D01*
X143063098Y-105916994D01*
X143075256Y-105957075D01*
X143075257Y-105957076D01*
X143122243Y-106044980D01*
X143185475Y-106122028D01*
X143204781Y-106137872D01*
X144467128Y-107400220D01*
X144482973Y-107419527D01*
X144560021Y-107482759D01*
X144647925Y-107529745D01*
X144743307Y-107558678D01*
X144842500Y-107568448D01*
X144867354Y-107566000D01*
X145753058Y-107566000D01*
X145864751Y-107733161D01*
X146011839Y-107880249D01*
X146061283Y-107913286D01*
X145895463Y-108014656D01*
X145706697Y-108188773D01*
X145555527Y-108396371D01*
X145447762Y-108629472D01*
X145417090Y-108730600D01*
X145540776Y-108933000D01*
X146558000Y-108933000D01*
X146558000Y-108913000D01*
X146812000Y-108913000D01*
X146812000Y-108933000D01*
X146832000Y-108933000D01*
X146832000Y-109187000D01*
X146812000Y-109187000D01*
X146812000Y-109207000D01*
X146558000Y-109207000D01*
X146558000Y-109187000D01*
X145540776Y-109187000D01*
X145417090Y-109389400D01*
X145442749Y-109474000D01*
X144578606Y-109474000D01*
X140970000Y-105865394D01*
X140970000Y-104140000D01*
X141367157Y-104140000D01*
X141367157Y-104280000D01*
%TA.AperFunction,Conductor*%
D18*
G36*
X141367157Y-104280000D02*
G01*
X141374513Y-104354689D01*
X141385224Y-104390000D01*
X141374513Y-104425311D01*
X141367891Y-104492551D01*
X141305671Y-104542062D01*
X141224869Y-104637545D01*
X141164248Y-104746958D01*
X141126137Y-104866094D01*
X141115000Y-104968250D01*
X141273750Y-105127000D01*
X141590956Y-105127000D01*
X141603492Y-105133701D01*
X141667112Y-105153000D01*
X141273750Y-105153000D01*
X141115000Y-105311750D01*
X141126137Y-105413906D01*
X141164248Y-105533042D01*
X141224869Y-105642455D01*
X141305671Y-105737938D01*
X141403548Y-105815823D01*
X141514739Y-105873117D01*
X141634971Y-105907618D01*
X141759623Y-105917999D01*
X142199250Y-105915000D01*
X142358000Y-105756250D01*
X142358000Y-105162843D01*
X142612000Y-105162843D01*
X142612000Y-105756250D01*
X142770750Y-105915000D01*
X143063098Y-105916994D01*
X143075256Y-105957075D01*
X143075257Y-105957076D01*
X143122243Y-106044980D01*
X143185475Y-106122028D01*
X143204781Y-106137872D01*
X144467128Y-107400220D01*
X144482973Y-107419527D01*
X144560021Y-107482759D01*
X144647925Y-107529745D01*
X144743307Y-107558678D01*
X144842500Y-107568448D01*
X144867354Y-107566000D01*
X145753058Y-107566000D01*
X145864751Y-107733161D01*
X146011839Y-107880249D01*
X146061283Y-107913286D01*
X145895463Y-108014656D01*
X145706697Y-108188773D01*
X145555527Y-108396371D01*
X145447762Y-108629472D01*
X145417090Y-108730600D01*
X145540776Y-108933000D01*
X146558000Y-108933000D01*
X146558000Y-108913000D01*
X146812000Y-108913000D01*
X146812000Y-108933000D01*
X146832000Y-108933000D01*
X146832000Y-109187000D01*
X146812000Y-109187000D01*
X146812000Y-109207000D01*
X146558000Y-109207000D01*
X146558000Y-109187000D01*
X145540776Y-109187000D01*
X145417090Y-109389400D01*
X145442749Y-109474000D01*
X144578606Y-109474000D01*
X140970000Y-105865394D01*
X140970000Y-104140000D01*
X141367157Y-104140000D01*
X141367157Y-104280000D01*
G37*
%TD.AperFunction*%
D17*
X144245128Y-105400220D02*
X144260973Y-105419527D01*
X144338021Y-105482759D01*
X144425925Y-105529745D01*
X144499107Y-105551944D01*
X144521306Y-105558678D01*
X144531194Y-105559652D01*
X144595646Y-105566000D01*
X144595653Y-105566000D01*
X144620499Y-105568447D01*
X144645345Y-105566000D01*
X145753058Y-105566000D01*
X145864751Y-105733161D01*
X146011839Y-105880249D01*
X146184796Y-105995815D01*
X146339751Y-106060000D01*
X146184796Y-106124185D01*
X146011839Y-106239751D01*
X145864751Y-106386839D01*
X145753058Y-106554000D01*
X145052092Y-106554000D01*
X144051001Y-105552910D01*
X144051001Y-105206093D01*
X144245128Y-105400220D01*
%TA.AperFunction,Conductor*%
D18*
G36*
X144245128Y-105400220D02*
G01*
X144260973Y-105419527D01*
X144338021Y-105482759D01*
X144425925Y-105529745D01*
X144499107Y-105551944D01*
X144521306Y-105558678D01*
X144531194Y-105559652D01*
X144595646Y-105566000D01*
X144595653Y-105566000D01*
X144620499Y-105568447D01*
X144645345Y-105566000D01*
X145753058Y-105566000D01*
X145864751Y-105733161D01*
X146011839Y-105880249D01*
X146184796Y-105995815D01*
X146339751Y-106060000D01*
X146184796Y-106124185D01*
X146011839Y-106239751D01*
X145864751Y-106386839D01*
X145753058Y-106554000D01*
X145052092Y-106554000D01*
X144051001Y-105552910D01*
X144051001Y-105206093D01*
X144245128Y-105400220D01*
G37*
%TD.AperFunction*%
D17*
X146011839Y-104239751D02*
X145864751Y-104386839D01*
X145753058Y-104554000D01*
X144830092Y-104554000D01*
X144416091Y-104140000D01*
X146161127Y-104140000D01*
X146011839Y-104239751D01*
%TA.AperFunction,Conductor*%
D18*
G36*
X146011839Y-104239751D02*
G01*
X145864751Y-104386839D01*
X145753058Y-104554000D01*
X144830092Y-104554000D01*
X144416091Y-104140000D01*
X146161127Y-104140000D01*
X146011839Y-104239751D01*
G37*
%TD.AperFunction*%
%TD*%
D17*
%TO.N,SHLD2*%
X145381355Y-98877633D02*
X145370826Y-99135465D01*
X145410800Y-99390398D01*
X145499741Y-99632633D01*
X145550379Y-99727370D01*
X145781600Y-99783795D01*
X146505395Y-99060000D01*
X146491253Y-99045858D01*
X146670858Y-98866253D01*
X146685000Y-98880395D01*
X146699143Y-98866253D01*
X146878748Y-99045858D01*
X146864605Y-99060000D01*
X146878748Y-99074143D01*
X146699143Y-99253748D01*
X146685000Y-99239605D01*
X145961205Y-99963400D01*
X146017630Y-100194621D01*
X146054110Y-100211507D01*
X146011839Y-100239751D01*
X145864751Y-100386839D01*
X145753058Y-100554000D01*
X144265354Y-100554000D01*
X144240500Y-100551552D01*
X144215646Y-100554000D01*
X144141307Y-100561322D01*
X144045925Y-100590255D01*
X143958021Y-100637241D01*
X143880973Y-100700473D01*
X143865128Y-100719780D01*
X142144781Y-102440128D01*
X142125474Y-102455973D01*
X142062242Y-102533021D01*
X142037127Y-102580008D01*
X142017270Y-102617157D01*
X141750000Y-102617157D01*
X141675311Y-102624513D01*
X141603492Y-102646299D01*
X141537304Y-102681678D01*
X141479289Y-102729289D01*
X141431678Y-102787304D01*
X141396299Y-102853492D01*
X141374513Y-102925311D01*
X141367157Y-103000000D01*
X141367157Y-103280000D01*
X141374513Y-103354689D01*
X141385224Y-103390000D01*
X141374513Y-103425311D01*
X141367157Y-103500000D01*
X141367157Y-103632000D01*
X140970000Y-103632000D01*
X140970000Y-103314500D01*
X140967560Y-103289724D01*
X140960333Y-103265899D01*
X140948597Y-103243943D01*
X140932803Y-103224697D01*
X140913557Y-103208903D01*
X140891601Y-103197167D01*
X140867776Y-103189940D01*
X140843000Y-103187500D01*
X139430750Y-103187500D01*
X139396250Y-103153000D01*
X139319000Y-103153000D01*
X139319000Y-103127000D01*
X139396250Y-103127000D01*
X139555000Y-102968250D01*
X139543863Y-102866094D01*
X139505752Y-102746958D01*
X139445131Y-102637545D01*
X139373162Y-102552500D01*
X140843000Y-102552500D01*
X140867776Y-102550060D01*
X140891601Y-102542833D01*
X140913557Y-102531097D01*
X140929908Y-102518107D01*
X145020760Y-98679000D01*
X145429367Y-98679000D01*
X145381355Y-98877633D01*
%TA.AperFunction,Conductor*%
D18*
G36*
X145381355Y-98877633D02*
G01*
X145370826Y-99135465D01*
X145410800Y-99390398D01*
X145499741Y-99632633D01*
X145550379Y-99727370D01*
X145781600Y-99783795D01*
X146505395Y-99060000D01*
X146491253Y-99045858D01*
X146670858Y-98866253D01*
X146685000Y-98880395D01*
X146699143Y-98866253D01*
X146878748Y-99045858D01*
X146864605Y-99060000D01*
X146878748Y-99074143D01*
X146699143Y-99253748D01*
X146685000Y-99239605D01*
X145961205Y-99963400D01*
X146017630Y-100194621D01*
X146054110Y-100211507D01*
X146011839Y-100239751D01*
X145864751Y-100386839D01*
X145753058Y-100554000D01*
X144265354Y-100554000D01*
X144240500Y-100551552D01*
X144215646Y-100554000D01*
X144141307Y-100561322D01*
X144045925Y-100590255D01*
X143958021Y-100637241D01*
X143880973Y-100700473D01*
X143865128Y-100719780D01*
X142144781Y-102440128D01*
X142125474Y-102455973D01*
X142062242Y-102533021D01*
X142037127Y-102580008D01*
X142017270Y-102617157D01*
X141750000Y-102617157D01*
X141675311Y-102624513D01*
X141603492Y-102646299D01*
X141537304Y-102681678D01*
X141479289Y-102729289D01*
X141431678Y-102787304D01*
X141396299Y-102853492D01*
X141374513Y-102925311D01*
X141367157Y-103000000D01*
X141367157Y-103280000D01*
X141374513Y-103354689D01*
X141385224Y-103390000D01*
X141374513Y-103425311D01*
X141367157Y-103500000D01*
X141367157Y-103632000D01*
X140970000Y-103632000D01*
X140970000Y-103314500D01*
X140967560Y-103289724D01*
X140960333Y-103265899D01*
X140948597Y-103243943D01*
X140932803Y-103224697D01*
X140913557Y-103208903D01*
X140891601Y-103197167D01*
X140867776Y-103189940D01*
X140843000Y-103187500D01*
X139430750Y-103187500D01*
X139396250Y-103153000D01*
X139319000Y-103153000D01*
X139319000Y-103127000D01*
X139396250Y-103127000D01*
X139555000Y-102968250D01*
X139543863Y-102866094D01*
X139505752Y-102746958D01*
X139445131Y-102637545D01*
X139373162Y-102552500D01*
X140843000Y-102552500D01*
X140867776Y-102550060D01*
X140891601Y-102542833D01*
X140913557Y-102531097D01*
X140929908Y-102518107D01*
X145020760Y-98679000D01*
X145429367Y-98679000D01*
X145381355Y-98877633D01*
G37*
%TD.AperFunction*%
D17*
X145749185Y-103560204D02*
X145797157Y-103632000D01*
X144352591Y-103632000D01*
X144608592Y-103376000D01*
X145672885Y-103376000D01*
X145749185Y-103560204D01*
%TA.AperFunction,Conductor*%
D18*
G36*
X145749185Y-103560204D02*
G01*
X145797157Y-103632000D01*
X144352591Y-103632000D01*
X144608592Y-103376000D01*
X145672885Y-103376000D01*
X145749185Y-103560204D01*
G37*
%TD.AperFunction*%
D17*
X145864751Y-101733161D02*
X146011839Y-101880249D01*
X146184796Y-101995815D01*
X146339751Y-102060000D01*
X146184796Y-102124185D01*
X146011839Y-102239751D01*
X145887590Y-102364000D01*
X144423845Y-102364000D01*
X144398999Y-102361553D01*
X144374153Y-102364000D01*
X144374146Y-102364000D01*
X144309694Y-102370348D01*
X144299806Y-102371322D01*
X144277607Y-102378056D01*
X144204425Y-102400255D01*
X144116521Y-102447241D01*
X144039473Y-102510473D01*
X144023628Y-102529780D01*
X143598411Y-102954998D01*
X143595487Y-102925311D01*
X143573701Y-102853492D01*
X143538322Y-102787304D01*
X143490711Y-102729289D01*
X143432696Y-102681678D01*
X143368648Y-102647443D01*
X144450092Y-101566000D01*
X145753058Y-101566000D01*
X145864751Y-101733161D01*
%TA.AperFunction,Conductor*%
D18*
G36*
X145864751Y-101733161D02*
G01*
X146011839Y-101880249D01*
X146184796Y-101995815D01*
X146339751Y-102060000D01*
X146184796Y-102124185D01*
X146011839Y-102239751D01*
X145887590Y-102364000D01*
X144423845Y-102364000D01*
X144398999Y-102361553D01*
X144374153Y-102364000D01*
X144374146Y-102364000D01*
X144309694Y-102370348D01*
X144299806Y-102371322D01*
X144277607Y-102378056D01*
X144204425Y-102400255D01*
X144116521Y-102447241D01*
X144039473Y-102510473D01*
X144023628Y-102529780D01*
X143598411Y-102954998D01*
X143595487Y-102925311D01*
X143573701Y-102853492D01*
X143538322Y-102787304D01*
X143490711Y-102729289D01*
X143432696Y-102681678D01*
X143368648Y-102647443D01*
X144450092Y-101566000D01*
X145753058Y-101566000D01*
X145864751Y-101733161D01*
G37*
%TD.AperFunction*%
%TD*%
D17*
%TO.N,GND*%
X140335000Y-106426000D02*
X140337440Y-106450776D01*
X140344667Y-106474601D01*
X140356403Y-106496557D01*
X140372197Y-106515803D01*
X143457394Y-109601000D01*
X134747000Y-109601000D01*
X134747000Y-109179855D01*
X134979069Y-109133693D01*
X135203097Y-109040898D01*
X135404717Y-108906180D01*
X135576180Y-108734717D01*
X135710898Y-108533097D01*
X135803693Y-108309069D01*
X135851000Y-108071243D01*
X135851000Y-107828757D01*
X135803693Y-107590931D01*
X135771758Y-107513833D01*
X137622749Y-105662843D01*
X138920000Y-105662843D01*
X138994689Y-105655487D01*
X139066508Y-105633701D01*
X139132696Y-105598322D01*
X139190711Y-105550711D01*
X139238322Y-105492696D01*
X139273701Y-105426508D01*
X139295487Y-105354689D01*
X139302843Y-105280000D01*
X139302843Y-105000000D01*
X139295487Y-104925311D01*
X139284776Y-104890000D01*
X139295487Y-104854689D01*
X139302843Y-104780000D01*
X139302843Y-104500000D01*
X139295487Y-104425311D01*
X139284776Y-104390000D01*
X139295487Y-104354689D01*
X139302109Y-104287449D01*
X139364329Y-104237938D01*
X139445131Y-104142455D01*
X139505752Y-104033042D01*
X139543863Y-103913906D01*
X139555000Y-103811750D01*
X139510252Y-103767002D01*
X139555000Y-103767002D01*
X139555000Y-103759000D01*
X140335000Y-103759000D01*
X140335000Y-106426000D01*
%TA.AperFunction,Conductor*%
D18*
G36*
X140335000Y-106426000D02*
G01*
X140337440Y-106450776D01*
X140344667Y-106474601D01*
X140356403Y-106496557D01*
X140372197Y-106515803D01*
X143457394Y-109601000D01*
X134747000Y-109601000D01*
X134747000Y-109179855D01*
X134979069Y-109133693D01*
X135203097Y-109040898D01*
X135404717Y-108906180D01*
X135576180Y-108734717D01*
X135710898Y-108533097D01*
X135803693Y-108309069D01*
X135851000Y-108071243D01*
X135851000Y-107828757D01*
X135803693Y-107590931D01*
X135771758Y-107513833D01*
X137622749Y-105662843D01*
X138920000Y-105662843D01*
X138994689Y-105655487D01*
X139066508Y-105633701D01*
X139132696Y-105598322D01*
X139190711Y-105550711D01*
X139238322Y-105492696D01*
X139273701Y-105426508D01*
X139295487Y-105354689D01*
X139302843Y-105280000D01*
X139302843Y-105000000D01*
X139295487Y-104925311D01*
X139284776Y-104890000D01*
X139295487Y-104854689D01*
X139302843Y-104780000D01*
X139302843Y-104500000D01*
X139295487Y-104425311D01*
X139284776Y-104390000D01*
X139295487Y-104354689D01*
X139302109Y-104287449D01*
X139364329Y-104237938D01*
X139445131Y-104142455D01*
X139505752Y-104033042D01*
X139543863Y-103913906D01*
X139555000Y-103811750D01*
X139510252Y-103767002D01*
X139555000Y-103767002D01*
X139555000Y-103759000D01*
X140335000Y-103759000D01*
X140335000Y-106426000D01*
G37*
%TD.AperFunction*%
D17*
X140411635Y-101981000D02*
X139192614Y-101981000D01*
X139215502Y-101938180D01*
X139251812Y-101818482D01*
X139264072Y-101694000D01*
X139261000Y-101504750D01*
X139102250Y-101346000D01*
X138303000Y-101346000D01*
X138303000Y-102170250D01*
X138461750Y-102329000D01*
X138626000Y-102332072D01*
X138750482Y-102319812D01*
X138811000Y-102301454D01*
X138811000Y-102617157D01*
X137450000Y-102617157D01*
X137375311Y-102624513D01*
X137303492Y-102646299D01*
X137287000Y-102655114D01*
X137287000Y-102155185D01*
X137371506Y-102224537D01*
X137481820Y-102283502D01*
X137601518Y-102319812D01*
X137726000Y-102332072D01*
X137890250Y-102329000D01*
X138049000Y-102170250D01*
X138049000Y-101346000D01*
X138029000Y-101346000D01*
X138029000Y-101092000D01*
X138049000Y-101092000D01*
X138049000Y-100267750D01*
X138303000Y-100267750D01*
X138303000Y-101092000D01*
X139102250Y-101092000D01*
X139261000Y-100933250D01*
X139264072Y-100744000D01*
X139251812Y-100619518D01*
X139215502Y-100499820D01*
X139156537Y-100389506D01*
X139077185Y-100292815D01*
X138980494Y-100213463D01*
X138870180Y-100154498D01*
X138750482Y-100118188D01*
X138626000Y-100105928D01*
X138461750Y-100109000D01*
X138303000Y-100267750D01*
X138049000Y-100267750D01*
X137890250Y-100109000D01*
X137726000Y-100105928D01*
X137601518Y-100118188D01*
X137481820Y-100154498D01*
X137371506Y-100213463D01*
X137287000Y-100282815D01*
X137287000Y-98323000D01*
X144298260Y-98323000D01*
X140411635Y-101981000D01*
%TA.AperFunction,Conductor*%
D18*
G36*
X140411635Y-101981000D02*
G01*
X139192614Y-101981000D01*
X139215502Y-101938180D01*
X139251812Y-101818482D01*
X139264072Y-101694000D01*
X139261000Y-101504750D01*
X139102250Y-101346000D01*
X138303000Y-101346000D01*
X138303000Y-102170250D01*
X138461750Y-102329000D01*
X138626000Y-102332072D01*
X138750482Y-102319812D01*
X138811000Y-102301454D01*
X138811000Y-102617157D01*
X137450000Y-102617157D01*
X137375311Y-102624513D01*
X137303492Y-102646299D01*
X137287000Y-102655114D01*
X137287000Y-102155185D01*
X137371506Y-102224537D01*
X137481820Y-102283502D01*
X137601518Y-102319812D01*
X137726000Y-102332072D01*
X137890250Y-102329000D01*
X138049000Y-102170250D01*
X138049000Y-101346000D01*
X138029000Y-101346000D01*
X138029000Y-101092000D01*
X138049000Y-101092000D01*
X138049000Y-100267750D01*
X138303000Y-100267750D01*
X138303000Y-101092000D01*
X139102250Y-101092000D01*
X139261000Y-100933250D01*
X139264072Y-100744000D01*
X139251812Y-100619518D01*
X139215502Y-100499820D01*
X139156537Y-100389506D01*
X139077185Y-100292815D01*
X138980494Y-100213463D01*
X138870180Y-100154498D01*
X138750482Y-100118188D01*
X138626000Y-100105928D01*
X138461750Y-100109000D01*
X138303000Y-100267750D01*
X138049000Y-100267750D01*
X137890250Y-100109000D01*
X137726000Y-100105928D01*
X137601518Y-100118188D01*
X137481820Y-100154498D01*
X137371506Y-100213463D01*
X137287000Y-100282815D01*
X137287000Y-98323000D01*
X144298260Y-98323000D01*
X140411635Y-101981000D01*
G37*
%TD.AperFunction*%
%TD*%
D17*
%TO.N,+3V3*%
X136779000Y-100241750D02*
X136753000Y-100267750D01*
X136753000Y-101092000D01*
X136773000Y-101092000D01*
X136773000Y-101346000D01*
X136753000Y-101346000D01*
X136753000Y-102170250D01*
X136779000Y-102196250D01*
X136779000Y-102842427D01*
X136724792Y-102864881D01*
X136621444Y-102933936D01*
X136533553Y-103021827D01*
X136464498Y-103125175D01*
X136416932Y-103240010D01*
X136392683Y-103361918D01*
X136392683Y-103486214D01*
X136416932Y-103608122D01*
X136464498Y-103722957D01*
X136533553Y-103826305D01*
X136621444Y-103914196D01*
X136724792Y-103983251D01*
X136779000Y-104005705D01*
X136779000Y-104134000D01*
X136684845Y-104134000D01*
X136659999Y-104131553D01*
X136635153Y-104134000D01*
X136635146Y-104134000D01*
X136574227Y-104140000D01*
X136017000Y-104140000D01*
X136017000Y-102309341D01*
X136051518Y-102319812D01*
X136176000Y-102332072D01*
X136340250Y-102329000D01*
X136499000Y-102170250D01*
X136499000Y-101346000D01*
X136479000Y-101346000D01*
X136479000Y-101092000D01*
X136499000Y-101092000D01*
X136499000Y-100267750D01*
X136340250Y-100109000D01*
X136176000Y-100105928D01*
X136051518Y-100118188D01*
X136022155Y-100127095D01*
X136105000Y-100044250D01*
X136108072Y-99480000D01*
X136095812Y-99355518D01*
X136059502Y-99235820D01*
X136000537Y-99125506D01*
X135921185Y-99028815D01*
X135824494Y-98949463D01*
X135714180Y-98890498D01*
X135594482Y-98854188D01*
X135470000Y-98841928D01*
X134905750Y-98845000D01*
X134747000Y-99003750D01*
X134747000Y-100203000D01*
X134767000Y-100203000D01*
X134767000Y-100457000D01*
X134747000Y-100457000D01*
X134747000Y-100477000D01*
X134493000Y-100477000D01*
X134493000Y-98323000D01*
X136779000Y-98323000D01*
X136779000Y-100241750D01*
%TA.AperFunction,Conductor*%
D18*
G36*
X136779000Y-100241750D02*
G01*
X136753000Y-100267750D01*
X136753000Y-101092000D01*
X136773000Y-101092000D01*
X136773000Y-101346000D01*
X136753000Y-101346000D01*
X136753000Y-102170250D01*
X136779000Y-102196250D01*
X136779000Y-102842427D01*
X136724792Y-102864881D01*
X136621444Y-102933936D01*
X136533553Y-103021827D01*
X136464498Y-103125175D01*
X136416932Y-103240010D01*
X136392683Y-103361918D01*
X136392683Y-103486214D01*
X136416932Y-103608122D01*
X136464498Y-103722957D01*
X136533553Y-103826305D01*
X136621444Y-103914196D01*
X136724792Y-103983251D01*
X136779000Y-104005705D01*
X136779000Y-104134000D01*
X136684845Y-104134000D01*
X136659999Y-104131553D01*
X136635153Y-104134000D01*
X136635146Y-104134000D01*
X136574227Y-104140000D01*
X136017000Y-104140000D01*
X136017000Y-102309341D01*
X136051518Y-102319812D01*
X136176000Y-102332072D01*
X136340250Y-102329000D01*
X136499000Y-102170250D01*
X136499000Y-101346000D01*
X136479000Y-101346000D01*
X136479000Y-101092000D01*
X136499000Y-101092000D01*
X136499000Y-100267750D01*
X136340250Y-100109000D01*
X136176000Y-100105928D01*
X136051518Y-100118188D01*
X136022155Y-100127095D01*
X136105000Y-100044250D01*
X136108072Y-99480000D01*
X136095812Y-99355518D01*
X136059502Y-99235820D01*
X136000537Y-99125506D01*
X135921185Y-99028815D01*
X135824494Y-98949463D01*
X135714180Y-98890498D01*
X135594482Y-98854188D01*
X135470000Y-98841928D01*
X134905750Y-98845000D01*
X134747000Y-99003750D01*
X134747000Y-100203000D01*
X134767000Y-100203000D01*
X134767000Y-100457000D01*
X134747000Y-100457000D01*
X134747000Y-100477000D01*
X134493000Y-100477000D01*
X134493000Y-98323000D01*
X136779000Y-98323000D01*
X136779000Y-100241750D01*
G37*
%TD.AperFunction*%
%TD*%
M02*
