G04 #@! TF.GenerationSoftware,KiCad,Pcbnew,(6.0.1)*
G04 #@! TF.CreationDate,2022-02-03T10:03:19-06:00*
G04 #@! TF.ProjectId,FDC1004Q-Breakout,46444331-3030-4345-912d-427265616b6f,rev?*
G04 #@! TF.SameCoordinates,Original*
G04 #@! TF.FileFunction,Legend,Top*
G04 #@! TF.FilePolarity,Positive*
%FSLAX46Y46*%
G04 Gerber Fmt 4.6, Leading zero omitted, Abs format (unit mm)*
G04 Created by KiCad (PCBNEW (6.0.1)) date 2022-02-03 10:03:19*
%MOMM*%
%LPD*%
G01*
G04 APERTURE LIST*
%ADD10C,0.130000*%
%ADD11C,0.120000*%
%ADD12C,0.127000*%
%ADD13C,0.200000*%
G04 APERTURE END LIST*
D10*
X136188571Y-108273809D02*
X136302857Y-108311904D01*
X136493333Y-108311904D01*
X136569523Y-108273809D01*
X136607619Y-108235714D01*
X136645714Y-108159523D01*
X136645714Y-108083333D01*
X136607619Y-108007142D01*
X136569523Y-107969047D01*
X136493333Y-107930952D01*
X136340952Y-107892857D01*
X136264761Y-107854761D01*
X136226666Y-107816666D01*
X136188571Y-107740476D01*
X136188571Y-107664285D01*
X136226666Y-107588095D01*
X136264761Y-107550000D01*
X136340952Y-107511904D01*
X136531428Y-107511904D01*
X136645714Y-107550000D01*
X136988571Y-108311904D02*
X136988571Y-107511904D01*
X137179047Y-107511904D01*
X137293333Y-107550000D01*
X137369523Y-107626190D01*
X137407619Y-107702380D01*
X137445714Y-107854761D01*
X137445714Y-107969047D01*
X137407619Y-108121428D01*
X137369523Y-108197619D01*
X137293333Y-108273809D01*
X137179047Y-108311904D01*
X136988571Y-108311904D01*
X137750476Y-108083333D02*
X138131428Y-108083333D01*
X137674285Y-108311904D02*
X137940952Y-107511904D01*
X138207619Y-108311904D01*
X145313380Y-100920571D02*
X145313380Y-101453904D01*
X145122904Y-100615809D02*
X144932428Y-101187238D01*
X145427666Y-101187238D01*
X142011619Y-109416809D02*
X142125904Y-109454904D01*
X142316380Y-109454904D01*
X142392571Y-109416809D01*
X142430666Y-109378714D01*
X142468761Y-109302523D01*
X142468761Y-109226333D01*
X142430666Y-109150142D01*
X142392571Y-109112047D01*
X142316380Y-109073952D01*
X142164000Y-109035857D01*
X142087809Y-108997761D01*
X142049714Y-108959666D01*
X142011619Y-108883476D01*
X142011619Y-108807285D01*
X142049714Y-108731095D01*
X142087809Y-108693000D01*
X142164000Y-108654904D01*
X142354476Y-108654904D01*
X142468761Y-108693000D01*
X142811619Y-109454904D02*
X142811619Y-108654904D01*
X142811619Y-109035857D02*
X143268761Y-109035857D01*
X143268761Y-109454904D02*
X143268761Y-108654904D01*
X144030666Y-109454904D02*
X143649714Y-109454904D01*
X143649714Y-108654904D01*
X144297333Y-109454904D02*
X144297333Y-108654904D01*
X144487809Y-108654904D01*
X144602095Y-108693000D01*
X144678285Y-108769190D01*
X144716380Y-108845380D01*
X144754476Y-108997761D01*
X144754476Y-109112047D01*
X144716380Y-109264428D01*
X144678285Y-109340619D01*
X144602095Y-109416809D01*
X144487809Y-109454904D01*
X144297333Y-109454904D01*
X145516380Y-109454904D02*
X145059238Y-109454904D01*
X145287809Y-109454904D02*
X145287809Y-108654904D01*
X145211619Y-108769190D01*
X145135428Y-108845380D01*
X145059238Y-108883476D01*
X145389571Y-107422904D02*
X144932428Y-107422904D01*
X145161000Y-107422904D02*
X145161000Y-106622904D01*
X145084809Y-106737190D01*
X145008619Y-106813380D01*
X144932428Y-106851476D01*
X144894333Y-102685904D02*
X145389571Y-102685904D01*
X145122904Y-102990666D01*
X145237190Y-102990666D01*
X145313380Y-103028761D01*
X145351476Y-103066857D01*
X145389571Y-103143047D01*
X145389571Y-103333523D01*
X145351476Y-103409714D01*
X145313380Y-103447809D01*
X145237190Y-103485904D01*
X145008619Y-103485904D01*
X144932428Y-103447809D01*
X144894333Y-103409714D01*
X142011619Y-99383809D02*
X142125904Y-99421904D01*
X142316380Y-99421904D01*
X142392571Y-99383809D01*
X142430666Y-99345714D01*
X142468761Y-99269523D01*
X142468761Y-99193333D01*
X142430666Y-99117142D01*
X142392571Y-99079047D01*
X142316380Y-99040952D01*
X142164000Y-99002857D01*
X142087809Y-98964761D01*
X142049714Y-98926666D01*
X142011619Y-98850476D01*
X142011619Y-98774285D01*
X142049714Y-98698095D01*
X142087809Y-98660000D01*
X142164000Y-98621904D01*
X142354476Y-98621904D01*
X142468761Y-98660000D01*
X142811619Y-99421904D02*
X142811619Y-98621904D01*
X142811619Y-99002857D02*
X143268761Y-99002857D01*
X143268761Y-99421904D02*
X143268761Y-98621904D01*
X144030666Y-99421904D02*
X143649714Y-99421904D01*
X143649714Y-98621904D01*
X144297333Y-99421904D02*
X144297333Y-98621904D01*
X144487809Y-98621904D01*
X144602095Y-98660000D01*
X144678285Y-98736190D01*
X144716380Y-98812380D01*
X144754476Y-98964761D01*
X144754476Y-99079047D01*
X144716380Y-99231428D01*
X144678285Y-99307619D01*
X144602095Y-99383809D01*
X144487809Y-99421904D01*
X144297333Y-99421904D01*
X145059238Y-98698095D02*
X145097333Y-98660000D01*
X145173523Y-98621904D01*
X145364000Y-98621904D01*
X145440190Y-98660000D01*
X145478285Y-98698095D01*
X145516380Y-98774285D01*
X145516380Y-98850476D01*
X145478285Y-98964761D01*
X145021142Y-99421904D01*
X145516380Y-99421904D01*
X136207619Y-106749809D02*
X136321904Y-106787904D01*
X136512380Y-106787904D01*
X136588571Y-106749809D01*
X136626666Y-106711714D01*
X136664761Y-106635523D01*
X136664761Y-106559333D01*
X136626666Y-106483142D01*
X136588571Y-106445047D01*
X136512380Y-106406952D01*
X136360000Y-106368857D01*
X136283809Y-106330761D01*
X136245714Y-106292666D01*
X136207619Y-106216476D01*
X136207619Y-106140285D01*
X136245714Y-106064095D01*
X136283809Y-106026000D01*
X136360000Y-105987904D01*
X136550476Y-105987904D01*
X136664761Y-106026000D01*
X137464761Y-106711714D02*
X137426666Y-106749809D01*
X137312380Y-106787904D01*
X137236190Y-106787904D01*
X137121904Y-106749809D01*
X137045714Y-106673619D01*
X137007619Y-106597428D01*
X136969523Y-106445047D01*
X136969523Y-106330761D01*
X137007619Y-106178380D01*
X137045714Y-106102190D01*
X137121904Y-106026000D01*
X137236190Y-105987904D01*
X137312380Y-105987904D01*
X137426666Y-106026000D01*
X137464761Y-106064095D01*
X138188571Y-106787904D02*
X137807619Y-106787904D01*
X137807619Y-105987904D01*
X136252000Y-103987523D02*
X136213904Y-104063714D01*
X136213904Y-104178000D01*
X136252000Y-104292285D01*
X136328190Y-104368476D01*
X136404380Y-104406571D01*
X136556761Y-104444666D01*
X136671047Y-104444666D01*
X136823428Y-104406571D01*
X136899619Y-104368476D01*
X136975809Y-104292285D01*
X137013904Y-104178000D01*
X137013904Y-104101809D01*
X136975809Y-103987523D01*
X136937714Y-103949428D01*
X136671047Y-103949428D01*
X136671047Y-104101809D01*
X137013904Y-103606571D02*
X136213904Y-103606571D01*
X137013904Y-103149428D01*
X136213904Y-103149428D01*
X137013904Y-102768476D02*
X136213904Y-102768476D01*
X136213904Y-102578000D01*
X136252000Y-102463714D01*
X136328190Y-102387523D01*
X136404380Y-102349428D01*
X136556761Y-102311333D01*
X136671047Y-102311333D01*
X136823428Y-102349428D01*
X136899619Y-102387523D01*
X136975809Y-102463714D01*
X137013904Y-102578000D01*
X137013904Y-102768476D01*
X144932428Y-104667095D02*
X144970523Y-104629000D01*
X145046714Y-104590904D01*
X145237190Y-104590904D01*
X145313380Y-104629000D01*
X145351476Y-104667095D01*
X145389571Y-104743285D01*
X145389571Y-104819476D01*
X145351476Y-104933761D01*
X144894333Y-105390904D01*
X145389571Y-105390904D01*
X138734406Y-109049327D02*
X138483822Y-109140533D01*
X138627144Y-109534308D02*
X138353528Y-108782554D01*
X138711506Y-108652261D01*
X139271505Y-109299780D02*
X138997889Y-108548026D01*
X139176878Y-108482880D01*
X139297301Y-108479589D01*
X139394955Y-108525126D01*
X139456812Y-108583693D01*
X139544727Y-108713855D01*
X139583815Y-108821248D01*
X139600134Y-108977469D01*
X139590395Y-109062094D01*
X139544858Y-109159748D01*
X139450494Y-109234634D01*
X139271505Y-109299780D01*
X140426774Y-108798217D02*
X140404006Y-108847044D01*
X140309642Y-108921930D01*
X140238046Y-108947988D01*
X140117623Y-108951278D01*
X140019969Y-108905741D01*
X139958112Y-108847175D01*
X139870197Y-108717013D01*
X139831109Y-108609620D01*
X139814790Y-108453399D01*
X139824529Y-108368774D01*
X139870066Y-108271120D01*
X139964430Y-108196234D01*
X140036025Y-108170175D01*
X140156448Y-108166885D01*
X140205275Y-108189654D01*
X141168789Y-108609225D02*
X140739215Y-108765577D01*
X140954002Y-108687401D02*
X140680386Y-107935647D01*
X140647879Y-108069099D01*
X140602342Y-108166754D01*
X140543775Y-108228610D01*
X141360545Y-107688090D02*
X141432140Y-107662031D01*
X141516765Y-107671770D01*
X141565592Y-107694539D01*
X141627449Y-107753105D01*
X141715364Y-107883267D01*
X141780511Y-108062256D01*
X141796830Y-108218477D01*
X141787091Y-108303102D01*
X141764323Y-108351929D01*
X141705756Y-108413785D01*
X141634161Y-108439844D01*
X141549536Y-108430105D01*
X141500709Y-108407336D01*
X141438852Y-108348770D01*
X141350937Y-108218608D01*
X141285790Y-108039619D01*
X141269471Y-107883399D01*
X141279210Y-107798774D01*
X141301978Y-107749946D01*
X141360545Y-107688090D01*
X142076501Y-107427503D02*
X142148097Y-107401444D01*
X142232721Y-107411184D01*
X142281549Y-107433952D01*
X142343405Y-107492518D01*
X142431320Y-107622680D01*
X142496467Y-107801669D01*
X142512787Y-107957890D01*
X142503047Y-108042515D01*
X142480279Y-108091342D01*
X142421713Y-108153199D01*
X142350117Y-108179257D01*
X142265492Y-108169518D01*
X142216665Y-108146750D01*
X142154808Y-108088183D01*
X142066893Y-107958021D01*
X142001747Y-107779032D01*
X141985427Y-107622812D01*
X141995166Y-107538187D01*
X142017935Y-107489360D01*
X142076501Y-107427503D01*
X143062652Y-107352354D02*
X143245062Y-107853524D01*
X142779428Y-107131119D02*
X142795879Y-107733232D01*
X143261250Y-107563851D01*
X144166066Y-107599386D02*
X144081441Y-107589647D01*
X143983787Y-107544110D01*
X143837306Y-107475804D01*
X143752681Y-107466065D01*
X143681085Y-107492124D01*
X143782030Y-107658084D02*
X143697405Y-107648345D01*
X143599750Y-107602808D01*
X143511835Y-107472646D01*
X143420630Y-107222061D01*
X143404310Y-107065840D01*
X143449847Y-106968186D01*
X143508413Y-106906330D01*
X143651605Y-106854212D01*
X143736230Y-106863951D01*
X143833884Y-106909488D01*
X143921799Y-107039650D01*
X144013005Y-107290235D01*
X144029324Y-107446456D01*
X143983787Y-107544110D01*
X143925221Y-107605966D01*
X143782030Y-107658084D01*
X136042523Y-99510904D02*
X136537761Y-99510904D01*
X136271095Y-99815666D01*
X136385380Y-99815666D01*
X136461571Y-99853761D01*
X136499666Y-99891857D01*
X136537761Y-99968047D01*
X136537761Y-100158523D01*
X136499666Y-100234714D01*
X136461571Y-100272809D01*
X136385380Y-100310904D01*
X136156809Y-100310904D01*
X136080619Y-100272809D01*
X136042523Y-100234714D01*
X136766333Y-99510904D02*
X137033000Y-100310904D01*
X137299666Y-99510904D01*
X137490142Y-99510904D02*
X137985380Y-99510904D01*
X137718714Y-99815666D01*
X137833000Y-99815666D01*
X137909190Y-99853761D01*
X137947285Y-99891857D01*
X137985380Y-99968047D01*
X137985380Y-100158523D01*
X137947285Y-100234714D01*
X137909190Y-100272809D01*
X137833000Y-100310904D01*
X137604428Y-100310904D01*
X137528238Y-100272809D01*
X137490142Y-100234714D01*
G04 #@! TO.C,U1*
X140144571Y-106015285D02*
X140144571Y-106622428D01*
X140180285Y-106693857D01*
X140216000Y-106729571D01*
X140287428Y-106765285D01*
X140430285Y-106765285D01*
X140501714Y-106729571D01*
X140537428Y-106693857D01*
X140573142Y-106622428D01*
X140573142Y-106015285D01*
X141323142Y-106765285D02*
X140894571Y-106765285D01*
X141108857Y-106765285D02*
X141108857Y-106015285D01*
X141037428Y-106122428D01*
X140966000Y-106193857D01*
X140894571Y-106229571D01*
G04 #@! TO.C,C1*
X139422000Y-101486857D02*
X139386285Y-101522571D01*
X139279142Y-101558285D01*
X139207714Y-101558285D01*
X139100571Y-101522571D01*
X139029142Y-101451142D01*
X138993428Y-101379714D01*
X138957714Y-101236857D01*
X138957714Y-101129714D01*
X138993428Y-100986857D01*
X139029142Y-100915428D01*
X139100571Y-100844000D01*
X139207714Y-100808285D01*
X139279142Y-100808285D01*
X139386285Y-100844000D01*
X139422000Y-100879714D01*
X140136285Y-101558285D02*
X139707714Y-101558285D01*
X139922000Y-101558285D02*
X139922000Y-100808285D01*
X139850571Y-100915428D01*
X139779142Y-100986857D01*
X139707714Y-101022571D01*
D11*
G04 #@! TO.C,J1*
X133290000Y-101600000D02*
X133290000Y-109280000D01*
X133290000Y-109280000D02*
X135950000Y-109280000D01*
X133290000Y-101600000D02*
X135950000Y-101600000D01*
X133290000Y-99000000D02*
X134620000Y-99000000D01*
X135950000Y-101600000D02*
X135950000Y-109280000D01*
X133290000Y-100330000D02*
X133290000Y-99000000D01*
D12*
G04 #@! TO.C,U1*
X141835000Y-102640000D02*
X138835000Y-102640000D01*
X141835000Y-105640000D02*
X138835000Y-105640000D01*
D13*
X143935000Y-105390000D02*
G75*
G03*
X143935000Y-105390000I-100000J0D01*
G01*
D11*
G04 #@! TO.C,C1*
X137260420Y-101729000D02*
X137541580Y-101729000D01*
X137260420Y-100709000D02*
X137541580Y-100709000D01*
G04 #@! TD*
M02*
