M48
; DRILL file {KiCad (5.1.10)-1} date 07/29/21 15:12:45
; FORMAT={-:-/ absolute / inch / decimal}
; #@! TF.CreationDate,2021-07-29T15:12:45-05:00
; #@! TF.GenerationSoftware,Kicad,Pcbnew,(5.1.10)-1
; #@! TF.FileFunction,Plated,1,2,PTH
FMAT,2
INCH
T1C0.0118
T2C0.0315
T3C0.0394
%
G90
G05
T1
X5.34Y-4.3
X5.3946Y-4.0718
X5.42Y-3.885
X5.42Y-4.035
X5.4875Y-4.06
X5.5Y-4.1
X5.505Y-3.985
X5.5575Y-4.0725
X5.5575Y-4.1075
X5.61Y-4.3
X5.615Y-4.15
X5.65Y-3.88
X5.66Y-4.035
X5.7Y-4.075
X5.705Y-4.11
X5.7075Y-4.165
T2
X5.775Y-3.9
X5.775Y-3.9787
X5.775Y-4.0575
X5.775Y-4.1362
X5.775Y-4.215
X5.775Y-4.2937
T3
X5.3Y-3.95
X5.3Y-4.05
X5.3Y-4.15
X5.3Y-4.25
T0
M30
