G04 #@! TF.GenerationSoftware,KiCad,Pcbnew,(6.0.1)*
G04 #@! TF.CreationDate,2022-02-03T10:03:19-06:00*
G04 #@! TF.ProjectId,FDC1004Q-Breakout,46444331-3030-4345-912d-427265616b6f,rev?*
G04 #@! TF.SameCoordinates,Original*
G04 #@! TF.FileFunction,Copper,L2,Bot*
G04 #@! TF.FilePolarity,Positive*
%FSLAX46Y46*%
G04 Gerber Fmt 4.6, Leading zero omitted, Abs format (unit mm)*
G04 Created by KiCad (PCBNEW (6.0.1)) date 2022-02-03 10:03:19*
%MOMM*%
%LPD*%
G01*
G04 APERTURE LIST*
G04 #@! TA.AperFunction,ComponentPad*
%ADD10R,1.700000X1.700000*%
G04 #@! TD*
G04 #@! TA.AperFunction,ComponentPad*
%ADD11O,1.700000X1.700000*%
G04 #@! TD*
G04 #@! TA.AperFunction,ComponentPad*
%ADD12C,1.350000*%
G04 #@! TD*
G04 #@! TA.AperFunction,ComponentPad*
%ADD13O,1.350000X1.350000*%
G04 #@! TD*
G04 #@! TA.AperFunction,ViaPad*
%ADD14C,0.500000*%
G04 #@! TD*
G04 APERTURE END LIST*
D10*
G04 #@! TO.P,J1,1*
G04 #@! TO.N,+3V3*
X134620000Y-100330000D03*
D11*
G04 #@! TO.P,J1,2*
G04 #@! TO.N,GND*
X134620000Y-102870000D03*
G04 #@! TO.P,J1,3*
G04 #@! TO.N,SCL*
X134620000Y-105410000D03*
G04 #@! TO.P,J1,4*
G04 #@! TO.N,SDA*
X134620000Y-107950000D03*
G04 #@! TD*
D12*
G04 #@! TO.P,J2,1*
G04 #@! TO.N,SHLD2*
X146685000Y-99060000D03*
D13*
G04 #@! TO.P,J2,2*
G04 #@! TO.N,CIN4*
X146685000Y-101060000D03*
G04 #@! TO.P,J2,3*
G04 #@! TO.N,CIN3*
X146685000Y-103060000D03*
G04 #@! TO.P,J2,4*
G04 #@! TO.N,CIN2*
X146685000Y-105060000D03*
G04 #@! TO.P,J2,5*
G04 #@! TO.N,CIN1*
X146685000Y-107060000D03*
G04 #@! TO.P,J2,6*
G04 #@! TO.N,SHLD1*
X146685000Y-109060000D03*
G04 #@! TD*
D14*
G04 #@! TO.N,GND*
X143510000Y-98552000D03*
X137668000Y-102489000D03*
X142494000Y-109220000D03*
X139700000Y-104140000D03*
X135636000Y-109220000D03*
X137023683Y-103424066D03*
X137668000Y-98679000D03*
X140462000Y-101219000D03*
G04 #@! TO.N,SHLD1*
X142621000Y-105410000D03*
X144970500Y-105791000D03*
X141160500Y-104330500D03*
X144907000Y-104394000D03*
G04 #@! TO.N,SHLD2*
X143764000Y-102489000D03*
X141160500Y-103441500D03*
X139382500Y-103124000D03*
X144780000Y-103505000D03*
G04 #@! TD*
G04 #@! TA.AperFunction,Conductor*
G04 #@! TO.N,GND*
G36*
X144395465Y-98191002D02*
G01*
X144441958Y-98244658D01*
X144452062Y-98314932D01*
X144422568Y-98379512D01*
X144413700Y-98388753D01*
X140498387Y-102073753D01*
X140435073Y-102105875D01*
X140412031Y-102108000D01*
X138938000Y-102108000D01*
X138938000Y-102855465D01*
X138926055Y-102909013D01*
X138895083Y-102974982D01*
X138893703Y-102983846D01*
X138893702Y-102983849D01*
X138884599Y-103042317D01*
X138872850Y-103117773D01*
X138874014Y-103126675D01*
X138874014Y-103126678D01*
X138886894Y-103225170D01*
X138891588Y-103261065D01*
X138895203Y-103269280D01*
X138927330Y-103342296D01*
X138938000Y-103393041D01*
X138938000Y-103632000D01*
X140336000Y-103632000D01*
X140404121Y-103652002D01*
X140450614Y-103705658D01*
X140462000Y-103758000D01*
X140462000Y-106426000D01*
X143548905Y-109512905D01*
X143582931Y-109575217D01*
X143577866Y-109646032D01*
X143535319Y-109702868D01*
X143468799Y-109727679D01*
X143459810Y-109728000D01*
X134746000Y-109728000D01*
X134677879Y-109707998D01*
X134631386Y-109654342D01*
X134620000Y-109602000D01*
X134620000Y-109175178D01*
X134640002Y-109107057D01*
X134693658Y-109060564D01*
X134727920Y-109050482D01*
X134873231Y-109029413D01*
X134873236Y-109029412D01*
X134878945Y-109028584D01*
X134884409Y-109026729D01*
X134884414Y-109026728D01*
X135065693Y-108965192D01*
X135065698Y-108965190D01*
X135071165Y-108963334D01*
X135248276Y-108864147D01*
X135310934Y-108812035D01*
X135399913Y-108738031D01*
X135404345Y-108734345D01*
X135534147Y-108578276D01*
X135633334Y-108401165D01*
X135635190Y-108395698D01*
X135635192Y-108395693D01*
X135696728Y-108214414D01*
X135696729Y-108214409D01*
X135698584Y-108208945D01*
X135699412Y-108203236D01*
X135699413Y-108203231D01*
X135727179Y-108011727D01*
X135727712Y-108008053D01*
X135729232Y-107950000D01*
X135710658Y-107747859D01*
X135709090Y-107742299D01*
X135657125Y-107558046D01*
X135657124Y-107558044D01*
X135655557Y-107552487D01*
X135565776Y-107370428D01*
X135444320Y-107207779D01*
X135295258Y-107069987D01*
X135290375Y-107066906D01*
X135290371Y-107066903D01*
X135128464Y-106964748D01*
X135123581Y-106961667D01*
X134935039Y-106886446D01*
X134929379Y-106885320D01*
X134929375Y-106885319D01*
X134836195Y-106866785D01*
X134735946Y-106846844D01*
X134732213Y-106846795D01*
X134667172Y-106820034D01*
X134626543Y-106761812D01*
X134620000Y-106721738D01*
X134620000Y-106635178D01*
X134640002Y-106567057D01*
X134693658Y-106520564D01*
X134727920Y-106510482D01*
X134873231Y-106489413D01*
X134873236Y-106489412D01*
X134878945Y-106488584D01*
X134884409Y-106486729D01*
X134884414Y-106486728D01*
X135065693Y-106425192D01*
X135065698Y-106425190D01*
X135071165Y-106423334D01*
X135248276Y-106324147D01*
X135310934Y-106272035D01*
X135399913Y-106198031D01*
X135404345Y-106194345D01*
X135457537Y-106130389D01*
X135530453Y-106042718D01*
X135530455Y-106042715D01*
X135534147Y-106038276D01*
X135624035Y-105877769D01*
X135630510Y-105866208D01*
X135630511Y-105866206D01*
X135633334Y-105861165D01*
X135635190Y-105855698D01*
X135635192Y-105855693D01*
X135696728Y-105674414D01*
X135696729Y-105674409D01*
X135698584Y-105668945D01*
X135699412Y-105663236D01*
X135699413Y-105663231D01*
X135727179Y-105471727D01*
X135727712Y-105468053D01*
X135729232Y-105410000D01*
X135717797Y-105285551D01*
X135711187Y-105213613D01*
X135711186Y-105213610D01*
X135710658Y-105207859D01*
X135709090Y-105202299D01*
X135657125Y-105018046D01*
X135657124Y-105018044D01*
X135655557Y-105012487D01*
X135603000Y-104905910D01*
X135568331Y-104835609D01*
X135565776Y-104830428D01*
X135444320Y-104667779D01*
X135295258Y-104529987D01*
X135290375Y-104526906D01*
X135290371Y-104526903D01*
X135128464Y-104424748D01*
X135123581Y-104421667D01*
X135051614Y-104392955D01*
X134995755Y-104349134D01*
X134972455Y-104282069D01*
X134989111Y-104213054D01*
X135040436Y-104164000D01*
X135062098Y-104155239D01*
X135112252Y-104140192D01*
X135121842Y-104136433D01*
X135313095Y-104042739D01*
X135321945Y-104037464D01*
X135495328Y-103913792D01*
X135503200Y-103907139D01*
X135654052Y-103756812D01*
X135660730Y-103748965D01*
X135785003Y-103576020D01*
X135790313Y-103567183D01*
X135884670Y-103376267D01*
X135888469Y-103366672D01*
X135950377Y-103162910D01*
X135952555Y-103152837D01*
X135953986Y-103141962D01*
X135951775Y-103127778D01*
X135938617Y-103124000D01*
X134620000Y-103124000D01*
X134620000Y-102616000D01*
X135938344Y-102616000D01*
X135951875Y-102612027D01*
X135953180Y-102602947D01*
X135911214Y-102435875D01*
X135907894Y-102426124D01*
X135822972Y-102230814D01*
X135818105Y-102221739D01*
X135702426Y-102042926D01*
X135696136Y-102034757D01*
X135552806Y-101877240D01*
X135545273Y-101870215D01*
X135378139Y-101738222D01*
X135369552Y-101732517D01*
X135257765Y-101670807D01*
X135207795Y-101620375D01*
X135193023Y-101550932D01*
X135218139Y-101484527D01*
X135275170Y-101442242D01*
X135318658Y-101434499D01*
X135495066Y-101434499D01*
X135530818Y-101427388D01*
X135557126Y-101422156D01*
X135557128Y-101422155D01*
X135569301Y-101419734D01*
X135579621Y-101412839D01*
X135579622Y-101412838D01*
X135643168Y-101370377D01*
X135653484Y-101363484D01*
X135709734Y-101279301D01*
X135724500Y-101205067D01*
X135724499Y-99454934D01*
X135709734Y-99380699D01*
X135653484Y-99296516D01*
X135569301Y-99240266D01*
X135495067Y-99225500D01*
X134745998Y-99225500D01*
X134677879Y-99205499D01*
X134631386Y-99151843D01*
X134620000Y-99099501D01*
X134620000Y-98297000D01*
X134640002Y-98228879D01*
X134693658Y-98182386D01*
X134746000Y-98171000D01*
X144327344Y-98171000D01*
X144395465Y-98191002D01*
G37*
G04 #@! TD.AperFunction*
G04 #@! TD*
G04 #@! TA.AperFunction,Conductor*
G04 #@! TO.N,SHLD2*
G36*
X145500995Y-98572002D02*
G01*
X145547488Y-98625658D01*
X145557592Y-98695932D01*
X145553206Y-98715365D01*
X145524608Y-98807463D01*
X145522215Y-98818724D01*
X145498018Y-99023165D01*
X145497717Y-99034666D01*
X145511181Y-99240088D01*
X145512981Y-99251456D01*
X145563657Y-99450990D01*
X145567495Y-99461828D01*
X145653684Y-99648786D01*
X145659440Y-99658755D01*
X145676972Y-99683563D01*
X145687563Y-99691954D01*
X145700861Y-99684927D01*
X146595905Y-98789884D01*
X146658217Y-98755859D01*
X146729033Y-98760924D01*
X146774095Y-98789885D01*
X146955115Y-98970905D01*
X146989141Y-99033217D01*
X146984076Y-99104032D01*
X146955116Y-99149095D01*
X146060186Y-100044025D01*
X146053992Y-100055370D01*
X146063872Y-100067857D01*
X146113303Y-100100886D01*
X146115468Y-100102062D01*
X146116298Y-100102888D01*
X146118103Y-100104094D01*
X146117866Y-100104448D01*
X146165792Y-100152142D01*
X146181052Y-100221479D01*
X146156404Y-100288059D01*
X146129413Y-100314732D01*
X146059617Y-100365442D01*
X145928877Y-100510644D01*
X145831182Y-100679856D01*
X145829140Y-100686141D01*
X145782121Y-100830853D01*
X145770804Y-100865682D01*
X145750380Y-101060000D01*
X145770804Y-101254318D01*
X145831182Y-101440144D01*
X145834485Y-101445866D01*
X145834486Y-101445867D01*
X145868058Y-101504014D01*
X145928877Y-101609356D01*
X145933295Y-101614263D01*
X145933296Y-101614264D01*
X146032805Y-101724780D01*
X146059617Y-101754558D01*
X146217690Y-101869405D01*
X146223719Y-101872089D01*
X146223722Y-101872091D01*
X146387241Y-101944893D01*
X146441337Y-101990873D01*
X146461987Y-102058800D01*
X146442635Y-102127108D01*
X146387241Y-102175107D01*
X146223722Y-102247909D01*
X146223719Y-102247911D01*
X146217690Y-102250595D01*
X146059617Y-102365442D01*
X145928877Y-102510644D01*
X145831182Y-102679856D01*
X145770804Y-102865682D01*
X145750380Y-103060000D01*
X145770804Y-103254318D01*
X145831182Y-103440144D01*
X145834485Y-103445866D01*
X145834486Y-103445867D01*
X145906155Y-103570000D01*
X145922893Y-103638995D01*
X145899673Y-103706087D01*
X145843866Y-103749974D01*
X145797036Y-103759000D01*
X140969000Y-103759000D01*
X140900879Y-103738998D01*
X140854386Y-103685342D01*
X140843000Y-103633000D01*
X140843000Y-103314500D01*
X139318000Y-103314500D01*
X139249879Y-103294498D01*
X139203386Y-103240842D01*
X139192000Y-103188500D01*
X139192000Y-102551500D01*
X139212002Y-102483379D01*
X139265658Y-102436886D01*
X139318000Y-102425500D01*
X140843000Y-102425500D01*
X140901764Y-102370353D01*
X143317914Y-100102888D01*
X144934141Y-98586121D01*
X144997501Y-98554092D01*
X145020364Y-98552000D01*
X145432874Y-98552000D01*
X145500995Y-98572002D01*
G37*
G04 #@! TD.AperFunction*
G04 #@! TD*
G04 #@! TA.AperFunction,Conductor*
G04 #@! TO.N,SHLD1*
G36*
X146228480Y-104033002D02*
G01*
X146274973Y-104086658D01*
X146285077Y-104156932D01*
X146255583Y-104221512D01*
X146223485Y-104248015D01*
X146217690Y-104250595D01*
X146059617Y-104365442D01*
X145928877Y-104510644D01*
X145831182Y-104679856D01*
X145770804Y-104865682D01*
X145750380Y-105060000D01*
X145770804Y-105254318D01*
X145831182Y-105440144D01*
X145928877Y-105609356D01*
X146059617Y-105754558D01*
X146217690Y-105869405D01*
X146223719Y-105872089D01*
X146223722Y-105872091D01*
X146387241Y-105944893D01*
X146441337Y-105990873D01*
X146461987Y-106058800D01*
X146442635Y-106127108D01*
X146387241Y-106175107D01*
X146223722Y-106247909D01*
X146223719Y-106247911D01*
X146217690Y-106250595D01*
X146059617Y-106365442D01*
X145928877Y-106510644D01*
X145831182Y-106679856D01*
X145770804Y-106865682D01*
X145750380Y-107060000D01*
X145770804Y-107254318D01*
X145831182Y-107440144D01*
X145928877Y-107609356D01*
X146059617Y-107754558D01*
X146113415Y-107793645D01*
X146132558Y-107807553D01*
X146175912Y-107863776D01*
X146181987Y-107934512D01*
X146148855Y-107997303D01*
X146122920Y-108017774D01*
X145991639Y-108095878D01*
X145982327Y-108102643D01*
X145827547Y-108238381D01*
X145819630Y-108246724D01*
X145692180Y-108408394D01*
X145685909Y-108418050D01*
X145590060Y-108600229D01*
X145585655Y-108610863D01*
X145530436Y-108788700D01*
X145530218Y-108802799D01*
X145536950Y-108806000D01*
X146813000Y-108806000D01*
X146881121Y-108826002D01*
X146927614Y-108879658D01*
X146939000Y-108932000D01*
X146939000Y-109188000D01*
X146918998Y-109256121D01*
X146865342Y-109302614D01*
X146813000Y-109314000D01*
X145546981Y-109314000D01*
X145533450Y-109317973D01*
X145532158Y-109326962D01*
X145561878Y-109443985D01*
X145559260Y-109514933D01*
X145518699Y-109573203D01*
X145453075Y-109600294D01*
X145439755Y-109601000D01*
X144578190Y-109601000D01*
X144510069Y-109580998D01*
X144489095Y-109564095D01*
X140879905Y-105954905D01*
X140845879Y-105892593D01*
X140843000Y-105865810D01*
X140843000Y-104139000D01*
X140863002Y-104070879D01*
X140916658Y-104024386D01*
X140969000Y-104013000D01*
X146160359Y-104013000D01*
X146228480Y-104033002D01*
G37*
G04 #@! TD.AperFunction*
G04 #@! TD*
M02*
